<svg width="140" height="43" viewBox="0 0 140 43" xmlns="http://www.w3.org/2000/svg" class="fill-black hover:fill-gray_darker transition-all duration-250"><path d="M90.6086 0H75.213V41.8953H90.6086V0Z"></path><path d="M96.9518 26.7516V26.9184C97.0609 29.6911 97.8868 32.3868 99.3476 34.7373C100.808 37.0878 102.853 39.0113 105.278 40.3166C107.704 41.6219 110.425 42.2636 113.172 42.1777C115.919 42.0919 118.596 41.2815 120.937 39.8273L112.48 26.5849H113.074C117.123 26.4855 120.979 24.8149 123.84 21.9202C126.701 19.0255 128.347 15.1292 128.437 11.0409H112.38V5.08975e-07H96.9849V26.7516H96.9518Z"></path><path d="M52.6813 10.1069C50.6161 10.1069 48.5712 10.5176 46.6632 11.3155C44.7553 12.1134 43.0217 13.283 41.5614 14.7573C40.1011 16.2317 38.9427 17.982 38.1524 19.9084C37.3621 21.8347 36.9554 23.8994 36.9554 25.9844C36.9554 28.0695 37.3621 30.1342 38.1524 32.0605C38.9427 33.9869 40.1011 35.7372 41.5614 37.2116C43.0217 38.6859 44.7553 39.8555 46.6632 40.6534C48.5712 41.4513 50.6161 41.862 52.6813 41.862H68.4072V10.1069H52.6813ZM56.1172 26.0178C56.1172 26.7039 55.9157 27.3746 55.5382 27.9451C55.1606 28.5156 54.624 28.9602 53.9962 29.2228C53.3683 29.4853 52.6775 29.554 52.011 29.4202C51.3445 29.2863 50.7323 28.9559 50.2517 28.4708C49.7712 27.9856 49.444 27.3675 49.3114 26.6946C49.1788 26.0217 49.2469 25.3241 49.5069 24.6903C49.767 24.0564 50.2074 23.5146 50.7724 23.1334C51.3374 22.7522 52.0017 22.5488 52.6813 22.5488C53.1341 22.5429 53.5835 22.6287 54.003 22.801C54.4224 22.9732 54.8035 23.2285 55.1237 23.5518C55.4439 23.8751 55.6968 24.2599 55.8674 24.6834C56.0381 25.1069 56.123 25.5606 56.1172 26.0178Z"></path><path d="M16.0755 9.77335C12.9176 9.77217 9.82924 10.7105 7.19635 12.471C4.56346 14.2316 2.50272 16.7364 1.27155 19.6725C0.0403704 22.6086 -0.306662 25.8459 0.273799 28.98C0.85426 32.1141 2.33648 35.006 4.53531 37.2945C6.73414 39.5831 9.55211 41.1668 12.6372 41.8478C15.7223 42.5288 18.9377 42.277 21.8819 41.1237C24.8261 39.9705 27.3684 37.967 29.1914 35.3634C31.0143 32.7599 32.0371 29.6718 32.1319 26.4848V5.08975e-07H16.7363V9.77335H16.2738C16.2077 9.80671 16.1416 9.77335 16.0755 9.77335ZM19.5114 26.0178C19.5114 26.7039 19.3099 27.3746 18.9324 27.9451C18.5548 28.5156 18.0182 28.9602 17.3904 29.2228C16.7626 29.4853 16.0717 29.554 15.4052 29.4202C14.7387 29.2863 14.1265 28.9559 13.646 28.4708C13.1654 27.9856 12.8382 27.3675 12.7056 26.6946C12.573 26.0217 12.6411 25.3241 12.9011 24.6903C13.1612 24.0564 13.6016 23.5146 14.1666 23.1334C14.7317 22.7522 15.396 22.5488 16.0755 22.5488C16.9852 22.554 17.8561 22.9212 18.4993 23.5706C19.1426 24.2201 19.5062 25.0994 19.5114 26.0178Z"></path><path d="M136.068 10.4071C135.291 10.4071 134.531 10.6399 133.884 11.0761C133.238 11.5122 132.734 12.1322 132.436 12.8575C132.139 13.5828 132.061 14.3809 132.213 15.1509C132.364 15.9209 132.739 16.6282 133.289 17.1833C133.838 17.7384 134.539 18.1165 135.301 18.2696C136.064 18.4228 136.855 18.3442 137.573 18.0437C138.291 17.7433 138.905 17.2345 139.337 16.5818C139.769 15.929 140 15.1616 140 14.3765C140.002 13.8547 139.901 13.3378 139.704 12.8554C139.507 12.373 139.218 11.9347 138.852 11.5658C138.487 11.1969 138.053 10.9045 137.575 10.7057C137.097 10.5068 136.585 10.4054 136.068 10.4071ZM136.068 17.6121C135.435 17.6121 134.815 17.4223 134.288 17.0668C133.761 16.7112 133.35 16.2059 133.108 15.6147C132.865 15.0235 132.802 14.3729 132.925 13.7453C133.049 13.1176 133.354 12.5411 133.802 12.0886C134.251 11.6361 134.822 11.328 135.443 11.2031C136.065 11.0783 136.709 11.1424 137.295 11.3872C137.88 11.6321 138.381 12.0468 138.733 12.5789C139.085 13.111 139.273 13.7366 139.273 14.3765C139.272 15.2344 138.934 16.0568 138.334 16.6634C137.733 17.27 136.918 17.6112 136.068 17.6121Z"></path><path d="M136.828 16.2444H137.753L136.762 14.5766H136.828C137.073 14.5356 137.294 14.4032 137.447 14.2055C137.6 14.0078 137.674 13.7593 137.654 13.5092C137.654 12.7421 137.159 12.3418 136.201 12.3418H134.714V16.2444H135.507V14.6434H136.035V14.6767L136.828 16.2444ZM136.828 13.5092C136.828 14.0096 136.333 14.0096 136.035 14.0096H135.474V13.0089H136.102C136.3 12.9755 136.828 12.9755 136.828 13.5092Z"></path></svg>