<svg xmlns="http://www.w3.org/2000/svg" xmlns:xlink="http://www.w3.org/1999/xlink" width="108" height="108" stroke="#000" stroke-linecap="round" stroke-linejoin="round" fill="#fff" fill-rule="evenodd" xmlns:v="https://vecta.io/nano"><style><![CDATA[.e{fill:#29235c}.f{stroke:none}.g{fill-rule:nonzero}.h{fill:none}.i{fill:#bee4fa}.j{stroke-linejoin:miter}.k{fill:#6dc8f2}.l{stroke:#bee4fa}.m{stroke-width:5.85}.n{fill:#0c3630}.o{stroke-linecap:butt}.p{stroke-width:.53}.q{stroke:#29235c}.r{fill:#e8e1da}.s{stroke-width:9.57}]]></style><defs><clipPath id="A"><path d="M43.21 89.68C18.38 88.77-.88 68.04.03 43.21S21.67-.88 46.5.03 90.59 21.67 89.68 46.5 68.04 90.59 43.21 89.68z" transform="translate(-10.25 -12.49)" class="f h j o p"/></clipPath><path id="B" d="M2.52 22.12a1.77 1.77 0 0 1-.42-.29s-3.86-1.7-1.11-4.79c.72-.8 2.26-2.13 4.17 1.14-.56.09-1.13.34-1.61.76-.99.86-1.36 2.13-1.03 3.18z"/><path id="C" d="M10.15 30.92c-5.47.02-9.03-4.55-8.42-9.71.77-6.61 7.95-10.96 14.13-11.79 9.02-1.21 17.52 8.68 9.61 16.05-2.98 2.77-9.73 5.43-15.32 5.45z"/><path id="D" d="M14.92 26.44c-1.09-.2-2.07-.86-2.54-1.99-1.32-3.16 2.51-5.3 5.17-4.3.66.25 1.17.74 1.49 1.39a3.6 3.6 0 0 1-.41 3.65 4 4 0 0 1-3.71 1.25z"/><path id="E" d="M11.86 20.33c.38 1.07-.21 2.25-1.32 2.64s-2.31-.15-2.68-1.22c-.38-1.06.21-2.24 1.31-2.63 1.11-.39 2.31.15 2.69 1.21z"/><path id="F" d="M48.44 27.98c-.05.05-.09.12-.13.18l-.31.4-.29.36-.55.61c-4.65 4.98-12.55 7.07-19.31 5.09-3.95-1.16-6.99-3.6-8.98-6.81-1.32-2.11-2.18-4.56-2.55-7.19-.49-3.56-.15-7.29 1.21-10.63a15.9 15.9 0 0 1 4.06-5.68c.11-.09.26-.22.46-.37 2.18-1.72 9.93-6.85 19.45-1.72.52.28 1.04.59 1.57.93a19.8 19.8 0 0 1 6.18 7.46c.3.71 4.19 10.26-.81 17.37z"/><path id="G" d="M52.18 5.59c.04 2.47-1.97 4.5-4.49 4.55-2.52.03-4.59-1.93-4.63-4.4a4.5 4.5 0 0 1 4.49-4.54c2.52-.04 4.59 1.93 4.63 4.39z"/><path id="H" d="M18.31 8.37c.64-1.14 1.42-2.14 2.29-3.07-.38-.46-.96-.76-1.61-.75a2 2 0 0 0-2 2c.02.84.56 1.54 1.32 1.82z"/><path id="I" d="M47.76 8.08a15.5 15.5 0 0 0-2.38-2.99 2 2 0 0 1 1.59-.8c1.12-.02 2.04.85 2.05 1.94.02.83-.51 1.55-1.26 1.85z"/><path id="J" d="M48.51 34.25c-11.77 8.81-27.93 2.48-27.93 2.48-2.5-2.76-.07-4.93-.07-4.93h.01c-.78-.62-1.1-1.38-.27-2.1 0 0 .22.09.62.24 2.99 1.11 15.96 5.32 26.04-.15 0 0 1.56.22.87 1.36.3.16.52.4.65.69.48.98.08 2.41.08 2.41z"/><path id="K" d="M38.77 17.92c-.79-1.44-2.17-2.46-3.71-2.9-5.1-.91-6.78 2.87-7.07 3.68-.71 2.17-.51 4.89 1.12 6.16 2.09 1.64 5.36 2.39 7.82 1.16 2.87-1.43 3.27-5.51 1.84-8.1z"/><path id="L" d="M25.51 15c-.02-1.12.88-2.04 2-2.06s2.04.88 2.06 2-.87 2.04-2 2.06c-1.12.02-2.04-.88-2.06-2z"/><path id="M" d="M33.37 21.12c.46 2.43 2.75 2.1 3.53.3.13-.31-.2-.59-.33-.28-.61 1.39-2.47 1.75-2.84-.18-.07-.36-.43-.2-.36.16h0z"/><path id="N" d="M33.32 20.97c-.26 1.95-2.14 1.75-2.82.4-.15-.29-.47-.01-.32.29.86 1.73 3.18 1.92 3.51-.55.05-.35-.32-.5-.37-.14h0z"/><path id="O" d="M30.91 19.26c-.01-.85 1.13-1.56 2.57-1.58 1.43-.02 2.6.65 2.61 1.5s-1.13 1.56-2.57 1.58c-1.43.02-2.6-.65-2.61-1.5z"/><path id="P" d="M23.1 24.46c-.06-3.76 4.52-6.86 10.27-6.95s10.42 2.87 10.48 6.64c.06 3.76-4.52 6.86-10.27 6.95s-10.42-2.87-10.48-6.64z"/><path id="Q" d="M70.44 7.93a1.89 1.89 0 0 1 2.64-.51h0a1.9 1.9 0 0 1 .51 2.64l-3.21 4.74a1.89 1.89 0 0 1-2.64.5h0a1.89 1.89 0 0 1-.51-2.64l3.21-4.73z"/><path id="R" d="M66.64 6.01a1.9 1.9 0 0 1 2.54-.91h0a1.9 1.9 0 0 1 .9 2.53l-2.44 5.18a1.91 1.91 0 0 1-2.54.91h0a1.9 1.9 0 0 1-.91-2.54l2.45-5.17z"/><path id="S" d="M61.73 6.63a1.92 1.92 0 0 1 1.78-2.03h0a1.91 1.91 0 0 1 2.02 1.78l.38 5.71a1.9 1.9 0 0 1-1.78 2.02h0a1.9 1.9 0 0 1-2.02-1.77l-.38-5.71z"/><path id="T" d="M58.66 11.84a1.92 1.92 0 0 1-.47-2.66h0a1.92 1.92 0 0 1 2.66-.47l4.69 3.28c.86.6 1.07 1.79.47 2.66h0a1.9 1.9 0 0 1-2.65.47l-4.7-3.28z"/><path id="U" d="M16.79 39.6a4.2 4.2 0 1 1 8.42 0 4.2 4.2 0 1 1-8.42 0z"/><path id="V" d="M18.25 39.6c0-1.52 1.22-2.74 2.74-2.74s2.75 1.22 2.75 2.74-1.23 2.75-2.75 2.75-2.74-1.23-2.74-2.75z"/><path id="W" d="M13.77 22.72c-.22-.6.32-1.33 1.19-1.64s1.75-.08 1.96.52-.32 1.33-1.19 1.64c-.88.31-1.75.08-1.96-.52z"/><path id="X" d="M10.3 20.25a.6.6 0 0 1-.38.77c-.32.12-.68-.04-.79-.36-.11-.31.07-.66.39-.77.32-.12.67.04.78.36z"/><path id="Y" d="M17.68 17.63c.11.3.45.45.76.35.31-.12.47-.45.37-.74-.11-.3-.45-.45-.76-.35a.59.59 0 0 0-.37.74z"/><path id="Z" d="M38.3 21.87l-9.49.15m9.63 4.57l-9.42.14m10.07-2.48l-10.81.16"/></defs><g class="e g"><path d="M7.91 53.5A45.5 45.5 0 0 1 53.5 7.91 45.5 45.5 0 0 1 99.09 53.5 45.5 45.5 0 0 1 53.5 99.09 45.5 45.5 0 0 1 7.91 53.5z" class="j p q"/><path d="M1 53.5A52.4 52.4 0 0 1 53.5 1 52.4 52.4 0 0 1 106 53.5 52.4 52.4 0 0 1 53.5 106 52.4 52.4 0 0 1 1 53.5z" class="f"/></g><g transform="translate(18.89 21.14)" clip-path="url(#A)"><path d="M51.1 27.01c-11.59 5.79-22.45 3.02-29.28-2.78" class="h l m"/><g class="f g"><g class="r"><use xlink:href="#B"/><path d="M23.97 14.51a1.77 1.77 0 0 1-.42-.29s-3.86-1.7-1.11-4.79c.72-.8 2.26-2.13 4.17 1.14-.56.09-1.13.34-1.61.76-.99.86-1.36 2.13-1.03 3.18z"/></g><g class="i"><path d="M19.61 48.27l-.36-1.48c-.05-.18-.34-1.55-.44-1.6-.01.04-.02.06-.03.09L12.1 40.8c.33.34.17 1.3.33 1.78.24.75.37 1.49.58 2.25.66 2.51 1.93 5.44 1.41 8.1-.08.37-.36.96-.23 1.38.16.48.76.66 1.23.79.8.22 2.76.36 3.51-.08 1.75-1.03 1.04-5.16.68-6.75zm5.41-.08l.31-1.49c.04-.19.29-1.57.39-1.61.01.03.02.06.04.09l6.54-4.69c-.32.35-.13 1.31-.28 1.78-.22.76-.33 1.51-.5 2.28-.59 2.52-1.76 5.49-1.16 8.13.08.37.39.95.26 1.38-.14.48-.73.68-1.2.82-.8.24-2.75.45-3.52.03-1.78-.98-1.2-5.13-.88-6.72z"/><path d="M10.71 29.41c.1.35-.04.72-.09 1.07-.64 4.51-.15 9.66 2.65 13.4 3.49 4.66 10.28 5.28 15.04 1.82 7.88-5.75 1.45-15.95-3.89-20.55-.1-.08-.19-.18-.28-.27-.24.05-.2.18-.21.4l-13.22 4.13z"/></g><path d="M18.75 32.42c-1.44.7-2.58 2.41-2.94 5.56-.34 2.91 2.4 7.26 6.89 6.36 11.7-2.37 1.6-14.62-3.95-11.92z"/><use xlink:href="#C" class="i"/><use xlink:href="#D"/><use xlink:href="#W" class="e"/><use xlink:href="#E"/><path d="M20.85 17.14c.38 1.07-.21 2.25-1.32 2.64s-2.31-.15-2.68-1.22c-.38-1.06.21-2.24 1.31-2.63 1.11-.39 2.31.15 2.69 1.21z"/><use xlink:href="#X" class="e"/><use xlink:href="#Y" class="n"/><g fill="#d6d6d6"><path d="M14.75 54.87s-.07-.62.57-.83l.04.14c-.51.17-.49.73-.48.75l-.13-.06zm1.01.3c0-.01-.05-.65.58-.86l.04.14c-.51.17-.49.73-.48.75l-.14-.03zm14.35-.55c0-.01.05-.63-.59-.82l-.04.14c.52.16.51.71.51.74l.12-.06zm-.96.33s.04-.65-.6-.84l-.04.14c.52.15.51.71.51.73l.13-.03z"/></g></g><path d="M66.33 13.15c.18 11.82-4.51 28.27-22.53 22.34" stroke="#6ec9f2" class="h j o s"/><g class="f g"><g class="k"><path d="M12.7 54.32c-.2-13.18 9.14-23.94 20.94-24.12 11.79-.18 21.45 10.29 21.66 23.47.2 13.18-9.14 23.93-20.94 24.11-11.79.19-21.46-10.28-21.66-23.46z"/><use xlink:href="#F"/><use xlink:href="#G"/><path d="M23.17 6.03c.04 2.47-1.97 4.5-4.49 4.55-2.52.03-4.59-1.93-4.63-4.4a4.5 4.5 0 0 1 4.49-4.54c2.52-.04 4.59 1.93 4.63 4.39z"/></g><g class="e"><use xlink:href="#H"/><use xlink:href="#I"/></g><use xlink:href="#J"/><use xlink:href="#K"/><use xlink:href="#L"/><path d="M26.92 14.99a.96.96 0 1 1 1.92-.04.96.96 0 1 1-1.92.04z" class="e"/><path d="M37.44 14.82c-.02-1.12.88-2.04 2-2.06s2.04.88 2.06 2-.87 2.04-2 2.06c-1.12.02-2.04-.88-2.06-2z"/><path d="M38.18 14.82a.96.96 0 0 1 1.92-.04.96.96 0 0 1-.94.98.97.97 0 0 1-.98-.94z" class="e"/><g class="n"><use xlink:href="#M"/><use xlink:href="#N"/></g><use xlink:href="#O" class="e"/><use xlink:href="#P" fill="#1d70b7"/></g><g stroke="#1d70b7" class="h"><path d="M26.43 21.57l-10.12-7.98m9.93 13.91l-7.28 1.13m21.55-7.28l9.76-8.19m-8.9 14.1l7.22.91" stroke-width="1.2"/></g><g class="f g k"><path d="M34.76 67.62l10.91-.17.46 30.33-10.91.17zm-12.68.19l10.91-.17.46 30.33-10.91.17z"/></g><g class="h"><path d="M27.98 33.74C17.89 38.75 8.8 36.52 14.24 29.4" class="l m"/><g stroke="#fff"><use xlink:href="#Z" stroke-width=".57"/></g></g><g class="f g k"><use xlink:href="#Q"/><use xlink:href="#R"/><use xlink:href="#S"/><use xlink:href="#T"/></g></g><g class="f g"><use xlink:href="#U" class="i"/><use xlink:href="#V"/><use xlink:href="#U" x="21.44" y="-7.61" class="i"/><use xlink:href="#V" x="21.44" y="-7.61"/></g><g class="h j"><path d="M13.75 53.25c0-22.36 18-40.36 40.36-40.36 22.35 0 40.35 18 40.35 40.36 0 22.35-18 40.35-40.35 40.35-22.36 0-40.36-18-40.36-40.35z" stroke-width="17.46" class="q"/><path d="M51.85 98.33C27.02 97.42 7.76 76.69 8.67 51.86S30.31 7.77 55.14 8.68s44.09 21.64 43.18 46.47-21.64 44.09-46.47 43.18z" stroke="#fff" stroke-width="3.17"/></g><path d="M55.43 1.04A52.5 52.5 0 0 0 1.04 51.57a52.5 52.5 0 0 0 50.53 54.39 52.5 52.5 0 0 0 54.39-50.53A52.5 52.5 0 0 0 55.43 1.04zm-3.53 99.28A46.9 46.9 0 0 1 6.81 51.78 46.9 46.9 0 0 1 55.34 6.69a46.9 46.9 0 0 1 45.1 48.53 46.9 46.9 0 0 1-48.54 45.1z" class="e g j p q"/><g class="f g"><path d="M32.31 22.73l.98-.69c.13-.09.27-.13.41-.12.13.01.25.08.34.21s.12.26.08.4c-.03.14-.12.25-.25.35l-1.32.93c-.19.13-.37.18-.55.15-.17-.02-.32-.13-.46-.31l-2.11-3c-.1-.14-.14-.29-.13-.45.02-.16.1-.29.25-.4.14-.1.29-.13.44-.09.16.04.28.13.38.27l1.94 2.75zM36.94 20l-1.69.92.1.43c.09.4.03.65-.18.76-.14.08-.28.12-.43.11s-.26-.07-.35-.19c-.08-.14-.12-.25-.13-.33l-.55-3.86c-.03-.2 0-.39.07-.56a.8.8 0 0 1 .37-.4c.18-.1.36-.13.55-.1s.36.11.51.25l2.93 2.57c.07.06.14.16.21.29.06.14.04.27-.03.39-.07.13-.18.24-.33.32-.1.05-.21.05-.32.01-.12-.04-.23-.1-.32-.2l-.41-.41zm-.78-.72l-1.43-1.36.35 1.94 1.08-.58zm4.32-2.74c.28-.02.51 0 .7.06.34.12.57.36.7.69.1.27.14.53.09.79-.04.27-.14.51-.31.71-.18.21-.39.37-.66.47l-1.42.54c-.2.08-.39.09-.54.03-.16-.07-.28-.21-.36-.41l-1.29-3.31c-.08-.2-.08-.38-.01-.54.07-.15.21-.28.42-.35l1.06-.42a1.6 1.6 0 0 1 1.08-.09c.16.05.3.14.43.25.13.12.22.25.28.4.09.24.12.44.1.62-.03.18-.12.37-.27.56zm-1.58.26l.54-.21c.13-.05.22-.13.28-.25.05-.12.06-.24.01-.37-.05-.12-.14-.2-.27-.22-.12-.03-.25-.02-.39.03l-.49.19.32.83zm.75 1.93l.75-.29c.2-.08.33-.19.38-.33.04-.11.03-.25-.03-.41-.14-.31-.39-.39-.77-.24l-.72.28.39.99zm5.96-1.83l-1.87.47-.01.44c-.01.41-.13.64-.36.7-.15.04-.3.03-.44-.01-.15-.04-.25-.13-.3-.27-.04-.15-.06-.27-.05-.35L43 14c.02-.2.09-.37.21-.53.11-.14.26-.24.46-.29a.8.8 0 0 1 .55.04c.17.07.31.2.43.36l2.21 3.22c.05.07.1.19.13.33.02.14-.02.27-.12.37-.11.11-.24.18-.4.23-.1.02-.21 0-.32-.07-.1-.07-.19-.16-.25-.27l-.29-.49zm-.58-.9l-1.05-1.67-.14 1.97 1.19-.3zm3.29-1.68l.27 2.41c.02.18-.01.33-.1.46-.09.14-.22.21-.4.23-.17.02-.32-.02-.44-.13s-.19-.25-.21-.43l-.43-3.83a.5.5 0 0 1 .11-.43c.09-.13.22-.2.38-.22.19-.02.36.05.51.2l2.52 2.47-.27-2.35c-.02-.17.02-.33.11-.46s.22-.2.4-.22c.17-.03.32.02.43.13.12.11.19.25.21.42l.43 3.78c.03.21 0 .37-.09.49-.1.13-.22.2-.37.21-.2.02-.35-.03-.48-.16l-2.58-2.57zm7.85 2.5a2.8 2.8 0 0 1-1.23.25c-.31-.02-.62-.08-.91-.19-.3-.12-.56-.28-.77-.49-.53-.5-.78-1.2-.75-2.1a2.4 2.4 0 0 1 .11-.65c.07-.22.16-.43.28-.62.11-.18.26-.36.42-.51a2.3 2.3 0 0 1 .82-.47c.3-.1.62-.15.96-.14.32.01.64.08.93.21a2.2 2.2 0 0 1 .78.53c.22.24.39.52.51.84a2.6 2.6 0 0 1 .17.98c-.01.23-.03.44-.07.62a2.4 2.4 0 0 1-.15.54 3.2 3.2 0 0 1-.3.53l.38.34c.15.13.22.31.21.53-.03.12-.09.22-.2.3-.11.09-.22.13-.34.12-.02 0-.05-.01-.1-.02-.09-.02-.18-.08-.28-.16l-.47-.44zm-.86-.82l-.19-.18c-.1-.1-.14-.23-.14-.38.02-.13.08-.24.18-.33s.21-.13.33-.13c.13.01.27.07.41.2l.16.16c.12-.26.19-.56.2-.93.01-.25-.03-.49-.13-.72-.09-.22-.23-.41-.42-.55-.18-.15-.4-.23-.65-.23-.27-.01-.5.05-.7.18-.2.14-.34.31-.45.53a1.9 1.9 0 0 0-.17.72c-.02.48.06.87.24 1.16.22.36.55.55.99.56.12 0 .23-.02.34-.06zm7.9-2.42l-.39 2.18a4 4 0 0 1-.22.79c-.09.21-.24.4-.43.57-.26.22-.55.38-.88.46a2.3 2.3 0 0 1-1.01.04 2.4 2.4 0 0 1-.8-.29c-.24-.14-.45-.32-.62-.53s-.29-.45-.36-.71-.08-.54-.03-.82l.44-2.46c.03-.18.11-.31.23-.41s.27-.14.45-.11.3.12.38.25c.08.14.1.29.08.47l-.42 2.3c-.05.31-.02.57.11.79.07.12.17.23.31.31.13.08.27.14.41.16a.9.9 0 0 0 .46-.02c.16-.04.29-.11.4-.21.18-.16.3-.43.37-.79l.38-2.18c.03-.17.11-.31.23-.41.13-.1.27-.14.45-.1.17.03.3.11.38.25.09.15.11.3.08.47zm.1 4.01l1.02-3.67c.05-.17.14-.3.27-.39s.29-.11.46-.06.29.14.36.28c.06.15.07.3.03.47l-1.03 3.68c-.05.17-.14.3-.26.39-.13.09-.28.11-.46.06-.16-.04-.29-.14-.35-.29-.08-.14-.09-.3-.04-.47zm1.98.65c.05-.15.15-.27.31-.34s.31-.08.47-.02c.1.03.19.09.26.17s.12.17.15.28c.02.1.01.2-.02.31-.05.15-.15.26-.3.34-.16.08-.31.09-.47.03-.16-.05-.28-.15-.35-.31-.08-.15-.11-.3-.05-.46zm3.1-2.11c.13-.29.32-.51.57-.66.25-.16.53-.23.84-.24.3 0 .6.06.89.18a3 3 0 0 1 .54.31 1.4 1.4 0 0 1 .42.42c.11.16.12.31.06.48-.07.14-.16.24-.3.3-.13.06-.27.06-.41 0-.06-.03-.11-.06-.15-.09l-.16-.15c-.14-.14-.29-.24-.44-.3-.13-.06-.26-.08-.4-.06s-.23.09-.29.21c-.07.18.01.37.26.57l.26.2c.39.31.67.63.85.94.17.31.17.66.01 1.04-.2.47-.5.78-.88.93-.23.11-.48.14-.75.12a2.8 2.8 0 0 1-.79-.21c-.47-.21-.84-.46-1.11-.76-.09-.11-.16-.23-.18-.35-.03-.13-.02-.25.03-.37s.14-.21.28-.27a.5.5 0 0 1 .38 0 1.2 1.2 0 0 1 .25.16l.3.3c.15.15.31.25.48.32.15.07.3.09.46.06.15-.03.26-.12.32-.27.07-.14.06-.28-.02-.4a2 2 0 0 0-.22-.26l-.41-.34c-.24-.2-.43-.38-.57-.55-.13-.16-.21-.35-.24-.55-.03-.21.01-.44.12-.71zm5.42 2.09l-.46.82.94.52c.14.08.24.19.29.32s.04.27-.04.41c-.07.13-.19.21-.33.23-.14.03-.28 0-.42-.08l-.94-.53-.47.84 1.04.58c.14.09.24.19.29.32s.04.26-.04.4-.19.21-.32.24c-.14.03-.28 0-.43-.08l-1.42-.81c-.2-.11-.32-.25-.37-.41-.05-.17-.01-.34.09-.53l1.75-3.1c.1-.19.24-.3.41-.35s.35-.01.54.1l1.43.8c.14.09.24.19.29.33.04.13.03.26-.05.4-.07.13-.18.21-.32.24-.14.02-.28 0-.42-.09l-1.04-.57z"/><g class="k"><use xlink:href="#Q" x="18.79" y="20.71"/><use xlink:href="#R" x="18.78" y="20.72"/><use xlink:href="#S" x="18.79" y="20.71"/><use xlink:href="#T" x="18.78" y="20.72"/></g></g><path d="M69.99 48.15c-11.59 5.78-22.45 3.01-29.28-2.79" class="h l m"/><g class="f g"><use xlink:href="#B" x="18.89" y="21.14" class="r"/><use xlink:href="#U" class="i"/><use xlink:href="#V"/><use xlink:href="#B" x="40.33" y="13.53" class="r"/><use xlink:href="#U" x="21.44" y="-7.61" class="i"/><use xlink:href="#V" x="21.44" y="-7.61"/><use xlink:href="#C" x="18.88" y="21.14" class="i"/><use xlink:href="#D" x="18.89" y="21.14"/><use xlink:href="#W" x="18.89" y="21.14" class="e"/><use xlink:href="#E" x="18.88" y="21.14"/><use xlink:href="#E" x="27.88" y="17.95"/><use xlink:href="#X" x="18.89" y="21.14" class="e"/><use xlink:href="#Y" x="18.88" y="21.14" class="n"/></g><path d="M85.22 34.29c.18 11.82-4.51 28.27-22.53 22.34" stroke="#6ec9f2" class="h j o s"/><g class="f g"><g class="k"><use xlink:href="#F" x="18.89" y="21.14"/><use xlink:href="#G" x="18.89" y="21.13"/><use xlink:href="#G" x="-10.12" y="21.58"/></g><g class="e"><use xlink:href="#H" x="18.89" y="21.14"/><use xlink:href="#I" x="18.89" y="21.14"/></g><use xlink:href="#J" x="18.88" y="21.14"/><use xlink:href="#K" x="18.89" y="21.14"/><use xlink:href="#L" x="18.89" y="21.14"/><path d="M45.81 36.13a.96.96 0 1 1 1.92-.04.96.96 0 1 1-1.92.04z" class="e"/><use xlink:href="#L" x="30.82" y="20.96"/><path d="M57.07 35.95a.96.96 0 1 1 1.92-.04.96.96 0 0 1-.94.98.97.97 0 0 1-.98-.94z" class="e"/><g class="n"><use xlink:href="#M" x="18.89" y="21.14"/><use xlink:href="#N" x="18.88" y="21.14"/></g><use xlink:href="#O" x="18.89" y="21.14" class="e"/><use xlink:href="#P" x="18.89" y="21.14" fill="#1d70b7"/></g><g class="h"><path d="M45.32 42.71L35.2 34.73m9.93 13.9l-7.28 1.13m21.55-7.27l9.76-8.19m-8.91 14.1l7.22.91" stroke="#1d70b7" stroke-width="1.2"/><path d="M46.87 54.88c-10.09 5.01-19.18 2.78-13.74-4.34" class="l m"/><use xlink:href="#Z" x="18.89" y="21.14" stroke="#fff" stroke-width=".57"/></g><g class="f g"><g class="k"><use xlink:href="#Q" x="18.89" y="21.14"/><use xlink:href="#R" x="18.89" y="21.14"/><path d="M80.62 27.76a1.92 1.92 0 0 1 1.78-2.03h0a1.91 1.91 0 0 1 2.02 1.78l.38 5.71a1.9 1.9 0 0 1-1.78 2.02h0A1.9 1.9 0 0 1 81 33.47l-.38-5.71z"/><use xlink:href="#T" x="18.89" y="21.14"/></g><path d="M17.13 45.68c.46.08.87.24 1.25.46a3.2 3.2 0 0 1 .92.87c.24.35.41.75.5 1.18.09.44.09.9 0 1.38-.04.27-.12.54-.24.85-.13.3-.28.54-.47.74-.2.2-.42.28-.66.24-.2-.04-.36-.11-.48-.24-.11-.13-.16-.29-.12-.49.02-.12.1-.3.24-.54.17-.27.27-.52.31-.76a1.6 1.6 0 0 0-.1-1.01c-.13-.29-.34-.52-.62-.7s-.62-.3-1-.37c-.75-.13-1.33-.03-1.75.29-.33.25-.53.6-.61 1.06-.05.26-.05.46-.01.63l.12.49c.03.13.03.23.02.32-.04.2-.14.36-.3.45s-.33.12-.52.09c-.29-.05-.5-.25-.62-.6-.18-.47-.21-1.04-.09-1.71.07-.42.21-.81.43-1.18.22-.36.49-.68.81-.92.76-.57 1.75-.75 2.99-.53zm-1.78 10.96l-.05-2.9-1.98.04c-.25 0-.45-.06-.62-.2-.16-.13-.25-.32-.25-.57 0-.24.07-.43.24-.58.16-.15.36-.22.6-.22l5.18-.1c.24 0 .44.06.61.2s.25.33.26.57c0 .24-.07.43-.24.58-.16.14-.36.21-.6.22l-1.82.03.05 2.9 1.82-.03c.24 0 .45.07.61.2.17.14.26.33.26.56.01.25-.07.44-.23.58-.16.15-.36.22-.6.22l-5.18.1c-.24.01-.45-.06-.61-.2-.17-.13-.25-.32-.25-.57-.01-.24.07-.43.23-.58.17-.14.37-.21.6-.22l1.97-.03zm-.33 7.32l-.56-2.56-.6-.03c-.55-.03-.85-.2-.92-.51-.05-.22-.04-.42.03-.61.06-.19.19-.32.38-.39.2-.04.36-.06.48-.04l5.24.73c.27.04.5.14.71.31.2.16.32.38.38.64s.03.5-.08.74c-.11.23-.28.42-.52.57l-4.45 2.86c-.1.06-.26.12-.46.16-.19.03-.36-.04-.5-.19-.14-.14-.24-.32-.29-.54-.03-.15 0-.29.1-.43s.23-.25.38-.34l.68-.37zm1.24-.75l2.31-1.36-2.66-.26.35 1.62zm2.76 4.14l-3.03 1.31c-.22.09-.43.12-.63.05-.21-.06-.36-.2-.46-.42-.09-.23-.09-.43 0-.63.09-.19.25-.34.47-.44l4.8-2.08c.21-.09.41-.1.61-.04.19.07.34.22.43.42.1.24.08.48-.06.74l-2.2 4.25 2.94-1.28c.22-.1.43-.11.64-.05.2.07.36.21.45.43.1.23.1.43 0 .62-.09.2-.25.34-.47.43l-4.73 2.06c-.26.12-.48.14-.68.07-.2-.08-.34-.21-.42-.39-.1-.24-.1-.47.03-.68l2.31-4.37zm3.88 9.81l-.53-.75c-.13-.18-.19-.36-.18-.56.02-.19.11-.35.28-.47s.35-.16.54-.11c.18.06.34.17.47.35l.97 1.37c.18.24.23.47.17.67-.06.19-.22.39-.48.57-.73.51-1.51.7-2.35.58a3 3 0 0 1-2.03-1.31 3.6 3.6 0 0 1-.59-1.29c-.1-.47-.11-.93-.01-1.39a3.7 3.7 0 0 1 1.55-2.15 3.4 3.4 0 0 1 1.67-.63c.61-.06 1.19.03 1.74.28.55.26 1.02.64 1.39 1.16.42.6.66 1.22.71 1.85.04.5-.05.85-.29 1.05-.16.12-.34.16-.54.14-.19-.03-.35-.12-.46-.27-.09-.13-.15-.32-.16-.56l-.03-.47c-.01-.31-.13-.62-.35-.93s-.49-.52-.81-.62-.66-.11-1-.03-.66.23-.97.45c-.31.21-.55.47-.74.76s-.29.6-.29.93c-.01.34.09.66.31.97.3.42.66.63 1.08.64.27 0 .57-.07.93-.23zm5.08 1.58l-.89.91 1.05 1.02c.15.15.24.33.27.52.02.19-.05.36-.2.52-.14.15-.32.22-.51.19a.8.8 0 0 1-.52-.25l-1.04-1.02-.9.93 1.15 1.13c.16.16.25.33.27.52.03.19-.04.36-.2.51-.14.15-.31.22-.5.2-.19-.01-.37-.1-.53-.25l-1.6-1.55c-.21-.22-.32-.44-.33-.67s.1-.45.3-.66l3.37-3.45c.2-.21.42-.31.66-.32.23-.01.45.1.67.31l1.59 1.56c.17.16.26.33.27.52.02.19-.05.36-.2.52-.14.14-.31.21-.5.2-.19-.02-.37-.1-.53-.26l-1.15-1.13zm7.04 5.41l-2.39 3.89c-.13.2-.29.34-.5.4-.2.07-.41.03-.61-.09-.21-.13-.33-.3-.37-.51-.03-.22.01-.43.14-.63l2.39-3.89-.79-.48c-.19-.12-.31-.27-.38-.45-.06-.19-.04-.37.07-.55s.27-.28.46-.31.38.01.56.13l2.91 1.78c.19.12.31.27.37.45s.04.36-.08.55c-.11.18-.26.28-.45.31-.19.02-.38-.02-.56-.14l-.77-.46zm5.15 5.25l-2.69-1.08-.74 1.85c-.09.22-.23.39-.42.49s-.39.1-.62.01c-.22-.09-.37-.24-.44-.44-.07-.21-.06-.42.03-.64l1.92-4.82c.08-.22.22-.38.42-.48.19-.1.4-.11.62-.02.23.09.38.24.44.44.07.2.06.42-.03.64l-.67 1.69 2.69 1.08.68-1.69c.09-.23.22-.39.41-.49s.4-.11.62-.02a.7.7 0 0 1 .44.45c.08.2.07.41-.02.64l-1.92 4.81c-.09.23-.24.39-.42.49s-.4.1-.63.01c-.22-.09-.37-.24-.44-.44-.06-.21-.05-.42.04-.64l.73-1.84zm5.02-1.25l-.27 1.24 1.43.31c.22.05.39.15.51.29.11.15.15.34.11.55-.05.2-.16.35-.33.44-.18.08-.37.11-.58.06l-1.43-.31-.28 1.27 1.58.34c.22.05.39.15.51.3.11.14.15.33.1.54-.04.21-.15.35-.32.44s-.36.11-.58.06l-2.18-.47c-.29-.06-.5-.19-.63-.38-.13-.2-.16-.44-.1-.73l1.02-4.71c.06-.28.19-.49.39-.61.2-.13.44-.16.74-.1l2.18.47c.22.05.39.15.5.3.12.15.15.33.11.54-.04.2-.16.35-.32.44-.17.09-.37.11-.58.06l-1.58-.34zm10.56 3.39l-2.9.09.07 1.99c0 .24-.06.44-.19.61s-.32.25-.56.26c-.25.01-.44-.07-.58-.23-.15-.15-.23-.35-.24-.59l-.16-5.18c0-.24.06-.44.19-.61s.32-.26.57-.27a.7.7 0 0 1 .58.23c.14.16.22.36.23.6l.05 1.82 2.91-.09-.06-1.82c-.01-.24.05-.45.19-.62.13-.16.32-.25.56-.26.24 0 .43.07.58.23.14.16.22.36.23.6l.16 5.18c.01.24-.06.45-.19.61-.13.17-.32.25-.57.26-.24.01-.43-.06-.58-.22-.14-.16-.21-.36-.22-.6l-.07-1.99zm4.11-3.16l.25 1.25 1.43-.28c.21-.04.41-.02.58.07s.28.24.32.45 0 .38-.13.53c-.12.16-.29.25-.5.29l-1.44.29.26 1.27 1.58-.32c.22-.04.42-.02.58.07a.6.6 0 0 1 .31.46c.05.21 0 .38-.12.53s-.29.25-.5.29l-2.19.43c-.3.06-.54.03-.73-.1-.2-.13-.33-.34-.38-.63l-.94-4.72c-.06-.29-.02-.53.11-.73.13-.19.34-.32.64-.38l2.18-.43c.23-.04.42-.02.59.07s.27.25.31.46 0 .38-.12.53-.29.25-.51.29l-1.58.31zm5.98 2.52l1.54-.52c.21-.07.41-.07.58 0 .18.07.3.21.37.42.07.2.05.38-.05.54s-.26.28-.47.35l-2.09.7c-.29.09-.54.09-.76-.01-.22-.11-.38-.3-.47-.59l-1.58-4.72c-.07-.22-.07-.44.01-.64s.24-.33.47-.41c.24-.08.44-.06.62.05s.31.28.39.51l1.44 4.32zm4.55-1.83l1.46-.69c.21-.09.4-.12.58-.07.19.04.32.17.42.36.09.19.09.37.01.54-.08.18-.22.31-.42.41l-1.99.94c-.28.14-.53.16-.76.08s-.41-.25-.54-.52l-2.13-4.5a.9.9 0 0 1-.07-.64c.06-.2.2-.36.42-.47.22-.1.42-.11.62-.02.19.09.34.25.45.46l1.95 4.12zm1.36-2.78c-.29-.43-.49-.89-.59-1.37-.11-.49-.09-.97.04-1.45.2-.8.67-1.44 1.4-1.94.42-.28.85-.47 1.29-.56.45-.09.88-.08 1.3.01.42.1.82.27 1.19.54a4.1 4.1 0 0 1 .96.99 4.2 4.2 0 0 1 .62 1.43 3 3 0 0 1-.02 1.49 3.1 3.1 0 0 1-.51 1.07c-.24.32-.54.6-.9.84-.39.26-.8.44-1.25.54a3.1 3.1 0 0 1-1.32.01c-.88-.17-1.62-.71-2.21-1.6zm1.38-.93a3 3 0 0 0 .74.77c.28.21.59.32.92.36a1.5 1.5 0 0 0 .97-.28c.32-.21.53-.48.63-.79.09-.32.1-.64.01-.98s-.24-.67-.46-.98c-.2-.3-.44-.56-.72-.75-.28-.2-.59-.31-.91-.32-.32-.02-.64.08-.96.29-.19.12-.33.29-.45.48-.12.2-.2.4-.23.62-.06.51.09 1.03.46 1.58zm9.4-9.01l1.81 2.67c.17.27.27.52.27.76a1.1 1.1 0 0 1-.27.72c-.14.16-.31.27-.52.33s-.41.05-.6-.04l-4.88-2.23c-.1-.05-.18-.09-.23-.13l-.15-.16c-.08-.1-.12-.24-.13-.4-.01-.17.03-.3.1-.39.21-.26.41-.39.6-.4.14 0 .34.05.61.17l3.27 1.56-2.11-3.18c-.27-.41-.27-.77-.02-1.09.26-.32.61-.39 1.06-.22l3.58 1.35-2.23-2.82c-.17-.23-.28-.41-.31-.56-.04-.19.05-.43.25-.68.08-.1.2-.16.37-.19.16-.04.31-.02.43.04.07.03.14.07.18.1.05.04.11.11.18.2l3.17 4.1a1.1 1.1 0 0 1 .25.66c.01.24-.07.47-.23.67-.33.41-.78.51-1.33.31l-3.12-1.15zm3.43-3.79c-.46-.23-.87-.52-1.2-.89a3 3 0 0 1-.69-1.26c-.23-.8-.15-1.59.23-2.39.22-.45.49-.83.83-1.13s.71-.52 1.13-.65a3.1 3.1 0 0 1 1.29-.13c.45.04.89.16 1.33.37a4.3 4.3 0 0 1 1.26.91 3.2 3.2 0 0 1 .73 1.29c.11.39.14.78.1 1.19a3.8 3.8 0 0 1-.34 1.18c-.2.42-.47.79-.81 1.1a2.9 2.9 0 0 1-1.14.68c-.84.28-1.75.19-2.72-.27zm.73-1.5a3.1 3.1 0 0 0 1.03.29 1.9 1.9 0 0 0 .98-.16c.3-.14.53-.39.7-.73.17-.35.22-.68.14-1.01-.07-.31-.24-.6-.48-.84-.25-.25-.55-.46-.89-.62-.33-.16-.66-.25-1.01-.28-.34-.03-.66.03-.94.18a1.5 1.5 0 0 0-.68.74c-.1.2-.14.41-.15.64 0 .23.04.44.12.65.19.47.58.85 1.18 1.14zm3.55-7.03l1.89.5c.24.06.42.18.54.35.12.18.15.38.09.62-.07.23-.19.4-.39.49-.19.1-.4.11-.64.05l-4.83-1.28c-.28-.07-.48-.21-.59-.41-.11-.21-.13-.45-.06-.74l.4-1.53c.18-.67.49-1.17.94-1.49.24-.17.49-.28.78-.34.28-.05.56-.04.84.03.58.16.99.45 1.23.88.15.28.21.67.2 1.17l1.72-.92c.26-.14.47-.21.61-.21.09.01.14.02.17.03.18.05.32.15.43.31.12.16.15.33.1.5-.08.34-.26.57-.52.67l-2.91 1.32zm-1.04-.27l.25-.94c.06-.24.05-.45-.05-.64a.7.7 0 0 0-.47-.38c-.21-.05-.42-.02-.61.11-.19.14-.32.32-.37.54l-.25.91 1.5.4zm3.61-5.82l.17-1.6c.03-.23.11-.4.24-.54.14-.13.31-.19.53-.17.21.03.36.12.47.28.1.16.15.35.12.57l-.24 2.19c-.03.3-.14.53-.32.69-.19.15-.44.21-.74.18l-4.94-.53c-.24-.03-.43-.12-.58-.27-.15-.16-.21-.36-.18-.61.02-.24.12-.42.3-.54s.39-.17.62-.14l4.55.49zm.73-3.47l-4.79.26c-.29.02-.52-.05-.7-.21-.17-.16-.27-.38-.28-.68l-.08-1.47a3.6 3.6 0 0 1 .49-2.21c.27-.43.65-.76 1.13-1a3.7 3.7 0 0 1 1.53-.4c.64-.04 1.21.06 1.73.29.52.22.94.57 1.25 1.04a3.3 3.3 0 0 1 .52 1.69l.08 1.71c.01.29-.05.53-.21.7s-.38.26-.67.28zm-.46-1.55l-.04-.77c-.04-.58-.21-1.01-.53-1.28-.39-.34-.91-.49-1.58-.46-.7.04-1.22.28-1.55.72-.26.32-.37.8-.34 1.41l.04.61 4-.23z"/></g></svg>