<svg width="41" height="40" viewBox="0 0 41 40" fill="none" xmlns="http://www.w3.org/2000/svg">
<path d="M34.7498 34.0833H28.8232V24.8C28.8232 22.5866 28.7832 19.7366 25.7398 19.7366C22.6532 19.7366 22.1798 22.15 22.1798 24.6366V34.0833H16.2532V14.9933H21.9432V17.6033H22.0232C23.1832 15.6233 25.3432 14.4367 27.6365 14.52C33.6432 14.52 34.7532 18.47 34.7532 23.6133L34.7498 34.0799V34.0833ZM9.5665 12.3833C8.65608 12.379 7.78415 12.0156 7.14007 11.3721C6.49598 10.7287 6.13176 9.8571 6.1265 8.94668C6.1265 7.06002 7.67984 5.5067 9.5665 5.5067C11.4532 5.5067 13.0032 7.06002 13.0065 8.94668C13.0065 10.8333 11.4532 12.3833 9.5665 12.3833ZM12.5298 34.0833H6.5965V14.9933H12.5298V34.0833ZM37.6998 4.95439e-05H3.6165C2.84367 -0.0044392 2.1003 0.296247 1.54791 0.836767C0.995534 1.37729 0.678786 2.11396 0.666504 2.88671V37.1132C0.678786 37.886 0.995534 38.6227 1.54791 39.1632C2.1003 39.7037 2.84367 40.0044 3.6165 39.9999H37.7032C38.4778 40.0062 39.2236 39.7065 39.7785 39.166C40.3333 38.6254 40.6525 37.8878 40.6665 37.1132V2.88337C40.6525 2.10947 40.3331 1.37247 39.778 0.833009C39.223 0.293544 38.4772 -0.00466083 37.7032 0.00338262L37.6998 4.95439e-05Z" fill="white"/>
</svg>
