<svg width="41" height="40" viewBox="0 0 41 40" fill="none" xmlns="http://www.w3.org/2000/svg">
<path d="M34.903 5.77281C31.8769 2.75605 28.6553 4.71136 26.6348 6.72253L7.56595 25.7914C5.54546 27.8119 3.43187 30.8845 6.61622 34.0596C9.79127 37.2346 12.8546 35.121 14.8751 33.1006L33.944 14.0317C35.9645 12.0205 37.9198 8.78957 34.903 5.77281ZM16.6814 4.99069L20.7224 9.03166L24.8285 4.9162C25.1078 4.63687 25.3872 4.37616 25.6758 4.13408C25.2475 1.96462 24.0091 0 20.7131 0C17.417 0 16.1786 1.97393 15.7596 4.14339C16.0669 4.41341 16.3741 4.68343 16.6814 4.99069ZM24.8285 34.9814L20.7224 30.8752L16.6814 34.9069C16.3741 35.2142 16.0762 35.5028 15.7689 35.7635C16.2345 37.9795 17.538 40 20.7131 40C23.8974 40 25.2103 37.9609 25.6665 35.7449C25.3872 35.5028 25.1078 35.2607 24.8285 34.9814ZM14.9682 14.7765H7.1842C4.32572 14.7765 0.666504 15.6797 0.666504 19.9441C0.666504 23.1378 2.70561 24.4413 4.93094 24.8976C5.19164 24.5996 14.9682 14.7765 14.9682 14.7765ZM36.5231 14.9907C36.281 15.27 26.4766 25.121 26.4766 25.121H34.1488C37.0073 25.121 40.6665 24.4413 40.6665 19.9441C40.6665 16.6574 38.7019 15.419 36.5231 14.9907ZM17.5194 12.2253L18.9067 10.838L14.8751 6.79702C12.8546 4.77654 9.79127 2.66294 6.60691 5.8473C4.27917 8.17505 4.80058 10.4469 6.02963 12.2812C6.41138 12.2533 17.5194 12.2253 17.5194 12.2253ZM23.916 27.6723L22.5194 29.0689L26.6348 33.175C28.6553 35.1955 31.8769 37.1508 34.8937 34.1341C37.1469 31.8808 36.6348 29.5065 35.3872 27.6164C34.9868 27.6443 23.916 27.6723 23.916 27.6723Z" fill="white"/>
</svg>
