<svg width="380" height="819" viewBox="0 0 380 819" fill="none" xmlns="http://www.w3.org/2000/svg">
<rect x="380" width="819" height="380" rx="173" transform="rotate(90 380 0)" fill="white"/>
<path d="M235.19 193.288C230.374 190.708 227.106 186.408 227.106 179.786C227.106 170.842 234.072 162.93 248.864 162.93C263.656 162.93 270.536 170.842 270.536 179.786C270.536 186.236 267.182 190.794 262.452 193.288C268.558 196.212 272.084 201.458 272.084 208.596C272.084 221.152 261.678 228.204 248.864 228.204C236.05 228.204 225.644 221.152 225.644 208.596C225.644 201.458 229.17 196.126 235.19 193.288ZM248.864 189.332C253.078 189.332 256.26 186.58 256.26 182.022C256.26 177.292 253.25 174.626 248.864 174.626C244.478 174.626 241.468 177.292 241.468 182.108C241.468 186.666 244.65 189.332 248.864 189.332ZM248.864 199.652C243.618 199.652 239.834 202.576 239.834 207.908C239.834 212.638 243.188 216.164 248.864 216.164C254.454 216.164 257.722 212.552 257.722 207.908C257.722 202.748 254.11 199.652 248.864 199.652ZM280.636 194.75C280.636 176.346 286.914 162.93 304.802 162.93C322.69 162.93 328.968 176.346 328.968 194.75C328.968 213.326 322.69 226.742 304.802 226.742C286.914 226.742 280.636 213.326 280.636 194.75ZM314.52 194.75C314.52 185.118 313.488 176.69 304.802 176.69C296.116 176.69 295.084 185.118 295.084 194.75C295.084 204.726 296.116 212.982 304.802 212.982C313.488 212.982 314.52 204.726 314.52 194.75ZM236.072 258.232C236.072 261.112 233.544 263.288 229.672 263.288C225.576 263.288 222.696 261.048 222.504 257.848H225.512C225.672 259.544 227.176 260.824 229.64 260.824C231.944 260.824 233.224 259.672 233.224 258.232C233.224 254.328 222.856 256.6 222.856 250.072C222.856 247.384 225.384 245.176 229.288 245.176C233.16 245.176 235.72 247.256 235.912 250.68H233C232.872 248.92 231.528 247.64 229.192 247.64C227.048 247.64 225.768 248.664 225.768 250.072C225.768 254.232 235.944 251.96 236.072 258.232ZM255.735 245.464V263H252.823V260.408C251.703 262.232 249.559 263.256 247.223 263.256C243.191 263.256 240.023 260.76 240.023 255.736V245.464H242.903V255.352C242.903 258.904 244.855 260.728 247.799 260.728C250.807 260.728 252.823 258.872 252.823 255.096V245.464H255.735ZM263.564 253.464V263H260.652V245.464H263.564V248.312C264.556 246.36 266.444 245.144 269.228 245.144V248.152H268.46C265.676 248.152 263.564 249.4 263.564 253.464ZM282.944 263V242.52H279.872V239.864H285.888V263H282.944ZM290.89 251.192C290.89 244.568 292.554 239.512 298.954 239.512C305.322 239.512 306.986 244.568 306.986 251.192C306.986 257.912 305.322 263 298.954 263C292.554 263 290.89 257.912 290.89 251.192ZM304.106 251.192C304.106 246.392 303.498 242.168 298.954 242.168C294.378 242.168 293.77 246.392 293.77 251.192C293.77 256.184 294.378 260.344 298.954 260.344C303.498 260.344 304.106 256.184 304.106 251.192ZM310.984 251.192C310.984 244.568 312.648 239.512 319.048 239.512C325.416 239.512 327.08 244.568 327.08 251.192C327.08 257.912 325.416 263 319.048 263C312.648 263 310.984 257.912 310.984 251.192ZM324.2 251.192C324.2 246.392 323.592 242.168 319.048 242.168C314.472 242.168 313.864 246.392 313.864 251.192C313.864 256.184 314.472 260.344 319.048 260.344C323.592 260.344 324.2 256.184 324.2 251.192Z" fill="#0E0E0E"/>
<path d="M77.06 98.39V105.925H62.815V113.735H75.41V120.995H62.815V129.465H77.06V137H53.41V98.39H77.06ZM81.2959 121.655C81.2959 111.975 87.6759 105.87 96.6959 105.87C104.396 105.87 109.841 110.105 111.436 117.42H101.426C100.656 115.275 99.1159 113.9 96.5309 113.9C93.1759 113.9 90.8659 116.54 90.8659 121.655C90.8659 126.77 93.1759 129.41 96.5309 129.41C99.1159 129.41 100.601 128.145 101.426 125.89H111.436C109.841 132.985 104.396 137.44 96.6959 137.44C87.6759 137.44 81.2959 131.39 81.2959 121.655ZM146.497 121.655C146.497 131.39 139.457 137.44 130.437 137.44C121.417 137.44 114.597 131.39 114.597 121.655C114.597 111.92 121.582 105.87 130.547 105.87C139.567 105.87 146.497 111.92 146.497 121.655ZM124.167 121.655C124.167 126.825 127.027 129.3 130.437 129.3C133.792 129.3 136.927 126.825 136.927 121.655C136.927 116.43 133.847 114.01 130.547 114.01C127.137 114.01 124.167 116.43 124.167 121.655ZM163.966 137V98.665H168.971V137H163.966ZM199.557 137V119.95C199.557 113.79 196.202 110.655 191.142 110.655C186.027 110.655 182.507 113.845 182.507 120.335V137H177.502V106.86H182.507V111.15C184.487 108.015 188.117 106.31 192.187 106.31C199.172 106.31 204.507 110.6 204.507 119.235V137H199.557ZM210.812 121.82C210.812 112.415 217.027 106.365 225.167 106.365C229.897 106.365 234.242 108.785 236.332 112.25V96.3H241.392V137H236.332V131.335C234.517 134.69 230.612 137.495 225.112 137.495C217.027 137.495 210.812 131.17 210.812 121.82ZM236.332 121.875C236.332 114.89 231.602 110.71 226.102 110.71C220.602 110.71 215.927 114.725 215.927 121.82C215.927 128.915 220.602 133.095 226.102 133.095C231.602 133.095 236.332 128.97 236.332 121.875ZM262.665 110.6C257.77 110.6 253.7 113.845 253.15 119.73H272.18C272.235 113.845 267.835 110.6 262.665 110.6ZM276.745 127.705C275.205 133.205 270.365 137.495 262.885 137.495C254.305 137.495 247.98 131.445 247.98 121.875C247.98 112.36 254.085 106.365 262.885 106.365C271.63 106.365 277.35 112.525 277.35 120.775C277.35 121.875 277.295 122.755 277.185 123.8H253.095C253.48 129.905 257.77 133.26 262.885 133.26C267.395 133.26 270.255 130.95 271.355 127.705H276.745ZM299.687 137L292.537 125.78L285.662 137H280.437L290.172 122.04L280.437 106.86H286.102L293.252 118.025L300.072 106.86H305.297L295.617 121.765L305.352 137H299.687ZM321.55 96.63L320.615 104.99L327.325 100.15L329.305 103.725L321.66 106.915L329.36 110.05L327.27 113.735L320.615 108.895L321.495 117.2H317.37L318.195 108.895L311.54 113.79L309.395 110.05L317.04 106.86L309.395 103.78L311.43 100.095L318.25 104.99L317.37 96.63H321.55Z" fill="#0E0E0E"/>
<path d="M63 203.655L98.5484 251L179 167" stroke="#00BC84" stroke-width="19" stroke-linecap="round"/>
<path d="M333 310L50 310" stroke="black"/>
<path d="M50 366.282L59.1935 381.5L80 354.5" stroke="#00BC84" stroke-width="5" stroke-linecap="round"/>
<path d="M112.792 358.748V362.31H106.058V366.002H112.012V369.434H106.058V373.438H112.792V377H101.612V358.748H112.792ZM114.794 369.746C114.794 365.17 117.81 362.284 122.074 362.284C125.714 362.284 128.288 364.286 129.042 367.744H124.31C123.946 366.73 123.218 366.08 121.996 366.08C120.41 366.08 119.318 367.328 119.318 369.746C119.318 372.164 120.41 373.412 121.996 373.412C123.218 373.412 123.92 372.814 124.31 371.748H129.042C128.288 375.102 125.714 377.208 122.074 377.208C117.81 377.208 114.794 374.348 114.794 369.746ZM145.617 369.746C145.617 374.348 142.289 377.208 138.025 377.208C133.761 377.208 130.537 374.348 130.537 369.746C130.537 365.144 133.839 362.284 138.077 362.284C142.341 362.284 145.617 365.144 145.617 369.746ZM135.061 369.746C135.061 372.19 136.413 373.36 138.025 373.36C139.611 373.36 141.093 372.19 141.093 369.746C141.093 367.276 139.637 366.132 138.077 366.132C136.465 366.132 135.061 367.276 135.061 369.746ZM147.975 377V357.76H152.421V377H147.975ZM169.839 369.746C169.839 374.348 166.511 377.208 162.247 377.208C157.983 377.208 154.759 374.348 154.759 369.746C154.759 365.144 158.061 362.284 162.299 362.284C166.563 362.284 169.839 365.144 169.839 369.746ZM159.283 369.746C159.283 372.19 160.635 373.36 162.247 373.36C163.833 373.36 165.315 372.19 165.315 369.746C165.315 367.276 163.859 366.132 162.299 366.132C160.687 366.132 159.283 367.276 159.283 369.746ZM171.314 369.72C171.314 365.144 174.148 362.284 177.71 362.284C179.842 362.284 181.402 363.246 182.182 364.546V362.492H186.628V376.974C186.628 380.848 184.392 384.15 179.374 384.15C175.058 384.15 172.25 381.966 171.86 378.508H176.254C176.54 379.6 177.632 380.302 179.166 380.302C180.856 380.302 182.182 379.418 182.182 376.974V374.92C181.376 376.194 179.842 377.208 177.71 377.208C174.148 377.208 171.314 374.296 171.314 369.72ZM182.182 369.746C182.182 367.432 180.7 366.158 179.01 366.158C177.346 366.158 175.838 367.406 175.838 369.72C175.838 372.034 177.346 373.334 179.01 373.334C180.7 373.334 182.182 372.06 182.182 369.746ZM189.844 377V362.492H194.29V377H189.844ZM192.08 360.984C190.494 360.984 189.428 359.918 189.428 358.592C189.428 357.24 190.494 356.174 192.08 356.174C193.64 356.174 194.706 357.24 194.706 358.592C194.706 359.918 193.64 360.984 192.08 360.984ZM203.908 365.846C202.452 365.846 201.334 366.73 201.074 368.342H206.638C206.638 366.756 205.39 365.846 203.908 365.846ZM210.85 372.19C210.148 375.024 207.574 377.208 203.96 377.208C199.696 377.208 196.628 374.348 196.628 369.746C196.628 365.144 199.644 362.284 203.96 362.284C208.198 362.284 211.188 365.092 211.188 369.512C211.188 369.928 211.162 370.37 211.11 370.812H201.048C201.204 372.71 202.374 373.594 203.804 373.594C205.052 373.594 205.754 372.97 206.118 372.19H210.85Z" fill="#0E0E0E"/>
<path d="M50 420.282L59.1935 435.5L80 408.5" stroke="#00BC84" stroke-width="5" stroke-linecap="round"/>
<path d="M106.058 420.912H108.476C110.244 420.912 110.998 420.028 110.998 418.624C110.998 417.22 110.244 416.336 108.476 416.336H106.058V420.912ZM115.522 418.624C115.522 421.64 113.468 424.448 108.814 424.448H106.058V431H101.612V412.748H108.814C113.286 412.748 115.522 415.27 115.522 418.624ZM124.233 419.846C122.777 419.846 121.659 420.73 121.399 422.342H126.963C126.963 420.756 125.715 419.846 124.233 419.846ZM131.175 426.19C130.473 429.024 127.899 431.208 124.285 431.208C120.021 431.208 116.953 428.348 116.953 423.746C116.953 419.144 119.969 416.284 124.285 416.284C128.523 416.284 131.513 419.092 131.513 423.512C131.513 423.928 131.487 424.37 131.435 424.812H121.373C121.529 426.71 122.699 427.594 124.129 427.594C125.377 427.594 126.079 426.97 126.443 426.19H131.175ZM138.304 424.266V431H133.858V416.492H138.304V418.91C139.318 417.376 140.904 416.336 142.854 416.336V421.042H141.632C139.526 421.042 138.304 421.77 138.304 424.266ZM145.421 431V420.184H143.809V416.492H145.421V416.076C145.421 412.28 147.761 410.408 152.181 410.642V414.412C150.465 414.308 149.867 414.828 149.867 416.362V416.492H152.259V420.184H149.867V431H145.421ZM168.544 423.746C168.544 428.348 165.216 431.208 160.952 431.208C156.688 431.208 153.464 428.348 153.464 423.746C153.464 419.144 156.766 416.284 161.004 416.284C165.268 416.284 168.544 419.144 168.544 423.746ZM157.988 423.746C157.988 426.19 159.34 427.36 160.952 427.36C162.538 427.36 164.02 426.19 164.02 423.746C164.02 421.276 162.564 420.132 161.004 420.132C159.392 420.132 157.988 421.276 157.988 423.746ZM175.349 424.266V431H170.903V416.492H175.349V418.91C176.363 417.376 177.949 416.336 179.899 416.336V421.042H178.677C176.571 421.042 175.349 421.77 175.349 424.266ZM202.018 431V423.122C202.018 421.224 200.926 420.184 199.236 420.184C197.546 420.184 196.454 421.224 196.454 423.122V431H192.034V423.122C192.034 421.224 190.942 420.184 189.252 420.184C187.562 420.184 186.47 421.224 186.47 423.122V431H182.024V416.492H186.47V418.312C187.328 417.142 188.81 416.336 190.708 416.336C192.892 416.336 194.66 417.298 195.648 419.04C196.61 417.506 198.43 416.336 200.536 416.336C204.124 416.336 206.438 418.624 206.438 422.524V431H202.018ZM208.664 423.72C208.664 419.144 211.498 416.284 215.06 416.284C217.218 416.284 218.752 417.272 219.532 418.546V416.492H223.978V431H219.532V428.946C218.726 430.22 217.192 431.208 215.034 431.208C211.498 431.208 208.664 428.296 208.664 423.72ZM219.532 423.746C219.532 421.432 218.05 420.158 216.36 420.158C214.696 420.158 213.188 421.406 213.188 423.72C213.188 426.034 214.696 427.334 216.36 427.334C218.05 427.334 219.532 426.06 219.532 423.746ZM237.204 431V423.122C237.204 421.146 236.112 420.054 234.422 420.054C232.732 420.054 231.64 421.146 231.64 423.122V431H227.194V416.492H231.64V418.416C232.524 417.194 234.084 416.336 236.034 416.336C239.388 416.336 241.624 418.624 241.624 422.524V431H237.204ZM243.83 423.746C243.83 419.17 246.846 416.284 251.11 416.284C254.75 416.284 257.324 418.286 258.078 421.744H253.346C252.982 420.73 252.254 420.08 251.032 420.08C249.446 420.08 248.354 421.328 248.354 423.746C248.354 426.164 249.446 427.412 251.032 427.412C252.254 427.412 252.956 426.814 253.346 425.748H258.078C257.324 429.102 254.75 431.208 251.11 431.208C246.846 431.208 243.83 428.348 243.83 423.746ZM266.852 419.846C265.396 419.846 264.278 420.73 264.018 422.342H269.582C269.582 420.756 268.334 419.846 266.852 419.846ZM273.794 426.19C273.092 429.024 270.518 431.208 266.904 431.208C262.64 431.208 259.572 428.348 259.572 423.746C259.572 419.144 262.588 416.284 266.904 416.284C271.142 416.284 274.132 419.092 274.132 423.512C274.132 423.928 274.106 424.37 274.054 424.812H263.992C264.148 426.71 265.318 427.594 266.748 427.594C267.996 427.594 268.698 426.97 269.062 426.19H273.794ZM288.255 426.788C288.255 429.31 286.019 431.208 282.379 431.208C278.505 431.208 275.905 429.05 275.697 426.242H280.091C280.195 427.256 281.105 427.932 282.327 427.932C283.471 427.932 284.069 427.412 284.069 426.762C284.069 424.422 276.165 426.112 276.165 420.782C276.165 418.312 278.271 416.284 282.067 416.284C285.811 416.284 287.891 418.364 288.177 421.224H284.069C283.939 420.236 283.185 419.586 281.937 419.586C280.897 419.586 280.325 420.002 280.325 420.704C280.325 423.018 288.177 421.38 288.255 426.788Z" fill="#0E0E0E"/>
<path d="M50 474.282L59.1935 489.5L80 462.5" stroke="#00BC84" stroke-width="5" stroke-linecap="round"/>
<path d="M114.066 485L112.974 481.776H106.162L105.07 485H100.416L107.02 466.748H112.168L118.772 485H114.066ZM111.83 478.344L109.568 471.662L107.332 478.344H111.83ZM119.898 477.746C119.898 473.17 122.914 470.284 127.178 470.284C130.818 470.284 133.392 472.286 134.146 475.744H129.414C129.05 474.73 128.322 474.08 127.1 474.08C125.514 474.08 124.422 475.328 124.422 477.746C124.422 480.164 125.514 481.412 127.1 481.412C128.322 481.412 129.024 480.814 129.414 479.748H134.146C133.392 483.102 130.818 485.208 127.178 485.208C122.914 485.208 119.898 482.348 119.898 477.746ZM135.64 477.746C135.64 473.17 138.656 470.284 142.92 470.284C146.56 470.284 149.134 472.286 149.888 475.744H145.156C144.792 474.73 144.064 474.08 142.842 474.08C141.256 474.08 140.164 475.328 140.164 477.746C140.164 480.164 141.256 481.412 142.842 481.412C144.064 481.412 144.766 480.814 145.156 479.748H149.888C149.134 483.102 146.56 485.208 142.92 485.208C138.656 485.208 135.64 482.348 135.64 477.746ZM158.662 473.846C157.206 473.846 156.088 474.73 155.828 476.342H161.392C161.392 474.756 160.144 473.846 158.662 473.846ZM165.604 480.19C164.902 483.024 162.328 485.208 158.714 485.208C154.45 485.208 151.382 482.348 151.382 477.746C151.382 473.144 154.398 470.284 158.714 470.284C162.952 470.284 165.942 473.092 165.942 477.512C165.942 477.928 165.916 478.37 165.864 478.812H155.802C155.958 480.71 157.128 481.594 158.558 481.594C159.806 481.594 160.508 480.97 160.872 480.19H165.604ZM180.066 480.788C180.066 483.31 177.83 485.208 174.19 485.208C170.316 485.208 167.716 483.05 167.508 480.242H171.902C172.006 481.256 172.916 481.932 174.138 481.932C175.282 481.932 175.88 481.412 175.88 480.762C175.88 478.422 167.976 480.112 167.976 474.782C167.976 472.312 170.082 470.284 173.878 470.284C177.622 470.284 179.702 472.364 179.988 475.224H175.88C175.75 474.236 174.996 473.586 173.748 473.586C172.708 473.586 172.136 474.002 172.136 474.704C172.136 477.018 179.988 475.38 180.066 480.788ZM194.564 480.788C194.564 483.31 192.328 485.208 188.688 485.208C184.814 485.208 182.214 483.05 182.006 480.242H186.4C186.504 481.256 187.414 481.932 188.636 481.932C189.78 481.932 190.378 481.412 190.378 480.762C190.378 478.422 182.474 480.112 182.474 474.782C182.474 472.312 184.58 470.284 188.376 470.284C192.12 470.284 194.2 472.364 194.486 475.224H190.378C190.248 474.236 189.494 473.586 188.246 473.586C187.206 473.586 186.634 474.002 186.634 474.704C186.634 477.018 194.486 475.38 194.564 480.788ZM197.284 485V470.492H201.73V485H197.284ZM199.52 468.984C197.934 468.984 196.868 467.918 196.868 466.592C196.868 465.24 197.934 464.174 199.52 464.174C201.08 464.174 202.146 465.24 202.146 466.592C202.146 467.918 201.08 468.984 199.52 468.984ZM209.398 472.546C210.204 471.246 211.79 470.284 213.87 470.284C217.458 470.284 220.266 473.144 220.266 477.72C220.266 482.296 217.432 485.208 213.87 485.208C211.738 485.208 210.204 484.246 209.398 482.972V485H204.952V465.76H209.398V472.546ZM215.742 477.72C215.742 475.406 214.234 474.158 212.544 474.158C210.88 474.158 209.372 475.432 209.372 477.746C209.372 480.06 210.88 481.334 212.544 481.334C214.234 481.334 215.742 480.034 215.742 477.72ZM222.598 485V470.492H227.044V485H222.598ZM224.834 468.984C223.248 468.984 222.182 467.918 222.182 466.592C222.182 465.24 223.248 464.174 224.834 464.174C226.394 464.174 227.46 465.24 227.46 466.592C227.46 467.918 226.394 468.984 224.834 468.984ZM230.266 485V465.76H234.712V485H230.266ZM237.934 485V470.492H242.38V485H237.934ZM240.17 468.984C238.584 468.984 237.518 467.918 237.518 466.592C237.518 465.24 238.584 464.174 240.17 464.174C241.73 464.174 242.796 465.24 242.796 466.592C242.796 467.918 241.73 468.984 240.17 468.984ZM246.304 479.956V474.184H244.536V470.492H246.304V466.956H250.75V470.492H253.662V474.184H250.75V480.008C250.75 480.866 251.114 481.23 252.102 481.23H253.688V485H251.426C248.41 485 246.304 483.726 246.304 479.956ZM262.561 473.846C261.105 473.846 259.987 474.73 259.727 476.342H265.291C265.291 474.756 264.043 473.846 262.561 473.846ZM269.503 480.19C268.801 483.024 266.227 485.208 262.613 485.208C258.349 485.208 255.281 482.348 255.281 477.746C255.281 473.144 258.297 470.284 262.613 470.284C266.851 470.284 269.841 473.092 269.841 477.512C269.841 477.928 269.815 478.37 269.763 478.812H259.701C259.857 480.71 261.027 481.594 262.457 481.594C263.705 481.594 264.407 480.97 264.771 480.19H269.503ZM259.337 466.332L265.603 463.316V466.774L259.337 469.4V466.332Z" fill="#0E0E0E"/>
<path d="M50 528.282L59.1935 543.5L80 516.5" stroke="#00BC84" stroke-width="5" stroke-linecap="round"/>
<path d="M111.674 533.436C111.674 532.136 110.764 531.382 109.282 531.382H106.058V535.412H109.334C110.816 535.412 111.674 534.736 111.674 533.436ZM111.232 526.234C111.232 524.986 110.426 524.31 108.97 524.31H106.058V528.132H108.97C110.426 528.132 111.232 527.482 111.232 526.234ZM116.172 534.034C116.172 537.05 113.962 539 110.114 539H101.612V520.748H109.828C113.546 520.748 115.756 522.594 115.756 525.48C115.756 527.69 114.43 529.12 112.662 529.64C114.794 530.082 116.172 531.954 116.172 534.034ZM125.147 527.846C123.691 527.846 122.573 528.73 122.313 530.342H127.877C127.877 528.756 126.629 527.846 125.147 527.846ZM132.089 534.19C131.387 537.024 128.813 539.208 125.199 539.208C120.935 539.208 117.867 536.348 117.867 531.746C117.867 527.144 120.883 524.284 125.199 524.284C129.437 524.284 132.427 527.092 132.427 531.512C132.427 531.928 132.401 532.37 132.349 532.812H122.287C122.443 534.71 123.613 535.594 125.043 535.594C126.291 535.594 126.993 534.97 127.357 534.19H132.089ZM146.55 534.788C146.55 537.31 144.314 539.208 140.674 539.208C136.8 539.208 134.2 537.05 133.992 534.242H138.386C138.49 535.256 139.4 535.932 140.622 535.932C141.766 535.932 142.364 535.412 142.364 534.762C142.364 532.422 134.46 534.112 134.46 528.782C134.46 526.312 136.566 524.284 140.362 524.284C144.106 524.284 146.186 526.364 146.472 529.224H142.364C142.234 528.236 141.48 527.586 140.232 527.586C139.192 527.586 138.62 528.002 138.62 528.704C138.62 531.018 146.472 529.38 146.55 534.788ZM149.972 533.956V528.184H148.204V524.492H149.972V520.956H154.418V524.492H157.33V528.184H154.418V534.008C154.418 534.866 154.782 535.23 155.77 535.23H157.356V539H155.094C152.078 539 149.972 537.726 149.972 533.956ZM169.788 528.912H172.206C173.974 528.912 174.728 528.028 174.728 526.624C174.728 525.22 173.974 524.336 172.206 524.336H169.788V528.912ZM179.252 526.624C179.252 529.64 177.198 532.448 172.544 532.448H169.788V539H165.342V520.748H172.544C177.016 520.748 179.252 523.27 179.252 526.624ZM186.013 532.266V539H181.567V524.492H186.013V526.91C187.027 525.376 188.613 524.336 190.563 524.336V529.042H189.341C187.235 529.042 186.013 529.77 186.013 532.266ZM191.804 531.72C191.804 527.144 194.638 524.284 198.2 524.284C200.358 524.284 201.892 525.272 202.672 526.546V524.492H207.118V539H202.672V536.946C201.866 538.22 200.332 539.208 198.174 539.208C194.638 539.208 191.804 536.296 191.804 531.72ZM202.672 531.746C202.672 529.432 201.19 528.158 199.5 528.158C197.836 528.158 196.328 529.406 196.328 531.72C196.328 534.034 197.836 535.334 199.5 535.334C201.19 535.334 202.672 534.06 202.672 531.746ZM209.451 531.746C209.451 527.17 212.467 524.284 216.731 524.284C220.371 524.284 222.945 526.286 223.699 529.744H218.967C218.603 528.73 217.875 528.08 216.653 528.08C215.067 528.08 213.975 529.328 213.975 531.746C213.975 534.164 215.067 535.412 216.653 535.412C217.875 535.412 218.577 534.814 218.967 533.748H223.699C222.945 537.102 220.371 539.208 216.731 539.208C212.467 539.208 209.451 536.348 209.451 531.746ZM226.779 533.956V528.184H225.011V524.492H226.779V520.956H231.225V524.492H234.137V528.184H231.225V534.008C231.225 534.866 231.589 535.23 232.577 535.23H234.163V539H231.901C228.885 539 226.779 537.726 226.779 533.956ZM236.639 539V524.492H241.085V539H236.639ZM238.875 522.984C237.289 522.984 236.223 521.918 236.223 520.592C236.223 519.24 237.289 518.174 238.875 518.174C240.435 518.174 241.501 519.24 241.501 520.592C241.501 521.918 240.435 522.984 238.875 522.984ZM243.423 531.746C243.423 527.17 246.439 524.284 250.703 524.284C254.343 524.284 256.917 526.286 257.671 529.744H252.939C252.575 528.73 251.847 528.08 250.625 528.08C249.039 528.08 247.947 529.328 247.947 531.746C247.947 534.164 249.039 535.412 250.625 535.412C251.847 535.412 252.549 534.814 252.939 533.748H257.671C256.917 537.102 254.343 539.208 250.703 539.208C246.439 539.208 243.423 536.348 243.423 531.746ZM266.446 527.846C264.99 527.846 263.872 528.73 263.612 530.342H269.176C269.176 528.756 267.928 527.846 266.446 527.846ZM273.388 534.19C272.686 537.024 270.112 539.208 266.498 539.208C262.234 539.208 259.166 536.348 259.166 531.746C259.166 527.144 262.182 524.284 266.498 524.284C270.736 524.284 273.725 527.092 273.725 531.512C273.725 531.928 273.7 532.37 273.648 532.812H263.586C263.742 534.71 264.912 535.594 266.342 535.594C267.59 535.594 268.292 534.97 268.656 534.19H273.388ZM287.849 534.788C287.849 537.31 285.613 539.208 281.973 539.208C278.099 539.208 275.499 537.05 275.291 534.242H279.685C279.789 535.256 280.699 535.932 281.921 535.932C283.065 535.932 283.663 535.412 283.663 534.762C283.663 532.422 275.759 534.112 275.759 528.782C275.759 526.312 277.865 524.284 281.661 524.284C285.405 524.284 287.485 526.364 287.771 529.224H283.663C283.533 528.236 282.779 527.586 281.531 527.586C280.491 527.586 279.919 528.002 279.919 528.704C279.919 531.018 287.771 529.38 287.849 534.788Z" fill="#0E0E0E"/>
<path d="M50 582.282L59.1935 597.5L80 570.5" stroke="#00BC84" stroke-width="5" stroke-linecap="round"/>
<path d="M114.872 587.566C114.872 590.634 112.48 593.182 108.216 593.182C104.29 593.182 101.222 591.232 101.092 587.54H105.824C105.954 588.944 106.838 589.62 108.086 589.62C109.386 589.62 110.218 588.97 110.218 587.904C110.218 584.524 101.092 586.344 101.144 579.87C101.144 576.412 103.978 574.488 107.8 574.488C111.778 574.488 114.456 576.464 114.638 579.948H109.828C109.75 578.778 108.918 578.076 107.722 578.05C106.656 578.024 105.85 578.57 105.85 579.714C105.85 582.886 114.872 581.456 114.872 587.566ZM128.788 574.748V578.31H122.054V582.002H128.008V585.434H122.054V589.438H128.788V593H117.608V574.748H128.788ZM149.641 583.822C149.641 589.308 145.481 593.182 140.307 593.182C135.133 593.182 130.92 589.308 130.92 583.822C130.92 578.336 135.133 574.488 140.307 574.488C145.507 574.488 149.641 578.336 149.641 583.822ZM135.471 583.822C135.471 587.02 137.343 589.126 140.307 589.126C143.219 589.126 145.117 587.02 145.117 583.822C145.117 580.572 143.219 578.518 140.307 578.518C137.343 578.518 135.471 580.572 135.471 583.822Z" fill="#0E0E0E"/>
<path d="M103.422 649.36L103.162 652.5L105.742 650.76L106.302 651.78L103.482 653.06L106.322 654.34L105.742 655.38L103.162 653.66L103.402 656.8H102.242L102.462 653.66L99.8816 655.4L99.2816 654.34L102.122 653.06L99.3016 651.8L99.8816 650.76L102.482 652.5L102.242 649.36H103.422ZM109.077 664V650.02H110.477V664H109.077ZM121.827 664V657.76C121.827 655.34 120.507 654.1 118.507 654.1C116.467 654.1 115.047 655.38 115.047 658.04V664H113.647V653.08H115.047V654.94C115.747 653.58 117.147 652.88 118.767 652.88C121.247 652.88 123.207 654.4 123.207 657.6V664H121.827ZM125.663 658.52C125.663 655.1 127.883 652.92 130.903 652.92C132.863 652.92 134.503 654 135.203 655.44V649.2H136.603V664H135.203V661.56C134.563 663 133.043 664.16 130.883 664.16C127.883 664.16 125.663 661.94 125.663 658.52ZM135.203 658.54C135.203 655.82 133.383 654.14 131.143 654.14C128.843 654.14 127.083 655.74 127.083 658.52C127.083 661.28 128.843 662.94 131.143 662.94C133.383 662.94 135.203 661.26 135.203 658.54ZM139.799 664V653.08H141.199V664H139.799ZM140.499 651.02C139.939 651.02 139.479 650.58 139.479 649.98C139.479 649.38 139.939 648.96 140.499 648.96C141.059 648.96 141.519 649.38 141.519 649.98C141.519 650.58 141.059 651.02 140.499 651.02ZM143.73 658.54C143.73 655.08 145.95 652.92 149.03 652.92C151.77 652.92 153.55 654.38 154.05 656.64H152.55C152.19 655.08 150.87 654.12 149.03 654.12C146.89 654.12 145.15 655.58 145.15 658.54C145.15 661.5 146.89 662.98 149.03 662.98C150.87 662.98 152.17 662.04 152.55 660.44H154.05C153.55 662.62 151.77 664.16 149.03 664.16C145.95 664.16 143.73 662 143.73 658.54ZM155.995 658.52C155.995 655.1 158.215 652.92 161.215 652.92C163.415 652.92 164.915 654.1 165.535 655.48V653.08H166.935V664H165.535V661.58C164.895 662.98 163.375 664.16 161.195 664.16C158.215 664.16 155.995 661.94 155.995 658.52ZM165.535 658.54C165.535 655.82 163.715 654.14 161.475 654.14C159.175 654.14 157.415 655.74 157.415 658.52C157.415 661.28 159.175 662.94 161.475 662.94C163.715 662.94 165.535 661.26 165.535 658.54ZM170.531 661.04V654.26H169.011V653.08H170.531V650.34H171.951V653.08H174.951V654.26H171.951V661.04C171.951 662.38 172.411 662.8 173.671 662.8H174.951V664H173.451C171.551 664 170.531 663.22 170.531 661.04ZM181.92 654.12C179.94 654.12 178.2 655.4 178.04 657.94H185.72C185.78 655.4 183.94 654.12 181.92 654.12ZM186.98 660.54C186.48 662.6 184.72 664.16 181.98 664.16C178.88 664.16 176.62 662 176.62 658.54C176.62 655.06 178.84 652.92 181.98 652.92C185.18 652.92 187.14 655.2 187.14 657.98C187.14 658.42 187.14 658.7 187.1 659.08H178.04C178.16 661.64 179.94 662.98 181.98 662.98C183.84 662.98 185.1 662 185.5 660.54H186.98ZM199.162 653.08V664H197.762V662.08C197.102 663.46 195.662 664.18 194.042 664.18C191.562 664.18 189.602 662.66 189.602 659.46V653.08H190.982V659.3C190.982 661.72 192.302 662.96 194.302 662.96C196.342 662.96 197.762 661.68 197.762 659.02V653.08H199.162ZM203.758 657.9V664H202.358V653.08H203.758V655.02C204.358 653.68 205.618 652.88 207.498 652.88V654.34H207.118C205.298 654.34 203.758 655.16 203.758 657.9ZM215.092 664V653.08H216.492V664H215.092ZM215.792 651.02C215.232 651.02 214.772 650.58 214.772 649.98C214.772 649.38 215.232 648.96 215.792 648.96C216.352 648.96 216.812 649.38 216.812 649.98C216.812 650.58 216.352 651.02 215.792 651.02ZM235.623 664V657.76C235.623 655.34 234.363 654.1 232.423 654.1C230.443 654.1 229.043 655.42 229.043 658.08V664H227.663V657.76C227.663 655.34 226.383 654.1 224.443 654.1C222.443 654.1 221.063 655.42 221.063 658.08V664H219.663V653.08H221.063V654.96C221.763 653.58 223.143 652.88 224.683 652.88C226.503 652.88 228.062 653.74 228.723 655.56C229.323 653.78 230.923 652.88 232.663 652.88C235.083 652.88 237.003 654.4 237.003 657.6V664H235.623ZM241.492 655.48C242.132 654.1 243.652 652.92 245.832 652.92C248.812 652.92 251.032 655.1 251.032 658.52C251.032 661.94 248.812 664.16 245.832 664.16C243.652 664.16 242.132 662.96 241.492 661.6V669.16H240.112V653.08H241.492V655.48ZM249.612 658.52C249.612 655.74 247.852 654.14 245.552 654.14C243.332 654.14 241.492 655.82 241.492 658.54C241.492 661.26 243.332 662.94 245.552 662.94C247.852 662.94 249.612 661.28 249.612 658.52ZM252.968 658.52C252.968 655.1 255.188 652.92 258.188 652.92C260.388 652.92 261.888 654.1 262.508 655.48V653.08H263.908V664H262.508V661.58C261.868 662.98 260.348 664.16 258.168 664.16C255.188 664.16 252.968 661.94 252.968 658.52ZM262.508 658.54C262.508 655.82 260.688 654.14 258.448 654.14C256.148 654.14 254.388 655.74 254.388 658.52C254.388 661.28 256.148 662.94 258.448 662.94C260.688 662.94 262.508 661.26 262.508 658.54ZM266.464 658.54C266.464 655.08 268.684 652.92 271.764 652.92C274.504 652.92 276.284 654.38 276.784 656.64H275.284C274.924 655.08 273.604 654.12 271.764 654.12C269.624 654.12 267.884 655.58 267.884 658.54C267.884 661.5 269.624 662.98 271.764 662.98C273.604 662.98 274.904 662.04 275.284 660.44H276.784C276.284 662.62 274.504 664.16 271.764 664.16C268.684 664.16 266.464 662 266.464 658.54ZM279.77 661.04V654.26H278.25V653.08H279.77V650.34H281.19V653.08H284.19V654.26H281.19V661.04C281.19 662.38 281.65 662.8 282.91 662.8H284.19V664H282.69C280.79 664 279.77 663.22 279.77 661.04ZM100.641 684.12C98.6609 684.12 96.9209 685.4 96.7609 687.94H104.441C104.501 685.4 102.661 684.12 100.641 684.12ZM105.701 690.54C105.201 692.6 103.441 694.16 100.701 694.16C97.6009 694.16 95.3409 692 95.3409 688.54C95.3409 685.06 97.5609 682.92 100.701 682.92C103.901 682.92 105.861 685.2 105.861 687.98C105.861 688.42 105.861 688.7 105.821 689.08H96.7609C96.8809 691.64 98.6609 692.98 100.701 692.98C102.561 692.98 103.821 692 104.221 690.54H105.701ZM116.602 694V687.76C116.602 685.34 115.282 684.1 113.282 684.1C111.242 684.1 109.822 685.38 109.822 688.04V694H108.422V683.08H109.822V684.94C110.522 683.58 111.922 682.88 113.542 682.88C116.022 682.88 117.982 684.4 117.982 687.6V694H116.602ZM119.779 683.08H121.279L124.959 692.64L128.639 683.08H130.119L125.739 694H124.159L119.779 683.08ZM132.016 694V683.08H133.416V694H132.016ZM132.716 681.02C132.156 681.02 131.696 680.58 131.696 679.98C131.696 679.38 132.156 678.96 132.716 678.96C133.276 678.96 133.736 679.38 133.736 679.98C133.736 680.58 133.276 681.02 132.716 681.02ZM137.986 687.9V694H136.586V683.08H137.986V685.02C138.586 683.68 139.846 682.88 141.726 682.88V684.34H141.346C139.526 684.34 137.986 685.16 137.986 687.9ZM154.112 688.54C154.112 692 151.692 694.16 148.612 694.16C145.532 694.16 143.192 692 143.192 688.54C143.192 685.06 145.592 682.92 148.652 682.92C151.732 682.92 154.112 685.06 154.112 688.54ZM144.612 688.54C144.612 691.54 146.532 692.94 148.612 692.94C150.672 692.94 152.672 691.54 152.672 688.54C152.672 685.54 150.712 684.14 148.632 684.14C146.552 684.14 144.612 685.54 144.612 688.54ZM164.844 694V687.76C164.844 685.34 163.524 684.1 161.524 684.1C159.484 684.1 158.064 685.38 158.064 688.04V694H156.664V683.08H158.064V684.94C158.764 683.58 160.164 682.88 161.784 682.88C164.264 682.88 166.224 684.4 166.224 687.6V694H164.844ZM177.501 694V687.76C177.501 685.34 176.181 684.1 174.181 684.1C172.141 684.1 170.721 685.38 170.721 688.04V694H169.321V683.08H170.721V684.94C171.421 683.58 172.821 682.88 174.441 682.88C176.921 682.88 178.881 684.4 178.881 687.6V694H177.501ZM186.637 684.12C184.657 684.12 182.917 685.4 182.757 687.94H190.437C190.497 685.4 188.657 684.12 186.637 684.12ZM191.697 690.54C191.197 692.6 189.437 694.16 186.697 694.16C183.597 694.16 181.337 692 181.337 688.54C181.337 685.06 183.557 682.92 186.697 682.92C189.897 682.92 191.857 685.2 191.857 687.98C191.857 688.42 191.857 688.7 191.817 689.08H182.757C182.877 691.64 184.657 692.98 186.697 692.98C188.557 692.98 189.817 692 190.217 690.54H191.697ZM210.378 694V687.76C210.378 685.34 209.118 684.1 207.178 684.1C205.198 684.1 203.798 685.42 203.798 688.08V694H202.418V687.76C202.418 685.34 201.138 684.1 199.198 684.1C197.198 684.1 195.818 685.42 195.818 688.08V694H194.418V683.08H195.818V684.96C196.518 683.58 197.898 682.88 199.438 682.88C201.258 682.88 202.818 683.74 203.478 685.56C204.078 683.78 205.678 682.88 207.418 682.88C209.838 682.88 211.758 684.4 211.758 687.6V694H210.378ZM219.528 684.12C217.548 684.12 215.808 685.4 215.648 687.94H223.328C223.388 685.4 221.548 684.12 219.528 684.12ZM224.588 690.54C224.088 692.6 222.328 694.16 219.588 694.16C216.488 694.16 214.228 692 214.228 688.54C214.228 685.06 216.448 682.92 219.588 682.92C222.788 682.92 224.748 685.2 224.748 687.98C224.748 688.42 224.748 688.7 224.708 689.08H215.648C215.768 691.64 217.548 692.98 219.588 692.98C221.448 692.98 222.708 692 223.108 690.54H224.588ZM235.489 694V687.76C235.489 685.34 234.169 684.1 232.169 684.1C230.129 684.1 228.709 685.38 228.709 688.04V694H227.309V683.08H228.709V684.94C229.409 683.58 230.809 682.88 232.429 682.88C234.909 682.88 236.869 684.4 236.869 687.6V694H235.489ZM240.365 691.04V684.26H238.845V683.08H240.365V680.34H241.785V683.08H244.785V684.26H241.785V691.04C241.785 692.38 242.245 692.8 243.505 692.8H244.785V694H243.285C241.385 694 240.365 693.22 240.365 691.04ZM246.454 688.52C246.454 685.1 248.674 682.92 251.674 682.92C253.874 682.92 255.374 684.1 255.994 685.48V683.08H257.394V694H255.994V691.58C255.354 692.98 253.834 694.16 251.654 694.16C248.674 694.16 246.454 691.94 246.454 688.52ZM255.994 688.54C255.994 685.82 254.174 684.14 251.934 684.14C249.634 684.14 247.874 685.74 247.874 688.52C247.874 691.28 249.634 692.94 251.934 692.94C254.174 692.94 255.994 691.26 255.994 688.54ZM260.59 694V679.2H261.99V694H260.59ZM275.309 684.12C273.329 684.12 271.589 685.4 271.429 687.94H279.109C279.169 685.4 277.329 684.12 275.309 684.12ZM280.369 690.54C279.869 692.6 278.109 694.16 275.369 694.16C272.269 694.16 270.009 692 270.009 688.54C270.009 685.06 272.229 682.92 275.369 682.92C278.569 682.92 280.529 685.2 280.529 687.98C280.529 688.42 280.529 688.7 280.489 689.08H271.429C271.549 691.64 273.329 692.98 275.369 692.98C277.229 692.98 278.489 692 278.889 690.54H280.369ZM283.49 691.04V684.26H281.97V683.08H283.49V680.34H284.91V683.08H287.91V684.26H284.91V691.04C284.91 692.38 285.37 692.8 286.63 692.8H287.91V694H286.41C284.51 694 283.49 693.22 283.49 691.04ZM128.943 715.48C129.583 714.1 131.103 712.92 133.283 712.92C136.263 712.92 138.483 715.1 138.483 718.52C138.483 721.94 136.263 724.16 133.283 724.16C131.103 724.16 129.583 722.96 128.943 721.6V729.16H127.563V713.08H128.943V715.48ZM137.063 718.52C137.063 715.74 135.303 714.14 133.003 714.14C130.783 714.14 128.943 715.82 128.943 718.54C128.943 721.26 130.783 722.94 133.003 722.94C135.303 722.94 137.063 721.28 137.063 718.52ZM145.719 714.12C143.739 714.12 141.999 715.4 141.839 717.94H149.519C149.579 715.4 147.739 714.12 145.719 714.12ZM150.779 720.54C150.279 722.6 148.519 724.16 145.779 724.16C142.679 724.16 140.419 722 140.419 718.54C140.419 715.06 142.639 712.92 145.779 712.92C148.979 712.92 150.939 715.2 150.939 717.98C150.939 718.42 150.939 718.7 150.899 719.08H141.839C141.959 721.64 143.739 722.98 145.779 722.98C147.639 722.98 148.899 722 149.299 720.54H150.779ZM154.9 717.9V724H153.5V713.08H154.9V715.02C155.5 713.68 156.76 712.88 158.64 712.88V714.34H158.26C156.44 714.34 154.9 715.16 154.9 717.9ZM161.106 724V714.26H159.586V713.08H161.106V712.32C161.106 709.98 162.206 708.86 164.966 708.86V710.06C163.106 710.06 162.506 710.74 162.506 712.32V713.08H165.046V714.26H162.506V724H161.106ZM177.53 718.54C177.53 722 175.11 724.16 172.03 724.16C168.95 724.16 166.61 722 166.61 718.54C166.61 715.06 169.01 712.92 172.07 712.92C175.15 712.92 177.53 715.06 177.53 718.54ZM168.03 718.54C168.03 721.54 169.95 722.94 172.03 722.94C174.09 722.94 176.09 721.54 176.09 718.54C176.09 715.54 174.13 714.14 172.05 714.14C169.97 714.14 168.03 715.54 168.03 718.54ZM181.482 717.9V724H180.082V713.08H181.482V715.02C182.082 713.68 183.342 712.88 185.222 712.88V714.34H184.842C183.022 714.34 181.482 715.16 181.482 717.9ZM203.289 724V717.76C203.289 715.34 202.029 714.1 200.089 714.1C198.109 714.1 196.709 715.42 196.709 718.08V724H195.329V717.76C195.329 715.34 194.049 714.1 192.109 714.1C190.109 714.1 188.729 715.42 188.729 718.08V724H187.329V713.08H188.729V714.96C189.429 713.58 190.809 712.88 192.349 712.88C194.169 712.88 195.729 713.74 196.389 715.56C196.989 713.78 198.589 712.88 200.329 712.88C202.749 712.88 204.669 714.4 204.669 717.6V724H203.289ZM207.138 718.52C207.138 715.1 209.358 712.92 212.358 712.92C214.558 712.92 216.058 714.1 216.678 715.48V713.08H218.078V724H216.678V721.58C216.038 722.98 214.518 724.16 212.338 724.16C209.358 724.16 207.138 721.94 207.138 718.52ZM216.678 718.54C216.678 715.82 214.858 714.14 212.618 714.14C210.318 714.14 208.558 715.74 208.558 718.52C208.558 721.28 210.318 722.94 212.618 722.94C214.858 722.94 216.678 721.26 216.678 718.54ZM229.454 724V717.76C229.454 715.34 228.134 714.1 226.134 714.1C224.094 714.1 222.674 715.38 222.674 718.04V724H221.274V713.08H222.674V714.94C223.374 713.58 224.774 712.88 226.394 712.88C228.874 712.88 230.834 714.4 230.834 717.6V724H229.454ZM233.29 718.54C233.29 715.08 235.51 712.92 238.59 712.92C241.33 712.92 243.11 714.38 243.61 716.64H242.11C241.75 715.08 240.43 714.12 238.59 714.12C236.45 714.12 234.71 715.58 234.71 718.54C234.71 721.5 236.45 722.98 238.59 722.98C240.43 722.98 241.73 722.04 242.11 720.44H243.61C243.11 722.62 241.33 724.16 238.59 724.16C235.51 724.16 233.29 722 233.29 718.54ZM250.856 714.12C248.876 714.12 247.136 715.4 246.976 717.94H254.656C254.716 715.4 252.876 714.12 250.856 714.12ZM255.916 720.54C255.416 722.6 253.656 724.16 250.916 724.16C247.816 724.16 245.556 722 245.556 718.54C245.556 715.06 247.776 712.92 250.916 712.92C254.116 712.92 256.076 715.2 256.076 717.98C256.076 718.42 256.076 718.7 256.036 719.08H246.976C247.096 721.64 248.876 722.98 250.916 722.98C252.776 722.98 254.036 722 254.436 720.54H255.916Z" fill="black"/>
</svg>
