<svg width="1279" height="225" viewBox="0 0 1279 225" fill="none" xmlns="http://www.w3.org/2000/svg">
<rect width="1279" height="225" rx="112.5" fill="white"/>
<path d="M257.035 129.032C252.611 126.662 249.609 122.712 249.609 116.629C249.609 108.413 256.008 101.145 269.596 101.145C283.184 101.145 289.504 108.413 289.504 116.629C289.504 122.554 286.423 126.741 282.078 129.032C287.687 131.718 290.926 136.537 290.926 143.094C290.926 154.628 281.367 161.106 269.596 161.106C257.825 161.106 248.266 154.628 248.266 143.094C248.266 136.537 251.505 131.639 257.035 129.032ZM269.596 125.398C273.467 125.398 276.39 122.87 276.39 118.683C276.39 114.338 273.625 111.889 269.596 111.889C265.567 111.889 262.802 114.338 262.802 118.762C262.802 122.949 265.725 125.398 269.596 125.398ZM269.596 134.878C264.777 134.878 261.301 137.564 261.301 142.462C261.301 146.807 264.382 150.046 269.596 150.046C274.731 150.046 277.733 146.728 277.733 142.462C277.733 137.722 274.415 134.878 269.596 134.878ZM298.782 130.375C298.782 113.469 304.549 101.145 320.981 101.145C337.413 101.145 343.18 113.469 343.18 130.375C343.18 147.439 337.413 159.763 320.981 159.763C304.549 159.763 298.782 147.439 298.782 130.375ZM329.908 130.375C329.908 121.527 328.96 113.785 320.981 113.785C313.002 113.785 312.054 121.527 312.054 130.375C312.054 139.539 313.002 147.123 320.981 147.123C328.96 147.123 329.908 139.539 329.908 130.375ZM257.659 186.679C257.659 189.289 255.368 191.261 251.859 191.261C248.147 191.261 245.537 189.231 245.363 186.331H248.089C248.234 187.868 249.597 189.028 251.83 189.028C253.918 189.028 255.078 187.984 255.078 186.679C255.078 183.141 245.682 185.2 245.682 179.284C245.682 176.848 247.973 174.847 251.511 174.847C255.02 174.847 257.34 176.732 257.514 179.835H254.875C254.759 178.24 253.541 177.08 251.424 177.08C249.481 177.08 248.321 178.008 248.321 179.284C248.321 183.054 257.543 180.995 257.659 186.679ZM275.478 175.108V191H272.839V188.651C271.824 190.304 269.881 191.232 267.764 191.232C264.11 191.232 261.239 188.97 261.239 184.417V175.108H263.849V184.069C263.849 187.288 265.618 188.941 268.286 188.941C271.012 188.941 272.839 187.259 272.839 183.837V175.108H275.478ZM282.573 182.358V191H279.934V175.108H282.573V177.689C283.472 175.92 285.183 174.818 287.706 174.818V177.544H287.01C284.487 177.544 282.573 178.675 282.573 182.358ZM300.137 191V172.44H297.353V170.033H302.805V191H300.137ZM307.338 180.299C307.338 174.296 308.846 169.714 314.646 169.714C320.417 169.714 321.925 174.296 321.925 180.299C321.925 186.389 320.417 191 314.646 191C308.846 191 307.338 186.389 307.338 180.299ZM319.315 180.299C319.315 175.949 318.764 172.121 314.646 172.121C310.499 172.121 309.948 175.949 309.948 180.299C309.948 184.823 310.499 188.593 314.646 188.593C318.764 188.593 319.315 184.823 319.315 180.299ZM325.548 180.299C325.548 174.296 327.056 169.714 332.856 169.714C338.627 169.714 340.135 174.296 340.135 180.299C340.135 186.389 338.627 191 332.856 191C327.056 191 325.548 186.389 325.548 180.299ZM337.525 180.299C337.525 175.949 336.974 172.121 332.856 172.121C328.709 172.121 328.158 175.949 328.158 180.299C328.158 184.823 328.709 188.593 332.856 188.593C336.974 188.593 337.525 184.823 337.525 180.299Z" fill="#0E0E0E"/>
<path d="M91.6 34.9V41.75H78.65V48.85H90.1V55.45H78.65V63.15H91.6V70H70.1V34.9H91.6ZM95.4508 56.05C95.4508 47.25 101.251 41.7 109.451 41.7C116.451 41.7 121.401 45.55 122.851 52.2H113.751C113.051 50.25 111.651 49 109.301 49C106.251 49 104.151 51.4 104.151 56.05C104.151 60.7 106.251 63.1 109.301 63.1C111.651 63.1 113.001 61.95 113.751 59.9H122.851C121.401 66.35 116.451 70.4 109.451 70.4C101.251 70.4 95.4508 64.9 95.4508 56.05ZM154.724 56.05C154.724 64.9 148.324 70.4 140.124 70.4C131.924 70.4 125.724 64.9 125.724 56.05C125.724 47.2 132.074 41.7 140.224 41.7C148.424 41.7 154.724 47.2 154.724 56.05ZM134.424 56.05C134.424 60.75 137.024 63 140.124 63C143.174 63 146.024 60.75 146.024 56.05C146.024 51.3 143.224 49.1 140.224 49.1C137.124 49.1 134.424 51.3 134.424 56.05ZM170.606 70V35.15H175.156V70H170.606ZM202.961 70V54.5C202.961 48.9 199.911 46.05 195.311 46.05C190.661 46.05 187.461 48.95 187.461 54.85V70H182.911V42.6H187.461V46.5C189.261 43.65 192.561 42.1 196.261 42.1C202.611 42.1 207.461 46 207.461 53.85V70H202.961ZM213.193 56.2C213.193 47.65 218.843 42.15 226.243 42.15C230.543 42.15 234.493 44.35 236.393 47.5V33H240.993V70H236.393V64.85C234.743 67.9 231.193 70.45 226.193 70.45C218.843 70.45 213.193 64.7 213.193 56.2ZM236.393 56.25C236.393 49.9 232.093 46.1 227.093 46.1C222.093 46.1 217.843 49.75 217.843 56.2C217.843 62.65 222.093 66.45 227.093 66.45C232.093 66.45 236.393 62.7 236.393 56.25ZM260.332 46C255.882 46 252.182 48.95 251.682 54.3H268.982C269.032 48.95 265.032 46 260.332 46ZM273.132 61.55C271.732 66.55 267.332 70.45 260.532 70.45C252.732 70.45 246.982 64.95 246.982 56.25C246.982 47.6 252.532 42.15 260.532 42.15C268.482 42.15 273.682 47.75 273.682 55.25C273.682 56.25 273.632 57.05 273.532 58H251.632C251.982 63.55 255.882 66.6 260.532 66.6C264.632 66.6 267.232 64.5 268.232 61.55H273.132ZM293.988 70L287.488 59.8L281.238 70H276.488L285.338 56.4L276.488 42.6H281.638L288.138 52.75L294.338 42.6H299.088L290.288 56.15L299.138 70H293.988ZM327.194 33.3L326.344 40.9L332.444 36.5L334.244 39.75L327.294 42.65L334.294 45.5L332.394 48.85L326.344 44.45L327.144 52H323.394L324.144 44.45L318.094 48.9L316.144 45.5L323.094 42.6L316.144 39.8L317.994 36.45L324.194 40.9L323.394 33.3H327.194Z" fill="#0E0E0E"/>
<path d="M89 136.473L124.548 181L205 102" stroke="#00BC84" stroke-width="19" stroke-linecap="round"/>
<path d="M387 42.5V187.5" stroke="black"/>
<path d="M439.792 105.748V109.31H433.058V113.002H439.012V116.434H433.058V120.438H439.792V124H428.612V105.748H439.792ZM441.794 116.746C441.794 112.17 444.81 109.284 449.074 109.284C452.714 109.284 455.288 111.286 456.042 114.744H451.31C450.946 113.73 450.218 113.08 448.996 113.08C447.41 113.08 446.318 114.328 446.318 116.746C446.318 119.164 447.41 120.412 448.996 120.412C450.218 120.412 450.92 119.814 451.31 118.748H456.042C455.288 122.102 452.714 124.208 449.074 124.208C444.81 124.208 441.794 121.348 441.794 116.746ZM472.617 116.746C472.617 121.348 469.289 124.208 465.025 124.208C460.761 124.208 457.537 121.348 457.537 116.746C457.537 112.144 460.839 109.284 465.077 109.284C469.341 109.284 472.617 112.144 472.617 116.746ZM462.061 116.746C462.061 119.19 463.413 120.36 465.025 120.36C466.611 120.36 468.093 119.19 468.093 116.746C468.093 114.276 466.637 113.132 465.077 113.132C463.465 113.132 462.061 114.276 462.061 116.746ZM474.975 124V104.76H479.421V124H474.975ZM496.839 116.746C496.839 121.348 493.511 124.208 489.247 124.208C484.983 124.208 481.759 121.348 481.759 116.746C481.759 112.144 485.061 109.284 489.299 109.284C493.563 109.284 496.839 112.144 496.839 116.746ZM486.283 116.746C486.283 119.19 487.635 120.36 489.247 120.36C490.833 120.36 492.315 119.19 492.315 116.746C492.315 114.276 490.859 113.132 489.299 113.132C487.687 113.132 486.283 114.276 486.283 116.746ZM498.314 116.72C498.314 112.144 501.148 109.284 504.71 109.284C506.842 109.284 508.402 110.246 509.182 111.546V109.492H513.628V123.974C513.628 127.848 511.392 131.15 506.374 131.15C502.058 131.15 499.25 128.966 498.86 125.508H503.254C503.54 126.6 504.632 127.302 506.166 127.302C507.856 127.302 509.182 126.418 509.182 123.974V121.92C508.376 123.194 506.842 124.208 504.71 124.208C501.148 124.208 498.314 121.296 498.314 116.72ZM509.182 116.746C509.182 114.432 507.7 113.158 506.01 113.158C504.346 113.158 502.838 114.406 502.838 116.72C502.838 119.034 504.346 120.334 506.01 120.334C507.7 120.334 509.182 119.06 509.182 116.746ZM516.844 124V109.492H521.29V124H516.844ZM519.08 107.984C517.494 107.984 516.428 106.918 516.428 105.592C516.428 104.24 517.494 103.174 519.08 103.174C520.64 103.174 521.706 104.24 521.706 105.592C521.706 106.918 520.64 107.984 519.08 107.984ZM530.908 112.846C529.452 112.846 528.334 113.73 528.074 115.342H533.638C533.638 113.756 532.39 112.846 530.908 112.846ZM537.85 119.19C537.148 122.024 534.574 124.208 530.96 124.208C526.696 124.208 523.628 121.348 523.628 116.746C523.628 112.144 526.644 109.284 530.96 109.284C535.198 109.284 538.188 112.092 538.188 116.512C538.188 116.928 538.162 117.37 538.11 117.812H528.048C528.204 119.71 529.374 120.594 530.804 120.594C532.052 120.594 532.754 119.97 533.118 119.19H537.85Z" fill="#0E0E0E"/>
<path d="M563.058 113.912H565.476C567.244 113.912 567.998 113.028 567.998 111.624C567.998 110.22 567.244 109.336 565.476 109.336H563.058V113.912ZM572.522 111.624C572.522 114.64 570.468 117.448 565.814 117.448H563.058V124H558.612V105.748H565.814C570.286 105.748 572.522 108.27 572.522 111.624ZM581.233 112.846C579.777 112.846 578.659 113.73 578.399 115.342H583.963C583.963 113.756 582.715 112.846 581.233 112.846ZM588.175 119.19C587.473 122.024 584.899 124.208 581.285 124.208C577.021 124.208 573.953 121.348 573.953 116.746C573.953 112.144 576.969 109.284 581.285 109.284C585.523 109.284 588.513 112.092 588.513 116.512C588.513 116.928 588.487 117.37 588.435 117.812H578.373C578.529 119.71 579.699 120.594 581.129 120.594C582.377 120.594 583.079 119.97 583.443 119.19H588.175ZM595.304 117.266V124H590.858V109.492H595.304V111.91C596.318 110.376 597.904 109.336 599.854 109.336V114.042H598.632C596.526 114.042 595.304 114.77 595.304 117.266ZM602.421 124V113.184H600.809V109.492H602.421V109.076C602.421 105.28 604.761 103.408 609.181 103.642V107.412C607.465 107.308 606.867 107.828 606.867 109.362V109.492H609.259V113.184H606.867V124H602.421ZM625.544 116.746C625.544 121.348 622.216 124.208 617.952 124.208C613.688 124.208 610.464 121.348 610.464 116.746C610.464 112.144 613.766 109.284 618.004 109.284C622.268 109.284 625.544 112.144 625.544 116.746ZM614.988 116.746C614.988 119.19 616.34 120.36 617.952 120.36C619.538 120.36 621.02 119.19 621.02 116.746C621.02 114.276 619.564 113.132 618.004 113.132C616.392 113.132 614.988 114.276 614.988 116.746ZM632.349 117.266V124H627.903V109.492H632.349V111.91C633.363 110.376 634.949 109.336 636.899 109.336V114.042H635.677C633.571 114.042 632.349 114.77 632.349 117.266ZM659.018 124V116.122C659.018 114.224 657.926 113.184 656.236 113.184C654.546 113.184 653.454 114.224 653.454 116.122V124H649.034V116.122C649.034 114.224 647.942 113.184 646.252 113.184C644.562 113.184 643.47 114.224 643.47 116.122V124H639.024V109.492H643.47V111.312C644.328 110.142 645.81 109.336 647.708 109.336C649.892 109.336 651.66 110.298 652.648 112.04C653.61 110.506 655.43 109.336 657.536 109.336C661.124 109.336 663.438 111.624 663.438 115.524V124H659.018ZM665.664 116.72C665.664 112.144 668.498 109.284 672.06 109.284C674.218 109.284 675.752 110.272 676.532 111.546V109.492H680.978V124H676.532V121.946C675.726 123.22 674.192 124.208 672.034 124.208C668.498 124.208 665.664 121.296 665.664 116.72ZM676.532 116.746C676.532 114.432 675.05 113.158 673.36 113.158C671.696 113.158 670.188 114.406 670.188 116.72C670.188 119.034 671.696 120.334 673.36 120.334C675.05 120.334 676.532 119.06 676.532 116.746ZM694.204 124V116.122C694.204 114.146 693.112 113.054 691.422 113.054C689.732 113.054 688.64 114.146 688.64 116.122V124H684.194V109.492H688.64V111.416C689.524 110.194 691.084 109.336 693.034 109.336C696.388 109.336 698.624 111.624 698.624 115.524V124H694.204ZM700.83 116.746C700.83 112.17 703.846 109.284 708.11 109.284C711.75 109.284 714.324 111.286 715.078 114.744H710.346C709.982 113.73 709.254 113.08 708.032 113.08C706.446 113.08 705.354 114.328 705.354 116.746C705.354 119.164 706.446 120.412 708.032 120.412C709.254 120.412 709.956 119.814 710.346 118.748H715.078C714.324 122.102 711.75 124.208 708.11 124.208C703.846 124.208 700.83 121.348 700.83 116.746ZM723.852 112.846C722.396 112.846 721.278 113.73 721.018 115.342H726.582C726.582 113.756 725.334 112.846 723.852 112.846ZM730.794 119.19C730.092 122.024 727.518 124.208 723.904 124.208C719.64 124.208 716.572 121.348 716.572 116.746C716.572 112.144 719.588 109.284 723.904 109.284C728.142 109.284 731.132 112.092 731.132 116.512C731.132 116.928 731.106 117.37 731.054 117.812H720.992C721.148 119.71 722.318 120.594 723.748 120.594C724.996 120.594 725.698 119.97 726.062 119.19H730.794ZM745.255 119.788C745.255 122.31 743.019 124.208 739.379 124.208C735.505 124.208 732.905 122.05 732.697 119.242H737.091C737.195 120.256 738.105 120.932 739.327 120.932C740.471 120.932 741.069 120.412 741.069 119.762C741.069 117.422 733.165 119.112 733.165 113.782C733.165 111.312 735.271 109.284 739.067 109.284C742.811 109.284 744.891 111.364 745.177 114.224H741.069C740.939 113.236 740.185 112.586 738.937 112.586C737.897 112.586 737.325 113.002 737.325 113.704C737.325 116.018 745.177 114.38 745.255 119.788Z" fill="#0E0E0E"/>
<path d="M779.066 124L777.974 120.776H771.162L770.07 124H765.416L772.02 105.748H777.168L783.772 124H779.066ZM776.83 117.344L774.568 110.662L772.332 117.344H776.83ZM784.898 116.746C784.898 112.17 787.914 109.284 792.178 109.284C795.818 109.284 798.392 111.286 799.146 114.744H794.414C794.05 113.73 793.322 113.08 792.1 113.08C790.514 113.08 789.422 114.328 789.422 116.746C789.422 119.164 790.514 120.412 792.1 120.412C793.322 120.412 794.024 119.814 794.414 118.748H799.146C798.392 122.102 795.818 124.208 792.178 124.208C787.914 124.208 784.898 121.348 784.898 116.746ZM800.64 116.746C800.64 112.17 803.656 109.284 807.92 109.284C811.56 109.284 814.134 111.286 814.888 114.744H810.156C809.792 113.73 809.064 113.08 807.842 113.08C806.256 113.08 805.164 114.328 805.164 116.746C805.164 119.164 806.256 120.412 807.842 120.412C809.064 120.412 809.766 119.814 810.156 118.748H814.888C814.134 122.102 811.56 124.208 807.92 124.208C803.656 124.208 800.64 121.348 800.64 116.746ZM823.662 112.846C822.206 112.846 821.088 113.73 820.828 115.342H826.392C826.392 113.756 825.144 112.846 823.662 112.846ZM830.604 119.19C829.902 122.024 827.328 124.208 823.714 124.208C819.45 124.208 816.382 121.348 816.382 116.746C816.382 112.144 819.398 109.284 823.714 109.284C827.952 109.284 830.942 112.092 830.942 116.512C830.942 116.928 830.916 117.37 830.864 117.812H820.802C820.958 119.71 822.128 120.594 823.558 120.594C824.806 120.594 825.508 119.97 825.872 119.19H830.604ZM845.066 119.788C845.066 122.31 842.83 124.208 839.19 124.208C835.316 124.208 832.716 122.05 832.508 119.242H836.902C837.006 120.256 837.916 120.932 839.138 120.932C840.282 120.932 840.88 120.412 840.88 119.762C840.88 117.422 832.976 119.112 832.976 113.782C832.976 111.312 835.082 109.284 838.878 109.284C842.622 109.284 844.702 111.364 844.988 114.224H840.88C840.75 113.236 839.996 112.586 838.748 112.586C837.708 112.586 837.136 113.002 837.136 113.704C837.136 116.018 844.988 114.38 845.066 119.788ZM859.564 119.788C859.564 122.31 857.328 124.208 853.688 124.208C849.814 124.208 847.214 122.05 847.006 119.242H851.4C851.504 120.256 852.414 120.932 853.636 120.932C854.78 120.932 855.378 120.412 855.378 119.762C855.378 117.422 847.474 119.112 847.474 113.782C847.474 111.312 849.58 109.284 853.376 109.284C857.12 109.284 859.2 111.364 859.486 114.224H855.378C855.248 113.236 854.494 112.586 853.246 112.586C852.206 112.586 851.634 113.002 851.634 113.704C851.634 116.018 859.486 114.38 859.564 119.788ZM862.284 124V109.492H866.73V124H862.284ZM864.52 107.984C862.934 107.984 861.868 106.918 861.868 105.592C861.868 104.24 862.934 103.174 864.52 103.174C866.08 103.174 867.146 104.24 867.146 105.592C867.146 106.918 866.08 107.984 864.52 107.984ZM874.398 111.546C875.204 110.246 876.79 109.284 878.87 109.284C882.458 109.284 885.266 112.144 885.266 116.72C885.266 121.296 882.432 124.208 878.87 124.208C876.738 124.208 875.204 123.246 874.398 121.972V124H869.952V104.76H874.398V111.546ZM880.742 116.72C880.742 114.406 879.234 113.158 877.544 113.158C875.88 113.158 874.372 114.432 874.372 116.746C874.372 119.06 875.88 120.334 877.544 120.334C879.234 120.334 880.742 119.034 880.742 116.72ZM887.598 124V109.492H892.044V124H887.598ZM889.834 107.984C888.248 107.984 887.182 106.918 887.182 105.592C887.182 104.24 888.248 103.174 889.834 103.174C891.394 103.174 892.46 104.24 892.46 105.592C892.46 106.918 891.394 107.984 889.834 107.984ZM895.266 124V104.76H899.712V124H895.266ZM902.934 124V109.492H907.38V124H902.934ZM905.17 107.984C903.584 107.984 902.518 106.918 902.518 105.592C902.518 104.24 903.584 103.174 905.17 103.174C906.73 103.174 907.796 104.24 907.796 105.592C907.796 106.918 906.73 107.984 905.17 107.984ZM911.304 118.956V113.184H909.536V109.492H911.304V105.956H915.75V109.492H918.662V113.184H915.75V119.008C915.75 119.866 916.114 120.23 917.102 120.23H918.688V124H916.426C913.41 124 911.304 122.726 911.304 118.956ZM927.561 112.846C926.105 112.846 924.987 113.73 924.727 115.342H930.291C930.291 113.756 929.043 112.846 927.561 112.846ZM934.503 119.19C933.801 122.024 931.227 124.208 927.613 124.208C923.349 124.208 920.281 121.348 920.281 116.746C920.281 112.144 923.297 109.284 927.613 109.284C931.851 109.284 934.841 112.092 934.841 116.512C934.841 116.928 934.815 117.37 934.763 117.812H924.701C924.857 119.71 926.027 120.594 927.457 120.594C928.705 120.594 929.407 119.97 929.771 119.19H934.503ZM924.337 105.332L930.603 102.316V105.774L924.337 108.4V105.332Z" fill="#0E0E0E"/>
<path d="M965.674 118.436C965.674 117.136 964.764 116.382 963.282 116.382H960.058V120.412H963.334C964.816 120.412 965.674 119.736 965.674 118.436ZM965.232 111.234C965.232 109.986 964.426 109.31 962.97 109.31H960.058V113.132H962.97C964.426 113.132 965.232 112.482 965.232 111.234ZM970.172 119.034C970.172 122.05 967.962 124 964.114 124H955.612V105.748H963.828C967.546 105.748 969.756 107.594 969.756 110.48C969.756 112.69 968.43 114.12 966.662 114.64C968.794 115.082 970.172 116.954 970.172 119.034ZM979.147 112.846C977.691 112.846 976.573 113.73 976.313 115.342H981.877C981.877 113.756 980.629 112.846 979.147 112.846ZM986.089 119.19C985.387 122.024 982.813 124.208 979.199 124.208C974.935 124.208 971.867 121.348 971.867 116.746C971.867 112.144 974.883 109.284 979.199 109.284C983.437 109.284 986.427 112.092 986.427 116.512C986.427 116.928 986.401 117.37 986.349 117.812H976.287C976.443 119.71 977.613 120.594 979.043 120.594C980.291 120.594 980.993 119.97 981.357 119.19H986.089ZM1000.55 119.788C1000.55 122.31 998.314 124.208 994.674 124.208C990.8 124.208 988.2 122.05 987.992 119.242H992.386C992.49 120.256 993.4 120.932 994.622 120.932C995.766 120.932 996.364 120.412 996.364 119.762C996.364 117.422 988.46 119.112 988.46 113.782C988.46 111.312 990.566 109.284 994.362 109.284C998.106 109.284 1000.19 111.364 1000.47 114.224H996.364C996.234 113.236 995.48 112.586 994.232 112.586C993.192 112.586 992.62 113.002 992.62 113.704C992.62 116.018 1000.47 114.38 1000.55 119.788ZM1003.97 118.956V113.184H1002.2V109.492H1003.97V105.956H1008.42V109.492H1011.33V113.184H1008.42V119.008C1008.42 119.866 1008.78 120.23 1009.77 120.23H1011.36V124H1009.09C1006.08 124 1003.97 122.726 1003.97 118.956ZM1023.79 113.912H1026.21C1027.97 113.912 1028.73 113.028 1028.73 111.624C1028.73 110.22 1027.97 109.336 1026.21 109.336H1023.79V113.912ZM1033.25 111.624C1033.25 114.64 1031.2 117.448 1026.54 117.448H1023.79V124H1019.34V105.748H1026.54C1031.02 105.748 1033.25 108.27 1033.25 111.624ZM1040.01 117.266V124H1035.57V109.492H1040.01V111.91C1041.03 110.376 1042.61 109.336 1044.56 109.336V114.042H1043.34C1041.24 114.042 1040.01 114.77 1040.01 117.266ZM1045.8 116.72C1045.8 112.144 1048.64 109.284 1052.2 109.284C1054.36 109.284 1055.89 110.272 1056.67 111.546V109.492H1061.12V124H1056.67V121.946C1055.87 123.22 1054.33 124.208 1052.17 124.208C1048.64 124.208 1045.8 121.296 1045.8 116.72ZM1056.67 116.746C1056.67 114.432 1055.19 113.158 1053.5 113.158C1051.84 113.158 1050.33 114.406 1050.33 116.72C1050.33 119.034 1051.84 120.334 1053.5 120.334C1055.19 120.334 1056.67 119.06 1056.67 116.746ZM1063.45 116.746C1063.45 112.17 1066.47 109.284 1070.73 109.284C1074.37 109.284 1076.94 111.286 1077.7 114.744H1072.97C1072.6 113.73 1071.87 113.08 1070.65 113.08C1069.07 113.08 1067.97 114.328 1067.97 116.746C1067.97 119.164 1069.07 120.412 1070.65 120.412C1071.87 120.412 1072.58 119.814 1072.97 118.748H1077.7C1076.94 122.102 1074.37 124.208 1070.73 124.208C1066.47 124.208 1063.45 121.348 1063.45 116.746ZM1080.78 118.956V113.184H1079.01V109.492H1080.78V105.956H1085.22V109.492H1088.14V113.184H1085.22V119.008C1085.22 119.866 1085.59 120.23 1086.58 120.23H1088.16V124H1085.9C1082.88 124 1080.78 122.726 1080.78 118.956ZM1090.64 124V109.492H1095.09V124H1090.64ZM1092.88 107.984C1091.29 107.984 1090.22 106.918 1090.22 105.592C1090.22 104.24 1091.29 103.174 1092.88 103.174C1094.44 103.174 1095.5 104.24 1095.5 105.592C1095.5 106.918 1094.44 107.984 1092.88 107.984ZM1097.42 116.746C1097.42 112.17 1100.44 109.284 1104.7 109.284C1108.34 109.284 1110.92 111.286 1111.67 114.744H1106.94C1106.58 113.73 1105.85 113.08 1104.63 113.08C1103.04 113.08 1101.95 114.328 1101.95 116.746C1101.95 119.164 1103.04 120.412 1104.63 120.412C1105.85 120.412 1106.55 119.814 1106.94 118.748H1111.67C1110.92 122.102 1108.34 124.208 1104.7 124.208C1100.44 124.208 1097.42 121.348 1097.42 116.746ZM1120.45 112.846C1118.99 112.846 1117.87 113.73 1117.61 115.342H1123.18C1123.18 113.756 1121.93 112.846 1120.45 112.846ZM1127.39 119.19C1126.69 122.024 1124.11 124.208 1120.5 124.208C1116.23 124.208 1113.17 121.348 1113.17 116.746C1113.17 112.144 1116.18 109.284 1120.5 109.284C1124.74 109.284 1127.73 112.092 1127.73 116.512C1127.73 116.928 1127.7 117.37 1127.65 117.812H1117.59C1117.74 119.71 1118.91 120.594 1120.34 120.594C1121.59 120.594 1122.29 119.97 1122.66 119.19H1127.39ZM1141.85 119.788C1141.85 122.31 1139.61 124.208 1135.97 124.208C1132.1 124.208 1129.5 122.05 1129.29 119.242H1133.68C1133.79 120.256 1134.7 120.932 1135.92 120.932C1137.06 120.932 1137.66 120.412 1137.66 119.762C1137.66 117.422 1129.76 119.112 1129.76 113.782C1129.76 111.312 1131.86 109.284 1135.66 109.284C1139.4 109.284 1141.48 111.364 1141.77 114.224H1137.66C1137.53 113.236 1136.78 112.586 1135.53 112.586C1134.49 112.586 1133.92 113.002 1133.92 113.704C1133.92 116.018 1141.77 114.38 1141.85 119.788Z" fill="#0E0E0E"/>
<path d="M1175.87 118.566C1175.87 121.634 1173.48 124.182 1169.22 124.182C1165.29 124.182 1162.22 122.232 1162.09 118.54H1166.82C1166.95 119.944 1167.84 120.62 1169.09 120.62C1170.39 120.62 1171.22 119.97 1171.22 118.904C1171.22 115.524 1162.09 117.344 1162.14 110.87C1162.14 107.412 1164.98 105.488 1168.8 105.488C1172.78 105.488 1175.46 107.464 1175.64 110.948H1170.83C1170.75 109.778 1169.92 109.076 1168.72 109.05C1167.66 109.024 1166.85 109.57 1166.85 110.714C1166.85 113.886 1175.87 112.456 1175.87 118.566ZM1189.79 105.748V109.31H1183.05V113.002H1189.01V116.434H1183.05V120.438H1189.79V124H1178.61V105.748H1189.79ZM1210.64 114.822C1210.64 120.308 1206.48 124.182 1201.31 124.182C1196.13 124.182 1191.92 120.308 1191.92 114.822C1191.92 109.336 1196.13 105.488 1201.31 105.488C1206.51 105.488 1210.64 109.336 1210.64 114.822ZM1196.47 114.822C1196.47 118.02 1198.34 120.126 1201.31 120.126C1204.22 120.126 1206.12 118.02 1206.12 114.822C1206.12 111.572 1204.22 109.518 1201.31 109.518C1198.34 109.518 1196.47 111.572 1196.47 114.822Z" fill="#0E0E0E"/>
<path d="M571.557 168.9L570.857 172.16L573.877 170.48L574.137 171.16L570.997 172.58L573.617 174.04L573.157 174.7L570.697 173.02L570.257 176.3H569.497L570.197 173.02L567.157 174.72L566.857 174L570.017 172.58L567.417 171.12L567.877 170.48L570.357 172.16L570.797 168.9H571.557ZM574.681 183.5L577.181 169.46H578.081L575.581 183.5H574.681ZM587.281 183.5L588.401 177.2C588.861 174.56 587.661 173.2 585.461 173.2C583.301 173.2 581.501 174.52 580.881 177.32L579.781 183.5H578.881L580.821 172.64H581.721L581.321 174.92C582.241 173.26 583.941 172.42 585.741 172.42C588.161 172.42 589.861 173.88 589.281 177.14L588.161 183.5H587.281ZM591.742 178.06C592.342 174.62 594.922 172.5 597.982 172.5C600.262 172.5 601.702 173.78 602.042 175.48L603.242 168.7H604.122L601.502 183.5H600.622L601.142 180.62C600.242 182.32 598.382 183.66 596.002 183.66C592.962 183.66 591.142 181.48 591.742 178.06ZM601.582 178.06C602.102 175.16 600.502 173.28 597.962 173.28C595.342 173.28 593.182 175.06 592.662 178.06C592.142 181.06 593.642 182.86 596.262 182.86C598.802 182.86 601.062 181 601.582 178.06ZM604.799 183.5L606.739 172.64H607.639L605.699 183.5H604.799ZM607.599 170.22C607.179 170.22 606.899 169.92 606.979 169.44C607.059 168.98 607.459 168.66 607.879 168.66C608.299 168.66 608.599 168.98 608.519 169.44C608.439 169.92 608.019 170.22 607.599 170.22ZM609.398 178.06C610.018 174.6 612.598 172.5 615.638 172.5C618.418 172.5 619.938 174 619.958 176.26H619.018C618.998 174.4 617.618 173.26 615.498 173.26C613.198 173.26 610.898 174.8 610.318 178.06C609.738 181.34 611.498 182.88 613.798 182.88C615.918 182.88 617.678 181.76 618.378 179.88H619.338C618.498 182.1 616.438 183.66 613.658 183.66C610.618 183.66 608.778 181.54 609.398 178.06ZM621.82 178.06C622.42 174.62 625 172.5 628.06 172.5C630.44 172.5 631.8 173.84 632.12 175.48L632.62 172.64H633.52L631.58 183.5H630.7L631.2 180.64C630.32 182.3 628.46 183.66 626.06 183.66C623.04 183.66 621.22 181.48 621.82 178.06ZM631.66 178.06C632.18 175.16 630.58 173.28 628.04 173.28C625.42 173.28 623.26 175.06 622.74 178.06C622.22 181.06 623.72 182.86 626.34 182.86C628.88 182.86 631.14 181 631.66 178.06ZM635.817 180.6L637.097 173.42H635.457L635.597 172.64H637.237L637.717 169.88H638.637L638.157 172.64H641.357L641.217 173.42H638.017L636.737 180.6C636.437 182.24 636.917 182.7 638.377 182.7H639.577L639.437 183.5H638.077C636.217 183.5 635.457 182.74 635.817 180.6ZM648.31 173.26C646.09 173.26 643.81 174.7 643.19 177.7H651.73C652.39 174.66 650.53 173.26 648.31 173.26ZM652.15 179.94C651.33 182.08 649.27 183.66 646.51 183.66C643.47 183.66 641.59 181.54 642.21 178.06C642.83 174.6 645.41 172.5 648.47 172.5C651.73 172.5 653.13 174.82 652.69 177.32C652.61 177.8 652.57 178.04 652.45 178.4H643.07C642.61 181.44 644.41 182.88 646.65 182.88C648.77 182.88 650.53 181.74 651.21 179.94H652.15ZM665.41 172.64L663.49 183.5H662.59L663.01 181.16C662.09 182.84 660.37 183.68 658.59 183.68C656.17 183.68 654.45 182.24 655.01 178.96L656.15 172.64H657.03L655.91 178.9C655.45 181.56 656.67 182.9 658.85 182.9C661.11 182.9 662.97 181.48 663.47 178.46V178.52L664.51 172.64H665.41ZM668.791 177.24L667.671 183.5H666.771L668.711 172.64H669.611L669.191 174.98C670.031 173.36 671.531 172.42 673.651 172.42L673.471 173.36H673.191C671.311 173.36 669.311 174.28 668.791 177.24ZM679.623 183.5L681.563 172.64H682.463L680.523 183.5H679.623ZM682.423 170.22C682.003 170.22 681.723 169.92 681.803 169.44C681.883 168.98 682.283 168.66 682.703 168.66C683.123 168.66 683.423 168.98 683.343 169.44C683.263 169.92 682.843 170.22 682.423 170.22ZM700.002 183.5L701.122 177.2C701.602 174.56 700.462 173.2 698.362 173.2C696.202 173.2 694.362 174.68 693.842 177.72V177.7L692.802 183.5H691.922L693.042 177.2C693.522 174.56 692.382 173.2 690.282 173.2C688.122 173.2 686.282 174.68 685.762 177.72V177.68L684.722 183.5H683.822L685.762 172.64H686.662L686.242 174.96C687.202 173.22 688.842 172.42 690.542 172.42C692.422 172.42 693.842 173.36 694.022 175.44C694.942 173.38 696.762 172.42 698.622 172.42C700.942 172.42 702.582 173.88 702.022 177.14L700.882 183.5H700.002ZM706.396 175.5C707.276 173.84 709.156 172.5 711.516 172.5C714.576 172.5 716.376 174.62 715.776 178.06C715.176 181.48 712.596 183.66 709.556 183.66C707.176 183.66 705.796 182.3 705.476 180.66L704.076 188.62H703.196L706.016 172.64H706.896L706.396 175.5ZM714.856 178.06C715.396 175.06 713.876 173.28 711.256 173.28C708.736 173.28 706.456 175.16 705.936 178.06C705.416 181 707.036 182.86 709.556 182.86C712.176 182.86 714.336 181.06 714.856 178.06ZM717.933 178.06C718.533 174.62 721.113 172.5 724.173 172.5C726.553 172.5 727.913 173.84 728.233 175.48L728.733 172.64H729.633L727.693 183.5H726.813L727.313 180.64C726.433 182.3 724.573 183.66 722.173 183.66C719.153 183.66 717.333 181.48 717.933 178.06ZM727.773 178.06C728.293 175.16 726.693 173.28 724.153 173.28C721.533 173.28 719.373 175.06 718.853 178.06C718.333 181.06 719.833 182.86 722.453 182.86C724.993 182.86 727.253 181 727.773 178.06ZM731.39 178.06C732.01 174.6 734.59 172.5 737.63 172.5C740.41 172.5 741.93 174 741.95 176.26H741.01C740.99 174.4 739.61 173.26 737.49 173.26C735.19 173.26 732.89 174.8 732.31 178.06C731.73 181.34 733.49 182.88 735.79 182.88C737.91 182.88 739.67 181.76 740.37 179.88H741.33C740.49 182.1 738.43 183.66 735.65 183.66C732.61 183.66 730.77 181.54 731.39 178.06ZM744.352 180.6L745.632 173.42H743.992L744.132 172.64H745.772L746.252 169.88H747.172L746.692 172.64H749.892L749.752 173.42H746.552L745.272 180.6C744.972 182.24 745.452 182.7 746.912 182.7H748.112L747.972 183.5H746.612C744.752 183.5 743.992 182.74 744.352 180.6ZM762.705 173.26C760.485 173.26 758.205 174.7 757.585 177.7H766.125C766.785 174.66 764.925 173.26 762.705 173.26ZM766.545 179.94C765.725 182.08 763.665 183.66 760.905 183.66C757.865 183.66 755.985 181.54 756.605 178.06C757.225 174.6 759.805 172.5 762.865 172.5C766.125 172.5 767.525 174.82 767.085 177.32C767.005 177.8 766.965 178.04 766.845 178.4H757.465C757.005 181.44 758.805 182.88 761.045 182.88C763.165 182.88 764.925 181.74 765.605 179.94H766.545ZM777.105 183.5L778.225 177.2C778.685 174.56 777.485 173.2 775.285 173.2C773.125 173.2 771.325 174.52 770.705 177.32L769.605 183.5H768.705L770.645 172.64H771.545L771.145 174.92C772.065 173.26 773.765 172.42 775.565 172.42C777.985 172.42 779.685 173.88 779.105 177.14L777.985 183.5H777.105ZM781.806 172.64H782.766L785.046 182.44L790.746 172.64H791.726L785.306 183.5H784.366L781.806 172.64ZM791.791 183.5L793.731 172.64H794.631L792.691 183.5H791.791ZM794.591 170.22C794.171 170.22 793.891 169.92 793.971 169.44C794.051 168.98 794.451 168.66 794.871 168.66C795.291 168.66 795.591 168.98 795.511 169.44C795.431 169.92 795.011 170.22 794.591 170.22ZM798.01 177.24L796.89 183.5H795.99L797.93 172.64H798.83L798.41 174.98C799.25 173.36 800.75 172.42 802.87 172.42L802.69 173.36H802.41C800.53 173.36 798.53 174.28 798.01 177.24ZM814.222 176.88C814.222 180.6 811.502 183.66 807.782 183.66C805.102 183.66 803.282 182 803.282 179.28C803.282 175.56 805.982 172.5 809.722 172.5C812.382 172.5 814.222 174.14 814.222 176.88ZM804.202 179.22C804.202 181.72 805.902 182.88 807.902 182.88C811.122 182.88 813.302 180.1 813.302 176.92C813.302 174.42 811.582 173.26 809.582 173.26C806.342 173.26 804.202 176.06 804.202 179.22ZM824.273 183.5L825.393 177.2C825.853 174.56 824.653 173.2 822.453 173.2C820.293 173.2 818.493 174.52 817.873 177.32L816.773 183.5H815.873L817.813 172.64H818.713L818.313 174.92C819.233 173.26 820.933 172.42 822.733 172.42C825.153 172.42 826.853 173.88 826.273 177.14L825.153 183.5H824.273ZM836.734 183.5L837.854 177.2C838.314 174.56 837.114 173.2 834.914 173.2C832.754 173.2 830.954 174.52 830.334 177.32L829.234 183.5H828.334L830.274 172.64H831.174L830.774 174.92C831.694 173.26 833.394 172.42 835.194 172.42C837.614 172.42 839.314 173.88 838.734 177.14L837.614 183.5H836.734ZM847.295 173.26C845.075 173.26 842.795 174.7 842.175 177.7H850.715C851.375 174.66 849.515 173.26 847.295 173.26ZM851.135 179.94C850.315 182.08 848.255 183.66 845.495 183.66C842.455 183.66 840.575 181.54 841.195 178.06C841.815 174.6 844.395 172.5 847.455 172.5C850.715 172.5 852.115 174.82 851.675 177.32C851.595 177.8 851.555 178.04 851.435 178.4H842.055C841.595 181.44 843.395 182.88 845.635 182.88C847.755 182.88 849.515 181.74 850.195 179.94H851.135ZM869.475 183.5L870.595 177.2C871.075 174.56 869.935 173.2 867.835 173.2C865.675 173.2 863.835 174.68 863.315 177.72V177.7L862.275 183.5H861.395L862.515 177.2C862.995 174.56 861.855 173.2 859.755 173.2C857.595 173.2 855.755 174.68 855.235 177.72V177.68L854.195 183.5H853.295L855.235 172.64H856.135L855.715 174.96C856.675 173.22 858.315 172.42 860.015 172.42C861.895 172.42 863.315 173.36 863.495 175.44C864.415 173.38 866.235 172.42 868.095 172.42C870.415 172.42 872.055 173.88 871.495 177.14L870.355 183.5H869.475ZM880.049 173.26C877.829 173.26 875.549 174.7 874.929 177.7H883.469C884.129 174.66 882.269 173.26 880.049 173.26ZM883.889 179.94C883.069 182.08 881.009 183.66 878.249 183.66C875.209 183.66 873.329 181.54 873.949 178.06C874.569 174.6 877.149 172.5 880.209 172.5C883.469 172.5 884.869 174.82 884.429 177.32C884.349 177.8 884.309 178.04 884.189 178.4H874.809C874.349 181.44 876.149 182.88 878.389 182.88C880.509 182.88 882.269 181.74 882.949 179.94H883.889ZM894.449 183.5L895.569 177.2C896.029 174.56 894.829 173.2 892.629 173.2C890.469 173.2 888.669 174.52 888.049 177.32L886.949 183.5H886.049L887.989 172.64H888.889L888.489 174.92C889.409 173.26 891.109 172.42 892.909 172.42C895.329 172.42 897.029 173.88 896.449 177.14L895.329 183.5H894.449ZM899.45 180.6L900.73 173.42H899.09L899.23 172.64H900.87L901.35 169.88H902.27L901.79 172.64H904.99L904.85 173.42H901.65L900.37 180.6C900.07 182.24 900.55 182.7 902.01 182.7H903.21L903.07 183.5H901.71C899.85 183.5 899.09 182.74 899.45 180.6ZM905.843 178.06C906.443 174.62 909.023 172.5 912.083 172.5C914.463 172.5 915.823 173.84 916.143 175.48L916.643 172.64H917.543L915.603 183.5H914.723L915.223 180.64C914.343 182.3 912.483 183.66 910.083 183.66C907.063 183.66 905.243 181.48 905.843 178.06ZM915.683 178.06C916.203 175.16 914.603 173.28 912.063 173.28C909.443 173.28 907.283 175.06 906.763 178.06C906.243 181.06 907.743 182.86 910.363 182.86C912.903 182.86 915.163 181 915.683 178.06ZM918.9 183.5L921.52 168.7H922.42L919.8 183.5H918.9ZM935.459 173.26C933.239 173.26 930.959 174.7 930.339 177.7H938.879C939.539 174.66 937.679 173.26 935.459 173.26ZM939.299 179.94C938.479 182.08 936.419 183.66 933.659 183.66C930.619 183.66 928.739 181.54 929.359 178.06C929.979 174.6 932.559 172.5 935.619 172.5C938.879 172.5 940.279 174.82 939.839 177.32C939.759 177.8 939.719 178.04 939.599 178.4H930.219C929.759 181.44 931.559 182.88 933.799 182.88C935.919 182.88 937.679 181.74 938.359 179.94H939.299ZM942.399 180.6L943.679 173.42H942.039L942.179 172.64H943.819L944.299 169.88H945.219L944.739 172.64H947.939L947.799 173.42H944.599L943.319 180.6C943.019 182.24 943.499 182.7 944.959 182.7H946.159L946.019 183.5H944.659C942.799 183.5 942.039 182.74 942.399 180.6ZM956.572 175.5C957.452 173.84 959.332 172.5 961.692 172.5C964.752 172.5 966.552 174.62 965.952 178.06C965.352 181.48 962.772 183.66 959.732 183.66C957.352 183.66 955.972 182.3 955.652 180.66L954.252 188.62H953.372L956.192 172.64H957.072L956.572 175.5ZM965.032 178.06C965.572 175.06 964.052 173.28 961.432 173.28C958.912 173.28 956.632 175.16 956.112 178.06C955.592 181 957.212 182.86 959.732 182.86C962.352 182.86 964.512 181.06 965.032 178.06ZM974.209 173.26C971.989 173.26 969.709 174.7 969.089 177.7H977.629C978.289 174.66 976.429 173.26 974.209 173.26ZM978.049 179.94C977.229 182.08 975.169 183.66 972.409 183.66C969.369 183.66 967.489 181.54 968.109 178.06C968.729 174.6 971.309 172.5 974.369 172.5C977.629 172.5 979.029 174.82 978.589 177.32C978.509 177.8 978.469 178.04 978.349 178.4H968.969C968.509 181.44 970.309 182.88 972.549 182.88C974.669 182.88 976.429 181.74 977.109 179.94H978.049ZM982.229 177.24L981.109 183.5H980.209L982.149 172.64H983.049L982.629 174.98C983.469 173.36 984.969 172.42 987.089 172.42L986.909 173.36H986.629C984.749 173.36 982.749 174.28 982.229 177.24ZM987.621 183.5L989.381 173.44H987.761L987.901 172.64H989.521L989.661 171.88C990.061 169.66 991.261 168.52 993.941 168.52L993.801 169.32C991.681 169.32 990.881 170.12 990.581 171.88L990.441 172.64H993.261L993.121 173.44H990.301L988.521 183.5H987.621ZM1004.89 176.88C1004.89 180.6 1002.17 183.66 998.446 183.66C995.766 183.66 993.946 182 993.946 179.28C993.946 175.56 996.646 172.5 1000.39 172.5C1003.05 172.5 1004.89 174.14 1004.89 176.88ZM994.866 179.22C994.866 181.72 996.566 182.88 998.566 182.88C1001.79 182.88 1003.97 180.1 1003.97 176.92C1003.97 174.42 1002.25 173.26 1000.25 173.26C997.006 173.26 994.866 176.06 994.866 179.22ZM1008.56 177.24L1007.44 183.5H1006.54L1008.48 172.64H1009.38L1008.96 174.98C1009.8 173.36 1011.3 172.42 1013.42 172.42L1013.24 173.36H1012.96C1011.08 173.36 1009.08 174.28 1008.56 177.24ZM1029.71 183.5L1030.83 177.2C1031.31 174.56 1030.17 173.2 1028.07 173.2C1025.91 173.2 1024.07 174.68 1023.55 177.72V177.7L1022.51 183.5H1021.63L1022.75 177.2C1023.23 174.56 1022.09 173.2 1019.99 173.2C1017.83 173.2 1015.99 174.68 1015.47 177.72V177.68L1014.43 183.5H1013.53L1015.47 172.64H1016.37L1015.95 174.96C1016.91 173.22 1018.55 172.42 1020.25 172.42C1022.13 172.42 1023.55 173.36 1023.73 175.44C1024.65 173.38 1026.47 172.42 1028.33 172.42C1030.65 172.42 1032.29 173.88 1031.73 177.14L1030.59 183.5H1029.71ZM1034.18 178.06C1034.78 174.62 1037.36 172.5 1040.42 172.5C1042.8 172.5 1044.16 173.84 1044.48 175.48L1044.98 172.64H1045.88L1043.94 183.5H1043.06L1043.56 180.64C1042.68 182.3 1040.82 183.66 1038.42 183.66C1035.4 183.66 1033.58 181.48 1034.18 178.06ZM1044.02 178.06C1044.54 175.16 1042.94 173.28 1040.4 173.28C1037.78 173.28 1035.62 175.06 1035.1 178.06C1034.58 181.06 1036.08 182.86 1038.7 182.86C1041.24 182.86 1043.5 181 1044.02 178.06ZM1055.64 183.5L1056.76 177.2C1057.22 174.56 1056.02 173.2 1053.82 173.2C1051.66 173.2 1049.86 174.52 1049.24 177.32L1048.14 183.5H1047.24L1049.18 172.64H1050.08L1049.68 174.92C1050.6 173.26 1052.3 172.42 1054.1 172.42C1056.52 172.42 1058.22 173.88 1057.64 177.14L1056.52 183.5H1055.64ZM1060.1 178.06C1060.72 174.6 1063.3 172.5 1066.34 172.5C1069.12 172.5 1070.64 174 1070.66 176.26H1069.72C1069.7 174.4 1068.32 173.26 1066.2 173.26C1063.9 173.26 1061.6 174.8 1061.02 178.06C1060.44 181.34 1062.2 182.88 1064.5 182.88C1066.62 182.88 1068.38 181.76 1069.08 179.88H1070.04C1069.2 182.1 1067.14 183.66 1064.36 183.66C1061.32 183.66 1059.48 181.54 1060.1 178.06ZM1078.62 173.26C1076.4 173.26 1074.12 174.7 1073.5 177.7H1082.04C1082.7 174.66 1080.84 173.26 1078.62 173.26ZM1082.46 179.94C1081.64 182.08 1079.58 183.66 1076.82 183.66C1073.78 183.66 1071.9 181.54 1072.52 178.06C1073.14 174.6 1075.72 172.5 1078.78 172.5C1082.04 172.5 1083.44 174.82 1083 177.32C1082.92 177.8 1082.88 178.04 1082.76 178.4H1073.38C1072.92 181.44 1074.72 182.88 1076.96 182.88C1079.08 182.88 1080.84 181.74 1081.52 179.94H1082.46Z" fill="black"/>
<path d="M469 66L478.5 81.5L500 54" stroke="#00BC84" stroke-width="5" stroke-linecap="round"/>
<path d="M627 66L636.5 81.5L658 54" stroke="#00BC84" stroke-width="5" stroke-linecap="round"/>
<path d="M832 66L841.5 81.5L863 54" stroke="#00BC84" stroke-width="5" stroke-linecap="round"/>
<path d="M1022 66L1031.5 81.5L1053 54" stroke="#00BC84" stroke-width="5" stroke-linecap="round"/>
<path d="M1165 66L1174.5 81.5L1196 54" stroke="#00BC84" stroke-width="5" stroke-linecap="round"/>
</svg>
