<svg width="1280" height="226" viewBox="0 0 1280 226" fill="none" xmlns="http://www.w3.org/2000/svg">
<rect x="0.5" y="0.5" width="1279" height="225" rx="112.5" fill="white"/>
<path d="M503.048 76.1045C502.517 75.6229 501.501 76.7692 500.55 77.6663C499.599 78.5634 497.271 80.0169 492.785 77.4896C491.054 76.5147 484.648 67.4742 482.017 65.8934C481.144 65.3444 480.149 65.0152 479.118 64.9343C479.335 64.9887 479.53 65.1064 479.678 65.2719C480.555 66.2878 479.099 68.8929 476.425 71.0889C473.752 73.2849 470.874 74.2441 469.997 73.2249C469.869 73.0718 469.787 72.8858 469.761 72.6886C469.741 72.7527 469.717 72.8158 469.699 72.88C469.699 72.88 467.39 79.6204 478.487 85.8729C489.583 92.1253 497.314 85.347 498.209 84.6413C499.191 83.8599 505.169 78.0166 503.048 76.1045ZM470.452 71.8251C470.983 72.4425 473.159 71.5096 475.309 69.7438C477.458 67.9779 478.769 66.0449 478.237 65.4317C477.812 64.9416 476.355 65.4317 474.696 66.535C474.415 66.3929 474.168 66.1936 473.97 65.9502C473.773 65.7067 473.63 65.4246 473.551 65.1225C473.464 64.4179 473.567 63.1663 473.439 62.8087C473.437 62.7381 473.412 62.6699 473.366 62.6152C473.128 62.3397 472.376 62.5753 471.685 63.1411C470.995 63.7069 470.628 64.3916 470.866 64.6671C471.176 65.9544 471.766 67.1591 472.596 68.1967C470.925 69.7501 469.987 71.2866 470.452 71.8251Z" fill="#00BC84"/>
<path d="M661.048 76.1045C660.517 75.6229 659.501 76.7692 658.55 77.6663C657.599 78.5634 655.271 80.0169 650.785 77.4896C649.054 76.5147 642.648 67.4742 640.017 65.8934C639.144 65.3444 638.149 65.0152 637.118 64.9343C637.335 64.9887 637.53 65.1064 637.678 65.2719C638.555 66.2878 637.099 68.8929 634.425 71.0889C631.752 73.2849 628.874 74.2441 627.997 73.2249C627.869 73.0718 627.787 72.8858 627.761 72.6886C627.741 72.7527 627.717 72.8158 627.699 72.88C627.699 72.88 625.39 79.6204 636.487 85.8729C647.583 92.1253 655.314 85.347 656.209 84.6413C657.191 83.8599 663.169 78.0166 661.048 76.1045ZM628.452 71.8251C628.983 72.4425 631.159 71.5096 633.309 69.7438C635.458 67.9779 636.769 66.0449 636.237 65.4317C635.812 64.9416 634.355 65.4317 632.696 66.535C632.415 66.3929 632.168 66.1936 631.97 65.9502C631.773 65.7067 631.63 65.4246 631.551 65.1225C631.464 64.4179 631.567 63.1663 631.439 62.8087C631.437 62.7381 631.412 62.6699 631.366 62.6152C631.128 62.3397 630.376 62.5753 629.685 63.1411C628.995 63.7069 628.628 64.3916 628.866 64.6671C629.176 65.9544 629.766 67.1591 630.596 68.1967C628.925 69.7501 627.987 71.2866 628.452 71.8251Z" fill="#00BC84"/>
<path d="M868.048 76.1045C867.517 75.6229 866.501 76.7692 865.55 77.6663C864.599 78.5634 862.271 80.0169 857.785 77.4896C856.054 76.5147 849.648 67.4742 847.017 65.8934C846.144 65.3444 845.149 65.0152 844.118 64.9343C844.335 64.9887 844.53 65.1064 844.678 65.2719C845.555 66.2878 844.099 68.8929 841.425 71.0889C838.752 73.2849 835.874 74.2441 834.997 73.2249C834.869 73.0718 834.787 72.8858 834.761 72.6886C834.741 72.7527 834.717 72.8158 834.699 72.88C834.699 72.88 832.39 79.6204 843.487 85.8729C854.583 92.1253 862.314 85.347 863.209 84.6413C864.191 83.8599 870.169 78.0166 868.048 76.1045ZM835.452 71.8251C835.983 72.4425 838.159 71.5096 840.309 69.7438C842.458 67.9779 843.769 66.0449 843.237 65.4317C842.812 64.9416 841.355 65.4317 839.696 66.535C839.415 66.3929 839.168 66.1936 838.97 65.9502C838.773 65.7067 838.63 65.4246 838.551 65.1225C838.464 64.4179 838.567 63.1663 838.439 62.8087C838.437 62.7381 838.412 62.6699 838.366 62.6152C838.128 62.3397 837.376 62.5753 836.685 63.1411C835.995 63.7069 835.628 64.3916 835.866 64.6671C836.176 65.9544 836.766 67.1591 837.596 68.1967C835.925 69.7501 834.987 71.2866 835.452 71.8251Z" fill="#00BC84"/>
<path d="M1057.05 76.1045C1056.52 75.6229 1055.5 76.7692 1054.55 77.6663C1053.6 78.5634 1051.27 80.0169 1046.78 77.4896C1045.05 76.5147 1038.65 67.4742 1036.02 65.8934C1035.14 65.3444 1034.15 65.0152 1033.12 64.9343C1033.33 64.9887 1033.53 65.1064 1033.68 65.2719C1034.55 66.2878 1033.1 68.8929 1030.43 71.0889C1027.75 73.2849 1024.87 74.2441 1024 73.2249C1023.87 73.0718 1023.79 72.8858 1023.76 72.6886C1023.74 72.7527 1023.72 72.8158 1023.7 72.88C1023.7 72.88 1021.39 79.6204 1032.49 85.8729C1043.58 92.1253 1051.31 85.347 1052.21 84.6413C1053.19 83.8599 1059.17 78.0166 1057.05 76.1045ZM1024.45 71.8251C1024.98 72.4425 1027.16 71.5096 1029.31 69.7438C1031.46 67.9779 1032.77 66.0449 1032.24 65.4317C1031.81 64.9416 1030.36 65.4317 1028.7 66.535C1028.41 66.3929 1028.17 66.1936 1027.97 65.9502C1027.77 65.7067 1027.63 65.4246 1027.55 65.1225C1027.46 64.4179 1027.57 63.1663 1027.44 62.8087C1027.44 62.7381 1027.41 62.6699 1027.37 62.6152C1027.13 62.3397 1026.38 62.5753 1025.69 63.1411C1024.99 63.7069 1024.63 64.3916 1024.87 64.6671C1025.18 65.9544 1025.77 67.1591 1026.6 68.1967C1024.92 69.7501 1023.99 71.2866 1024.45 71.8251Z" fill="#00BC84"/>
<path d="M1200.05 76.1045C1199.52 75.6229 1198.5 76.7692 1197.55 77.6663C1196.6 78.5634 1194.27 80.0169 1189.78 77.4896C1188.05 76.5147 1181.65 67.4742 1179.02 65.8934C1178.14 65.3444 1177.15 65.0152 1176.12 64.9343C1176.33 64.9887 1176.53 65.1064 1176.68 65.2719C1177.55 66.2878 1176.1 68.8929 1173.43 71.0889C1170.75 73.2849 1167.87 74.2441 1167 73.2249C1166.87 73.0718 1166.79 72.8858 1166.76 72.6886C1166.74 72.7527 1166.72 72.8158 1166.7 72.88C1166.7 72.88 1164.39 79.6204 1175.49 85.8729C1186.58 92.1253 1194.31 85.347 1195.21 84.6413C1196.19 83.8599 1202.17 78.0166 1200.05 76.1045ZM1167.45 71.8251C1167.98 72.4425 1170.16 71.5096 1172.31 69.7438C1174.46 67.9779 1175.77 66.0449 1175.24 65.4317C1174.81 64.9416 1173.36 65.4317 1171.7 66.535C1171.41 66.3929 1171.17 66.1936 1170.97 65.9502C1170.77 65.7067 1170.63 65.4246 1170.55 65.1225C1170.46 64.4179 1170.57 63.1663 1170.44 62.8087C1170.44 62.7381 1170.41 62.6699 1170.37 62.6152C1170.13 62.3397 1169.38 62.5753 1168.69 63.1411C1167.99 63.7069 1167.63 64.3916 1167.87 64.6671C1168.18 65.9544 1168.77 67.1591 1169.6 68.1967C1167.92 69.7501 1166.99 71.2866 1167.45 71.8251Z" fill="#00BC84"/>
<g clip-path="url(#clip0_684_4302)">
<path d="M182.946 148.606C181.118 146.939 177.623 150.906 174.35 154.011C171.078 157.115 163.067 162.145 147.631 153.399C141.675 150.025 119.631 118.738 110.578 113.267C107.576 111.367 104.15 110.228 100.604 109.948C101.349 110.136 102.021 110.543 102.531 111.116C105.547 114.632 100.538 123.648 91.339 131.248C82.1398 138.847 72.2351 142.167 69.2187 138.64C68.7772 138.11 68.4957 137.466 68.407 136.784C68.3375 137.006 68.2571 137.224 68.1949 137.446C68.1949 137.446 60.2499 160.773 98.4321 182.412C136.614 204.05 163.217 180.592 166.296 178.149C169.674 175.445 190.244 155.223 182.946 148.606ZM70.7835 133.795C72.6117 135.932 80.0997 132.704 87.4962 126.592C94.8928 120.481 99.4047 113.791 97.5729 111.669C96.1104 109.973 91.0977 111.669 85.3866 115.488C84.4206 114.996 83.5702 114.306 82.8914 113.464C82.2127 112.621 81.721 111.645 81.4488 110.599C81.149 108.161 81.5037 103.829 81.0612 102.592C81.0561 102.347 80.9685 102.111 80.8126 101.922C79.9936 100.969 77.405 101.784 75.0284 103.742C72.6519 105.7 71.3905 108.07 72.2095 109.023C73.2754 113.478 75.307 117.647 78.1618 121.238C72.4106 126.614 69.1857 131.932 70.7835 133.795Z" fill="#00BC84"/>
<path d="M122.55 172.5L120.45 166.3H107.35L105.25 172.5H96.3L109 137.4H118.9L131.6 172.5H122.55ZM118.25 159.7L113.9 146.85L109.6 159.7H118.25Z" fill="white"/>
</g>
<path d="M246.42 129.684C243.732 128.244 241.908 125.844 241.908 122.148C241.908 117.156 245.796 112.74 254.052 112.74C262.308 112.74 266.148 117.156 266.148 122.148C266.148 125.748 264.276 128.292 261.636 129.684C265.044 131.316 267.012 134.244 267.012 138.228C267.012 145.236 261.204 149.172 254.052 149.172C246.9 149.172 241.092 145.236 241.092 138.228C241.092 134.244 243.06 131.268 246.42 129.684ZM254.052 127.476C256.404 127.476 258.18 125.94 258.18 123.396C258.18 120.756 256.5 119.268 254.052 119.268C251.604 119.268 249.924 120.756 249.924 123.444C249.924 125.988 251.7 127.476 254.052 127.476ZM254.052 133.236C251.124 133.236 249.012 134.868 249.012 137.844C249.012 140.484 250.884 142.452 254.052 142.452C257.172 142.452 258.996 140.436 258.996 137.844C258.996 134.964 256.98 133.236 254.052 133.236ZM288.105 148.5V142.26H271.977V135.636L287.145 113.94H296.313V135.156H300.249V142.26H296.313V148.5H288.105ZM280.617 135.156H288.681V122.964L280.617 135.156ZM313.773 144.468C313.773 146.916 311.805 148.884 308.925 148.884C305.997 148.884 304.029 146.916 304.029 144.468C304.029 141.924 305.997 139.956 308.925 139.956C311.805 139.956 313.773 141.924 313.773 144.468ZM342.776 122.916H335.144C334.664 120.612 333.512 119.364 331.064 119.364C327.368 119.364 325.928 122.484 325.88 129.252C327.272 126.996 330.104 125.652 333.32 125.652C339.416 125.652 343.736 129.636 343.736 136.932C343.736 143.892 339.32 148.692 331.784 148.692C321.224 148.692 318.632 141.204 318.632 130.74C318.632 118.74 322.376 112.74 331.448 112.74C338.984 112.74 342.344 117.732 342.776 122.916ZM331.352 132.132C328.76 132.132 326.552 133.668 326.552 136.836C326.552 139.908 328.328 141.732 331.448 141.732C334.232 141.732 336.008 139.956 336.008 136.98C336.008 134.052 334.424 132.132 331.352 132.132ZM253.572 179.732C253.572 182.612 251.044 184.788 247.172 184.788C243.076 184.788 240.196 182.548 240.004 179.348H243.012C243.172 181.044 244.676 182.324 247.14 182.324C249.444 182.324 250.724 181.172 250.724 179.732C250.724 175.828 240.356 178.1 240.356 171.572C240.356 168.884 242.884 166.676 246.788 166.676C250.66 166.676 253.22 168.756 253.412 172.18H250.5C250.372 170.42 249.028 169.14 246.692 169.14C244.548 169.14 243.268 170.164 243.268 171.572C243.268 175.732 253.444 173.46 253.572 179.732ZM273.235 166.964V184.5H270.323V181.908C269.203 183.732 267.059 184.756 264.723 184.756C260.691 184.756 257.523 182.26 257.523 177.236V166.964H260.403V176.852C260.403 180.404 262.355 182.228 265.299 182.228C268.307 182.228 270.323 180.372 270.323 176.596V166.964H273.235ZM281.064 174.964V184.5H278.152V166.964H281.064V169.812C282.056 167.86 283.944 166.644 286.728 166.644V169.652H285.96C283.176 169.652 281.064 170.9 281.064 174.964ZM300.444 184.5V164.02H297.372V161.364H303.388V184.5H300.444ZM308.39 172.692C308.39 166.068 310.054 161.012 316.454 161.012C322.822 161.012 324.486 166.068 324.486 172.692C324.486 179.412 322.822 184.5 316.454 184.5C310.054 184.5 308.39 179.412 308.39 172.692ZM321.606 172.692C321.606 167.892 320.998 163.668 316.454 163.668C311.878 163.668 311.27 167.892 311.27 172.692C311.27 177.684 311.878 181.844 316.454 181.844C320.998 181.844 321.606 177.684 321.606 172.692ZM328.484 172.692C328.484 166.068 330.148 161.012 336.548 161.012C342.916 161.012 344.58 166.068 344.58 172.692C344.58 179.412 342.916 184.5 336.548 184.5C330.148 184.5 328.484 179.412 328.484 172.692ZM341.7 172.692C341.7 167.892 341.092 163.668 336.548 163.668C331.972 163.668 331.364 167.892 331.364 172.692C331.364 177.684 331.972 181.844 336.548 181.844C341.092 181.844 341.7 177.684 341.7 172.692Z" fill="#0E0E0E"/>
<path d="M76.82 50.98H80.54C83.26 50.98 84.42 49.62 84.42 47.46C84.42 45.3 83.26 43.94 80.54 43.94H76.82V50.98ZM91.38 47.46C91.38 52.1 88.22 56.42 81.06 56.42H76.82V66.5H69.98V38.42H81.06C87.94 38.42 91.38 42.3 91.38 47.46ZM104.781 49.34C102.541 49.34 100.821 50.7 100.421 53.18H108.981C108.981 50.74 107.061 49.34 104.781 49.34ZM115.461 59.1C114.381 63.46 110.421 66.82 104.861 66.82C98.3009 66.82 93.5809 62.42 93.5809 55.34C93.5809 48.26 98.2209 43.86 104.861 43.86C111.381 43.86 115.981 48.18 115.981 54.98C115.981 55.62 115.941 56.3 115.861 56.98H100.381C100.621 59.9 102.421 61.26 104.621 61.26C106.541 61.26 107.621 60.3 108.181 59.1H115.461ZM126.429 47.34C127.669 45.38 130.029 43.86 133.309 43.86C138.789 43.86 143.149 48.26 143.149 55.3C143.149 62.34 138.789 66.82 133.309 66.82C130.029 66.82 127.669 65.26 126.429 63.38V77.14H119.589V44.18H126.429V47.34ZM136.189 55.3C136.189 51.74 133.869 49.82 131.269 49.82C128.709 49.82 126.389 51.78 126.389 55.34C126.389 58.9 128.709 60.86 131.269 60.86C133.869 60.86 136.189 58.86 136.189 55.3ZM153.578 47.34C154.818 45.38 157.178 43.86 160.458 43.86C165.938 43.86 170.298 48.26 170.298 55.3C170.298 62.34 165.938 66.82 160.458 66.82C157.178 66.82 154.818 65.26 153.578 63.38V77.14H146.738V44.18H153.578V47.34ZM163.338 55.3C163.338 51.74 161.018 49.82 158.418 49.82C155.858 49.82 153.538 51.78 153.538 55.34C153.538 58.9 155.858 60.86 158.418 60.86C161.018 60.86 163.338 58.86 163.338 55.3ZM183.726 49.34C181.486 49.34 179.766 50.7 179.366 53.18H187.926C187.926 50.74 186.006 49.34 183.726 49.34ZM194.406 59.1C193.326 63.46 189.366 66.82 183.806 66.82C177.246 66.82 172.526 62.42 172.526 55.34C172.526 48.26 177.166 43.86 183.806 43.86C190.326 43.86 194.926 48.18 194.926 54.98C194.926 55.62 194.886 56.3 194.806 56.98H179.326C179.566 59.9 181.366 61.26 183.566 61.26C185.486 61.26 186.566 60.3 187.126 59.1H194.406ZM205.375 56.14V66.5H198.535V44.18H205.375V47.9C206.935 45.54 209.375 43.94 212.375 43.94V51.18H210.495C207.255 51.18 205.375 52.3 205.375 56.14ZM224.721 66.5V38.62H228.361V66.5H224.721ZM250.604 66.5V54.1C250.604 49.62 248.164 47.34 244.484 47.34C240.764 47.34 238.204 49.66 238.204 54.38V66.5H234.564V44.58H238.204V47.7C239.644 45.42 242.284 44.18 245.244 44.18C250.324 44.18 254.204 47.3 254.204 53.58V66.5H250.604ZM258.79 55.46C258.79 48.62 263.31 44.22 269.23 44.22C272.67 44.22 275.83 45.98 277.35 48.5V36.9H281.03V66.5H277.35V62.38C276.03 64.82 273.19 66.86 269.19 66.86C263.31 66.86 258.79 62.26 258.79 55.46ZM277.35 55.5C277.35 50.42 273.91 47.38 269.91 47.38C265.91 47.38 262.51 50.3 262.51 55.46C262.51 60.62 265.91 63.66 269.91 63.66C273.91 63.66 277.35 60.66 277.35 55.5ZM296.502 47.3C292.942 47.3 289.982 49.66 289.582 53.94H303.422C303.462 49.66 300.262 47.3 296.502 47.3ZM306.742 59.74C305.622 63.74 302.102 66.86 296.662 66.86C290.422 66.86 285.822 62.46 285.822 55.5C285.822 48.58 290.262 44.22 296.662 44.22C303.022 44.22 307.182 48.7 307.182 54.7C307.182 55.5 307.142 56.14 307.062 56.9H289.542C289.822 61.34 292.942 63.78 296.662 63.78C299.942 63.78 302.022 62.1 302.822 59.74H306.742ZM323.426 66.5L318.226 58.34L313.226 66.5H309.426L316.506 55.62L309.426 44.58H313.546L318.746 52.7L323.706 44.58H327.506L320.466 55.42L327.546 66.5H323.426ZM339.327 37.14L338.647 43.22L343.527 39.7L344.967 42.3L339.407 44.62L345.007 46.9L343.487 49.58L338.647 46.06L339.287 52.1H336.287L336.887 46.06L332.047 49.62L330.487 46.9L336.047 44.58L330.487 42.34L331.967 39.66L336.927 43.22L336.287 37.14H339.327Z" fill="#0E0E0E"/>
<path d="M387.5 40.5V185.5" stroke="black"/>
<path d="M440.292 103.748V107.31H433.558V111.002H439.512V114.434H433.558V118.438H440.292V122H429.112V103.748H440.292ZM442.294 114.746C442.294 110.17 445.31 107.284 449.574 107.284C453.214 107.284 455.788 109.286 456.542 112.744H451.81C451.446 111.73 450.718 111.08 449.496 111.08C447.91 111.08 446.818 112.328 446.818 114.746C446.818 117.164 447.91 118.412 449.496 118.412C450.718 118.412 451.42 117.814 451.81 116.748H456.542C455.788 120.102 453.214 122.208 449.574 122.208C445.31 122.208 442.294 119.348 442.294 114.746ZM473.117 114.746C473.117 119.348 469.789 122.208 465.525 122.208C461.261 122.208 458.037 119.348 458.037 114.746C458.037 110.144 461.339 107.284 465.577 107.284C469.841 107.284 473.117 110.144 473.117 114.746ZM462.561 114.746C462.561 117.19 463.913 118.36 465.525 118.36C467.111 118.36 468.593 117.19 468.593 114.746C468.593 112.276 467.137 111.132 465.577 111.132C463.965 111.132 462.561 112.276 462.561 114.746ZM475.475 122V102.76H479.921V122H475.475ZM497.339 114.746C497.339 119.348 494.011 122.208 489.747 122.208C485.483 122.208 482.259 119.348 482.259 114.746C482.259 110.144 485.561 107.284 489.799 107.284C494.063 107.284 497.339 110.144 497.339 114.746ZM486.783 114.746C486.783 117.19 488.135 118.36 489.747 118.36C491.333 118.36 492.815 117.19 492.815 114.746C492.815 112.276 491.359 111.132 489.799 111.132C488.187 111.132 486.783 112.276 486.783 114.746ZM498.814 114.72C498.814 110.144 501.648 107.284 505.21 107.284C507.342 107.284 508.902 108.246 509.682 109.546V107.492H514.128V121.974C514.128 125.848 511.892 129.15 506.874 129.15C502.558 129.15 499.75 126.966 499.36 123.508H503.754C504.04 124.6 505.132 125.302 506.666 125.302C508.356 125.302 509.682 124.418 509.682 121.974V119.92C508.876 121.194 507.342 122.208 505.21 122.208C501.648 122.208 498.814 119.296 498.814 114.72ZM509.682 114.746C509.682 112.432 508.2 111.158 506.51 111.158C504.846 111.158 503.338 112.406 503.338 114.72C503.338 117.034 504.846 118.334 506.51 118.334C508.2 118.334 509.682 117.06 509.682 114.746ZM517.344 122V107.492H521.79V122H517.344ZM519.58 105.984C517.994 105.984 516.928 104.918 516.928 103.592C516.928 102.24 517.994 101.174 519.58 101.174C521.14 101.174 522.206 102.24 522.206 103.592C522.206 104.918 521.14 105.984 519.58 105.984ZM531.408 110.846C529.952 110.846 528.834 111.73 528.574 113.342H534.138C534.138 111.756 532.89 110.846 531.408 110.846ZM538.35 117.19C537.648 120.024 535.074 122.208 531.46 122.208C527.196 122.208 524.128 119.348 524.128 114.746C524.128 110.144 527.144 107.284 531.46 107.284C535.698 107.284 538.688 110.092 538.688 114.512C538.688 114.928 538.662 115.37 538.61 115.812H528.548C528.704 117.71 529.874 118.594 531.304 118.594C532.552 118.594 533.254 117.97 533.618 117.19H538.35Z" fill="#0E0E0E"/>
<path d="M563.558 111.912H565.976C567.744 111.912 568.498 111.028 568.498 109.624C568.498 108.22 567.744 107.336 565.976 107.336H563.558V111.912ZM573.022 109.624C573.022 112.64 570.968 115.448 566.314 115.448H563.558V122H559.112V103.748H566.314C570.786 103.748 573.022 106.27 573.022 109.624ZM581.733 110.846C580.277 110.846 579.159 111.73 578.899 113.342H584.463C584.463 111.756 583.215 110.846 581.733 110.846ZM588.675 117.19C587.973 120.024 585.399 122.208 581.785 122.208C577.521 122.208 574.453 119.348 574.453 114.746C574.453 110.144 577.469 107.284 581.785 107.284C586.023 107.284 589.013 110.092 589.013 114.512C589.013 114.928 588.987 115.37 588.935 115.812H578.873C579.029 117.71 580.199 118.594 581.629 118.594C582.877 118.594 583.579 117.97 583.943 117.19H588.675ZM595.804 115.266V122H591.358V107.492H595.804V109.91C596.818 108.376 598.404 107.336 600.354 107.336V112.042H599.132C597.026 112.042 595.804 112.77 595.804 115.266ZM602.921 122V111.184H601.309V107.492H602.921V107.076C602.921 103.28 605.261 101.408 609.681 101.642V105.412C607.965 105.308 607.367 105.828 607.367 107.362V107.492H609.759V111.184H607.367V122H602.921ZM626.044 114.746C626.044 119.348 622.716 122.208 618.452 122.208C614.188 122.208 610.964 119.348 610.964 114.746C610.964 110.144 614.266 107.284 618.504 107.284C622.768 107.284 626.044 110.144 626.044 114.746ZM615.488 114.746C615.488 117.19 616.84 118.36 618.452 118.36C620.038 118.36 621.52 117.19 621.52 114.746C621.52 112.276 620.064 111.132 618.504 111.132C616.892 111.132 615.488 112.276 615.488 114.746ZM632.849 115.266V122H628.403V107.492H632.849V109.91C633.863 108.376 635.449 107.336 637.399 107.336V112.042H636.177C634.071 112.042 632.849 112.77 632.849 115.266ZM659.518 122V114.122C659.518 112.224 658.426 111.184 656.736 111.184C655.046 111.184 653.954 112.224 653.954 114.122V122H649.534V114.122C649.534 112.224 648.442 111.184 646.752 111.184C645.062 111.184 643.97 112.224 643.97 114.122V122H639.524V107.492H643.97V109.312C644.828 108.142 646.31 107.336 648.208 107.336C650.392 107.336 652.16 108.298 653.148 110.04C654.11 108.506 655.93 107.336 658.036 107.336C661.624 107.336 663.938 109.624 663.938 113.524V122H659.518ZM666.164 114.72C666.164 110.144 668.998 107.284 672.56 107.284C674.718 107.284 676.252 108.272 677.032 109.546V107.492H681.478V122H677.032V119.946C676.226 121.22 674.692 122.208 672.534 122.208C668.998 122.208 666.164 119.296 666.164 114.72ZM677.032 114.746C677.032 112.432 675.55 111.158 673.86 111.158C672.196 111.158 670.688 112.406 670.688 114.72C670.688 117.034 672.196 118.334 673.86 118.334C675.55 118.334 677.032 117.06 677.032 114.746ZM694.704 122V114.122C694.704 112.146 693.612 111.054 691.922 111.054C690.232 111.054 689.14 112.146 689.14 114.122V122H684.694V107.492H689.14V109.416C690.024 108.194 691.584 107.336 693.534 107.336C696.888 107.336 699.124 109.624 699.124 113.524V122H694.704ZM701.33 114.746C701.33 110.17 704.346 107.284 708.61 107.284C712.25 107.284 714.824 109.286 715.578 112.744H710.846C710.482 111.73 709.754 111.08 708.532 111.08C706.946 111.08 705.854 112.328 705.854 114.746C705.854 117.164 706.946 118.412 708.532 118.412C709.754 118.412 710.456 117.814 710.846 116.748H715.578C714.824 120.102 712.25 122.208 708.61 122.208C704.346 122.208 701.33 119.348 701.33 114.746ZM724.352 110.846C722.896 110.846 721.778 111.73 721.518 113.342H727.082C727.082 111.756 725.834 110.846 724.352 110.846ZM731.294 117.19C730.592 120.024 728.018 122.208 724.404 122.208C720.14 122.208 717.072 119.348 717.072 114.746C717.072 110.144 720.088 107.284 724.404 107.284C728.642 107.284 731.632 110.092 731.632 114.512C731.632 114.928 731.606 115.37 731.554 115.812H721.492C721.648 117.71 722.818 118.594 724.248 118.594C725.496 118.594 726.198 117.97 726.562 117.19H731.294ZM745.755 117.788C745.755 120.31 743.519 122.208 739.879 122.208C736.005 122.208 733.405 120.05 733.197 117.242H737.591C737.695 118.256 738.605 118.932 739.827 118.932C740.971 118.932 741.569 118.412 741.569 117.762C741.569 115.422 733.665 117.112 733.665 111.782C733.665 109.312 735.771 107.284 739.567 107.284C743.311 107.284 745.391 109.364 745.677 112.224H741.569C741.439 111.236 740.685 110.586 739.437 110.586C738.397 110.586 737.825 111.002 737.825 111.704C737.825 114.018 745.677 112.38 745.755 117.788Z" fill="#0E0E0E"/>
<path d="M779.566 122L778.474 118.776H771.662L770.57 122H765.916L772.52 103.748H777.668L784.272 122H779.566ZM777.33 115.344L775.068 108.662L772.832 115.344H777.33ZM785.398 114.746C785.398 110.17 788.414 107.284 792.678 107.284C796.318 107.284 798.892 109.286 799.646 112.744H794.914C794.55 111.73 793.822 111.08 792.6 111.08C791.014 111.08 789.922 112.328 789.922 114.746C789.922 117.164 791.014 118.412 792.6 118.412C793.822 118.412 794.524 117.814 794.914 116.748H799.646C798.892 120.102 796.318 122.208 792.678 122.208C788.414 122.208 785.398 119.348 785.398 114.746ZM801.14 114.746C801.14 110.17 804.156 107.284 808.42 107.284C812.06 107.284 814.634 109.286 815.388 112.744H810.656C810.292 111.73 809.564 111.08 808.342 111.08C806.756 111.08 805.664 112.328 805.664 114.746C805.664 117.164 806.756 118.412 808.342 118.412C809.564 118.412 810.266 117.814 810.656 116.748H815.388C814.634 120.102 812.06 122.208 808.42 122.208C804.156 122.208 801.14 119.348 801.14 114.746ZM824.162 110.846C822.706 110.846 821.588 111.73 821.328 113.342H826.892C826.892 111.756 825.644 110.846 824.162 110.846ZM831.104 117.19C830.402 120.024 827.828 122.208 824.214 122.208C819.95 122.208 816.882 119.348 816.882 114.746C816.882 110.144 819.898 107.284 824.214 107.284C828.452 107.284 831.442 110.092 831.442 114.512C831.442 114.928 831.416 115.37 831.364 115.812H821.302C821.458 117.71 822.628 118.594 824.058 118.594C825.306 118.594 826.008 117.97 826.372 117.19H831.104ZM845.566 117.788C845.566 120.31 843.33 122.208 839.69 122.208C835.816 122.208 833.216 120.05 833.008 117.242H837.402C837.506 118.256 838.416 118.932 839.638 118.932C840.782 118.932 841.38 118.412 841.38 117.762C841.38 115.422 833.476 117.112 833.476 111.782C833.476 109.312 835.582 107.284 839.378 107.284C843.122 107.284 845.202 109.364 845.488 112.224H841.38C841.25 111.236 840.496 110.586 839.248 110.586C838.208 110.586 837.636 111.002 837.636 111.704C837.636 114.018 845.488 112.38 845.566 117.788ZM860.064 117.788C860.064 120.31 857.828 122.208 854.188 122.208C850.314 122.208 847.714 120.05 847.506 117.242H851.9C852.004 118.256 852.914 118.932 854.136 118.932C855.28 118.932 855.878 118.412 855.878 117.762C855.878 115.422 847.974 117.112 847.974 111.782C847.974 109.312 850.08 107.284 853.876 107.284C857.62 107.284 859.7 109.364 859.986 112.224H855.878C855.748 111.236 854.994 110.586 853.746 110.586C852.706 110.586 852.134 111.002 852.134 111.704C852.134 114.018 859.986 112.38 860.064 117.788ZM862.784 122V107.492H867.23V122H862.784ZM865.02 105.984C863.434 105.984 862.368 104.918 862.368 103.592C862.368 102.24 863.434 101.174 865.02 101.174C866.58 101.174 867.646 102.24 867.646 103.592C867.646 104.918 866.58 105.984 865.02 105.984ZM874.898 109.546C875.704 108.246 877.29 107.284 879.37 107.284C882.958 107.284 885.766 110.144 885.766 114.72C885.766 119.296 882.932 122.208 879.37 122.208C877.238 122.208 875.704 121.246 874.898 119.972V122H870.452V102.76H874.898V109.546ZM881.242 114.72C881.242 112.406 879.734 111.158 878.044 111.158C876.38 111.158 874.872 112.432 874.872 114.746C874.872 117.06 876.38 118.334 878.044 118.334C879.734 118.334 881.242 117.034 881.242 114.72ZM888.098 122V107.492H892.544V122H888.098ZM890.334 105.984C888.748 105.984 887.682 104.918 887.682 103.592C887.682 102.24 888.748 101.174 890.334 101.174C891.894 101.174 892.96 102.24 892.96 103.592C892.96 104.918 891.894 105.984 890.334 105.984ZM895.766 122V102.76H900.212V122H895.766ZM903.434 122V107.492H907.88V122H903.434ZM905.67 105.984C904.084 105.984 903.018 104.918 903.018 103.592C903.018 102.24 904.084 101.174 905.67 101.174C907.23 101.174 908.296 102.24 908.296 103.592C908.296 104.918 907.23 105.984 905.67 105.984ZM911.804 116.956V111.184H910.036V107.492H911.804V103.956H916.25V107.492H919.162V111.184H916.25V117.008C916.25 117.866 916.614 118.23 917.602 118.23H919.188V122H916.926C913.91 122 911.804 120.726 911.804 116.956ZM928.061 110.846C926.605 110.846 925.487 111.73 925.227 113.342H930.791C930.791 111.756 929.543 110.846 928.061 110.846ZM935.003 117.19C934.301 120.024 931.727 122.208 928.113 122.208C923.849 122.208 920.781 119.348 920.781 114.746C920.781 110.144 923.797 107.284 928.113 107.284C932.351 107.284 935.341 110.092 935.341 114.512C935.341 114.928 935.315 115.37 935.263 115.812H925.201C925.357 117.71 926.527 118.594 927.957 118.594C929.205 118.594 929.907 117.97 930.271 117.19H935.003ZM924.837 103.332L931.103 100.316V103.774L924.837 106.4V103.332Z" fill="#0E0E0E"/>
<path d="M966.174 116.436C966.174 115.136 965.264 114.382 963.782 114.382H960.558V118.412H963.834C965.316 118.412 966.174 117.736 966.174 116.436ZM965.732 109.234C965.732 107.986 964.926 107.31 963.47 107.31H960.558V111.132H963.47C964.926 111.132 965.732 110.482 965.732 109.234ZM970.672 117.034C970.672 120.05 968.462 122 964.614 122H956.112V103.748H964.328C968.046 103.748 970.256 105.594 970.256 108.48C970.256 110.69 968.93 112.12 967.162 112.64C969.294 113.082 970.672 114.954 970.672 117.034ZM979.647 110.846C978.191 110.846 977.073 111.73 976.813 113.342H982.377C982.377 111.756 981.129 110.846 979.647 110.846ZM986.589 117.19C985.887 120.024 983.313 122.208 979.699 122.208C975.435 122.208 972.367 119.348 972.367 114.746C972.367 110.144 975.383 107.284 979.699 107.284C983.937 107.284 986.927 110.092 986.927 114.512C986.927 114.928 986.901 115.37 986.849 115.812H976.787C976.943 117.71 978.113 118.594 979.543 118.594C980.791 118.594 981.493 117.97 981.857 117.19H986.589ZM1001.05 117.788C1001.05 120.31 998.814 122.208 995.174 122.208C991.3 122.208 988.7 120.05 988.492 117.242H992.886C992.99 118.256 993.9 118.932 995.122 118.932C996.266 118.932 996.864 118.412 996.864 117.762C996.864 115.422 988.96 117.112 988.96 111.782C988.96 109.312 991.066 107.284 994.862 107.284C998.606 107.284 1000.69 109.364 1000.97 112.224H996.864C996.734 111.236 995.98 110.586 994.732 110.586C993.692 110.586 993.12 111.002 993.12 111.704C993.12 114.018 1000.97 112.38 1001.05 117.788ZM1004.47 116.956V111.184H1002.7V107.492H1004.47V103.956H1008.92V107.492H1011.83V111.184H1008.92V117.008C1008.92 117.866 1009.28 118.23 1010.27 118.23H1011.86V122H1009.59C1006.58 122 1004.47 120.726 1004.47 116.956ZM1024.29 111.912H1026.71C1028.47 111.912 1029.23 111.028 1029.23 109.624C1029.23 108.22 1028.47 107.336 1026.71 107.336H1024.29V111.912ZM1033.75 109.624C1033.75 112.64 1031.7 115.448 1027.04 115.448H1024.29V122H1019.84V103.748H1027.04C1031.52 103.748 1033.75 106.27 1033.75 109.624ZM1040.51 115.266V122H1036.07V107.492H1040.51V109.91C1041.53 108.376 1043.11 107.336 1045.06 107.336V112.042H1043.84C1041.74 112.042 1040.51 112.77 1040.51 115.266ZM1046.3 114.72C1046.3 110.144 1049.14 107.284 1052.7 107.284C1054.86 107.284 1056.39 108.272 1057.17 109.546V107.492H1061.62V122H1057.17V119.946C1056.37 121.22 1054.83 122.208 1052.67 122.208C1049.14 122.208 1046.3 119.296 1046.3 114.72ZM1057.17 114.746C1057.17 112.432 1055.69 111.158 1054 111.158C1052.34 111.158 1050.83 112.406 1050.83 114.72C1050.83 117.034 1052.34 118.334 1054 118.334C1055.69 118.334 1057.17 117.06 1057.17 114.746ZM1063.95 114.746C1063.95 110.17 1066.97 107.284 1071.23 107.284C1074.87 107.284 1077.44 109.286 1078.2 112.744H1073.47C1073.1 111.73 1072.37 111.08 1071.15 111.08C1069.57 111.08 1068.47 112.328 1068.47 114.746C1068.47 117.164 1069.57 118.412 1071.15 118.412C1072.37 118.412 1073.08 117.814 1073.47 116.748H1078.2C1077.44 120.102 1074.87 122.208 1071.23 122.208C1066.97 122.208 1063.95 119.348 1063.95 114.746ZM1081.28 116.956V111.184H1079.51V107.492H1081.28V103.956H1085.72V107.492H1088.64V111.184H1085.72V117.008C1085.72 117.866 1086.09 118.23 1087.08 118.23H1088.66V122H1086.4C1083.38 122 1081.28 120.726 1081.28 116.956ZM1091.14 122V107.492H1095.59V122H1091.14ZM1093.38 105.984C1091.79 105.984 1090.72 104.918 1090.72 103.592C1090.72 102.24 1091.79 101.174 1093.38 101.174C1094.94 101.174 1096 102.24 1096 103.592C1096 104.918 1094.94 105.984 1093.38 105.984ZM1097.92 114.746C1097.92 110.17 1100.94 107.284 1105.2 107.284C1108.84 107.284 1111.42 109.286 1112.17 112.744H1107.44C1107.08 111.73 1106.35 111.08 1105.13 111.08C1103.54 111.08 1102.45 112.328 1102.45 114.746C1102.45 117.164 1103.54 118.412 1105.13 118.412C1106.35 118.412 1107.05 117.814 1107.44 116.748H1112.17C1111.42 120.102 1108.84 122.208 1105.2 122.208C1100.94 122.208 1097.92 119.348 1097.92 114.746ZM1120.95 110.846C1119.49 110.846 1118.37 111.73 1118.11 113.342H1123.68C1123.68 111.756 1122.43 110.846 1120.95 110.846ZM1127.89 117.19C1127.19 120.024 1124.61 122.208 1121 122.208C1116.73 122.208 1113.67 119.348 1113.67 114.746C1113.67 110.144 1116.68 107.284 1121 107.284C1125.24 107.284 1128.23 110.092 1128.23 114.512C1128.23 114.928 1128.2 115.37 1128.15 115.812H1118.09C1118.24 117.71 1119.41 118.594 1120.84 118.594C1122.09 118.594 1122.79 117.97 1123.16 117.19H1127.89ZM1142.35 117.788C1142.35 120.31 1140.11 122.208 1136.47 122.208C1132.6 122.208 1130 120.05 1129.79 117.242H1134.18C1134.29 118.256 1135.2 118.932 1136.42 118.932C1137.56 118.932 1138.16 118.412 1138.16 117.762C1138.16 115.422 1130.26 117.112 1130.26 111.782C1130.26 109.312 1132.36 107.284 1136.16 107.284C1139.9 107.284 1141.98 109.364 1142.27 112.224H1138.16C1138.03 111.236 1137.28 110.586 1136.03 110.586C1134.99 110.586 1134.42 111.002 1134.42 111.704C1134.42 114.018 1142.27 112.38 1142.35 117.788Z" fill="#0E0E0E"/>
<path d="M1176.37 116.566C1176.37 119.634 1173.98 122.182 1169.72 122.182C1165.79 122.182 1162.72 120.232 1162.59 116.54H1167.32C1167.45 117.944 1168.34 118.62 1169.59 118.62C1170.89 118.62 1171.72 117.97 1171.72 116.904C1171.72 113.524 1162.59 115.344 1162.64 108.87C1162.64 105.412 1165.48 103.488 1169.3 103.488C1173.28 103.488 1175.96 105.464 1176.14 108.948H1171.33C1171.25 107.778 1170.42 107.076 1169.22 107.05C1168.16 107.024 1167.35 107.57 1167.35 108.714C1167.35 111.886 1176.37 110.456 1176.37 116.566ZM1190.29 103.748V107.31H1183.55V111.002H1189.51V114.434H1183.55V118.438H1190.29V122H1179.11V103.748H1190.29ZM1211.14 112.822C1211.14 118.308 1206.98 122.182 1201.81 122.182C1196.63 122.182 1192.42 118.308 1192.42 112.822C1192.42 107.336 1196.63 103.488 1201.81 103.488C1207.01 103.488 1211.14 107.336 1211.14 112.822ZM1196.97 112.822C1196.97 116.02 1198.84 118.126 1201.81 118.126C1204.72 118.126 1206.62 116.02 1206.62 112.822C1206.62 109.572 1204.72 107.518 1201.81 107.518C1198.84 107.518 1196.97 109.572 1196.97 112.822Z" fill="#0E0E0E"/>
<path d="M572.057 169.4L571.357 172.66L574.377 170.98L574.637 171.66L571.497 173.08L574.117 174.54L573.657 175.2L571.197 173.52L570.757 176.8H569.997L570.697 173.52L567.657 175.22L567.357 174.5L570.517 173.08L567.917 171.62L568.377 170.98L570.857 172.66L571.297 169.4H572.057ZM575.181 184L577.681 169.96H578.581L576.081 184H575.181ZM587.781 184L588.901 177.7C589.361 175.06 588.161 173.7 585.961 173.7C583.801 173.7 582.001 175.02 581.381 177.82L580.281 184H579.381L581.321 173.14H582.221L581.821 175.42C582.741 173.76 584.441 172.92 586.241 172.92C588.661 172.92 590.361 174.38 589.781 177.64L588.661 184H587.781ZM592.242 178.56C592.842 175.12 595.422 173 598.482 173C600.762 173 602.202 174.28 602.542 175.98L603.742 169.2H604.622L602.002 184H601.122L601.642 181.12C600.742 182.82 598.882 184.16 596.502 184.16C593.462 184.16 591.642 181.98 592.242 178.56ZM602.082 178.56C602.602 175.66 601.002 173.78 598.462 173.78C595.842 173.78 593.682 175.56 593.162 178.56C592.642 181.56 594.142 183.36 596.762 183.36C599.302 183.36 601.562 181.5 602.082 178.56ZM605.299 184L607.239 173.14H608.139L606.199 184H605.299ZM608.099 170.72C607.679 170.72 607.399 170.42 607.479 169.94C607.559 169.48 607.959 169.16 608.379 169.16C608.799 169.16 609.099 169.48 609.019 169.94C608.939 170.42 608.519 170.72 608.099 170.72ZM609.898 178.56C610.518 175.1 613.098 173 616.138 173C618.918 173 620.438 174.5 620.458 176.76H619.518C619.498 174.9 618.118 173.76 615.998 173.76C613.698 173.76 611.398 175.3 610.818 178.56C610.238 181.84 611.998 183.38 614.298 183.38C616.418 183.38 618.178 182.26 618.878 180.38H619.838C618.998 182.6 616.938 184.16 614.158 184.16C611.118 184.16 609.278 182.04 609.898 178.56ZM622.32 178.56C622.92 175.12 625.5 173 628.56 173C630.94 173 632.3 174.34 632.62 175.98L633.12 173.14H634.02L632.08 184H631.2L631.7 181.14C630.82 182.8 628.96 184.16 626.56 184.16C623.54 184.16 621.72 181.98 622.32 178.56ZM632.16 178.56C632.68 175.66 631.08 173.78 628.54 173.78C625.92 173.78 623.76 175.56 623.24 178.56C622.72 181.56 624.22 183.36 626.84 183.36C629.38 183.36 631.64 181.5 632.16 178.56ZM636.317 181.1L637.597 173.92H635.957L636.097 173.14H637.737L638.217 170.38H639.137L638.657 173.14H641.857L641.717 173.92H638.517L637.237 181.1C636.937 182.74 637.417 183.2 638.877 183.2H640.077L639.937 184H638.577C636.717 184 635.957 183.24 636.317 181.1ZM648.81 173.76C646.59 173.76 644.31 175.2 643.69 178.2H652.23C652.89 175.16 651.03 173.76 648.81 173.76ZM652.65 180.44C651.83 182.58 649.77 184.16 647.01 184.16C643.97 184.16 642.09 182.04 642.71 178.56C643.33 175.1 645.91 173 648.97 173C652.23 173 653.63 175.32 653.19 177.82C653.11 178.3 653.07 178.54 652.95 178.9H643.57C643.11 181.94 644.91 183.38 647.15 183.38C649.27 183.38 651.03 182.24 651.71 180.44H652.65ZM665.91 173.14L663.99 184H663.09L663.51 181.66C662.59 183.34 660.87 184.18 659.09 184.18C656.67 184.18 654.95 182.74 655.51 179.46L656.65 173.14H657.53L656.41 179.4C655.95 182.06 657.17 183.4 659.35 183.4C661.61 183.4 663.47 181.98 663.97 178.96V179.02L665.01 173.14H665.91ZM669.291 177.74L668.171 184H667.271L669.211 173.14H670.111L669.691 175.48C670.531 173.86 672.031 172.92 674.151 172.92L673.971 173.86H673.691C671.811 173.86 669.811 174.78 669.291 177.74ZM680.123 184L682.063 173.14H682.963L681.023 184H680.123ZM682.923 170.72C682.503 170.72 682.223 170.42 682.303 169.94C682.383 169.48 682.783 169.16 683.203 169.16C683.623 169.16 683.923 169.48 683.843 169.94C683.763 170.42 683.343 170.72 682.923 170.72ZM700.502 184L701.622 177.7C702.102 175.06 700.962 173.7 698.862 173.7C696.702 173.7 694.862 175.18 694.342 178.22V178.2L693.302 184H692.422L693.542 177.7C694.022 175.06 692.882 173.7 690.782 173.7C688.622 173.7 686.782 175.18 686.262 178.22V178.18L685.222 184H684.322L686.262 173.14H687.162L686.742 175.46C687.702 173.72 689.342 172.92 691.042 172.92C692.922 172.92 694.342 173.86 694.522 175.94C695.442 173.88 697.262 172.92 699.122 172.92C701.442 172.92 703.082 174.38 702.522 177.64L701.382 184H700.502ZM706.896 176C707.776 174.34 709.656 173 712.016 173C715.076 173 716.876 175.12 716.276 178.56C715.676 181.98 713.096 184.16 710.056 184.16C707.676 184.16 706.296 182.8 705.976 181.16L704.576 189.12H703.696L706.516 173.14H707.396L706.896 176ZM715.356 178.56C715.896 175.56 714.376 173.78 711.756 173.78C709.236 173.78 706.956 175.66 706.436 178.56C705.916 181.5 707.536 183.36 710.056 183.36C712.676 183.36 714.836 181.56 715.356 178.56ZM718.433 178.56C719.033 175.12 721.613 173 724.673 173C727.053 173 728.413 174.34 728.733 175.98L729.233 173.14H730.133L728.193 184H727.313L727.813 181.14C726.933 182.8 725.073 184.16 722.673 184.16C719.653 184.16 717.833 181.98 718.433 178.56ZM728.273 178.56C728.793 175.66 727.193 173.78 724.653 173.78C722.033 173.78 719.873 175.56 719.353 178.56C718.833 181.56 720.333 183.36 722.953 183.36C725.493 183.36 727.753 181.5 728.273 178.56ZM731.89 178.56C732.51 175.1 735.09 173 738.13 173C740.91 173 742.43 174.5 742.45 176.76H741.51C741.49 174.9 740.11 173.76 737.99 173.76C735.69 173.76 733.39 175.3 732.81 178.56C732.23 181.84 733.99 183.38 736.29 183.38C738.41 183.38 740.17 182.26 740.87 180.38H741.83C740.99 182.6 738.93 184.16 736.15 184.16C733.11 184.16 731.27 182.04 731.89 178.56ZM744.852 181.1L746.132 173.92H744.492L744.632 173.14H746.272L746.752 170.38H747.672L747.192 173.14H750.392L750.252 173.92H747.052L745.772 181.1C745.472 182.74 745.952 183.2 747.412 183.2H748.612L748.472 184H747.112C745.252 184 744.492 183.24 744.852 181.1ZM763.205 173.76C760.985 173.76 758.705 175.2 758.085 178.2H766.625C767.285 175.16 765.425 173.76 763.205 173.76ZM767.045 180.44C766.225 182.58 764.165 184.16 761.405 184.16C758.365 184.16 756.485 182.04 757.105 178.56C757.725 175.1 760.305 173 763.365 173C766.625 173 768.025 175.32 767.585 177.82C767.505 178.3 767.465 178.54 767.345 178.9H757.965C757.505 181.94 759.305 183.38 761.545 183.38C763.665 183.38 765.425 182.24 766.105 180.44H767.045ZM777.605 184L778.725 177.7C779.185 175.06 777.985 173.7 775.785 173.7C773.625 173.7 771.825 175.02 771.205 177.82L770.105 184H769.205L771.145 173.14H772.045L771.645 175.42C772.565 173.76 774.265 172.92 776.065 172.92C778.485 172.92 780.185 174.38 779.605 177.64L778.485 184H777.605ZM782.306 173.14H783.266L785.546 182.94L791.246 173.14H792.226L785.806 184H784.866L782.306 173.14ZM792.291 184L794.231 173.14H795.131L793.191 184H792.291ZM795.091 170.72C794.671 170.72 794.391 170.42 794.471 169.94C794.551 169.48 794.951 169.16 795.371 169.16C795.791 169.16 796.091 169.48 796.011 169.94C795.931 170.42 795.511 170.72 795.091 170.72ZM798.51 177.74L797.39 184H796.49L798.43 173.14H799.33L798.91 175.48C799.75 173.86 801.25 172.92 803.37 172.92L803.19 173.86H802.91C801.03 173.86 799.03 174.78 798.51 177.74ZM814.722 177.38C814.722 181.1 812.002 184.16 808.282 184.16C805.602 184.16 803.782 182.5 803.782 179.78C803.782 176.06 806.482 173 810.222 173C812.882 173 814.722 174.64 814.722 177.38ZM804.702 179.72C804.702 182.22 806.402 183.38 808.402 183.38C811.622 183.38 813.802 180.6 813.802 177.42C813.802 174.92 812.082 173.76 810.082 173.76C806.842 173.76 804.702 176.56 804.702 179.72ZM824.773 184L825.893 177.7C826.353 175.06 825.153 173.7 822.953 173.7C820.793 173.7 818.993 175.02 818.373 177.82L817.273 184H816.373L818.313 173.14H819.213L818.813 175.42C819.733 173.76 821.433 172.92 823.233 172.92C825.653 172.92 827.353 174.38 826.773 177.64L825.653 184H824.773ZM837.234 184L838.354 177.7C838.814 175.06 837.614 173.7 835.414 173.7C833.254 173.7 831.454 175.02 830.834 177.82L829.734 184H828.834L830.774 173.14H831.674L831.274 175.42C832.194 173.76 833.894 172.92 835.694 172.92C838.114 172.92 839.814 174.38 839.234 177.64L838.114 184H837.234ZM847.795 173.76C845.575 173.76 843.295 175.2 842.675 178.2H851.215C851.875 175.16 850.015 173.76 847.795 173.76ZM851.635 180.44C850.815 182.58 848.755 184.16 845.995 184.16C842.955 184.16 841.075 182.04 841.695 178.56C842.315 175.1 844.895 173 847.955 173C851.215 173 852.615 175.32 852.175 177.82C852.095 178.3 852.055 178.54 851.935 178.9H842.555C842.095 181.94 843.895 183.38 846.135 183.38C848.255 183.38 850.015 182.24 850.695 180.44H851.635ZM869.975 184L871.095 177.7C871.575 175.06 870.435 173.7 868.335 173.7C866.175 173.7 864.335 175.18 863.815 178.22V178.2L862.775 184H861.895L863.015 177.7C863.495 175.06 862.355 173.7 860.255 173.7C858.095 173.7 856.255 175.18 855.735 178.22V178.18L854.695 184H853.795L855.735 173.14H856.635L856.215 175.46C857.175 173.72 858.815 172.92 860.515 172.92C862.395 172.92 863.815 173.86 863.995 175.94C864.915 173.88 866.735 172.92 868.595 172.92C870.915 172.92 872.555 174.38 871.995 177.64L870.855 184H869.975ZM880.549 173.76C878.329 173.76 876.049 175.2 875.429 178.2H883.969C884.629 175.16 882.769 173.76 880.549 173.76ZM884.389 180.44C883.569 182.58 881.509 184.16 878.749 184.16C875.709 184.16 873.829 182.04 874.449 178.56C875.069 175.1 877.649 173 880.709 173C883.969 173 885.369 175.32 884.929 177.82C884.849 178.3 884.809 178.54 884.689 178.9H875.309C874.849 181.94 876.649 183.38 878.889 183.38C881.009 183.38 882.769 182.24 883.449 180.44H884.389ZM894.949 184L896.069 177.7C896.529 175.06 895.329 173.7 893.129 173.7C890.969 173.7 889.169 175.02 888.549 177.82L887.449 184H886.549L888.489 173.14H889.389L888.989 175.42C889.909 173.76 891.609 172.92 893.409 172.92C895.829 172.92 897.529 174.38 896.949 177.64L895.829 184H894.949ZM899.95 181.1L901.23 173.92H899.59L899.73 173.14H901.37L901.85 170.38H902.77L902.29 173.14H905.49L905.35 173.92H902.15L900.87 181.1C900.57 182.74 901.05 183.2 902.51 183.2H903.71L903.57 184H902.21C900.35 184 899.59 183.24 899.95 181.1ZM906.343 178.56C906.943 175.12 909.523 173 912.583 173C914.963 173 916.323 174.34 916.643 175.98L917.143 173.14H918.043L916.103 184H915.223L915.723 181.14C914.843 182.8 912.983 184.16 910.583 184.16C907.563 184.16 905.743 181.98 906.343 178.56ZM916.183 178.56C916.703 175.66 915.103 173.78 912.563 173.78C909.943 173.78 907.783 175.56 907.263 178.56C906.743 181.56 908.243 183.36 910.863 183.36C913.403 183.36 915.663 181.5 916.183 178.56ZM919.4 184L922.02 169.2H922.92L920.3 184H919.4ZM935.959 173.76C933.739 173.76 931.459 175.2 930.839 178.2H939.379C940.039 175.16 938.179 173.76 935.959 173.76ZM939.799 180.44C938.979 182.58 936.919 184.16 934.159 184.16C931.119 184.16 929.239 182.04 929.859 178.56C930.479 175.1 933.059 173 936.119 173C939.379 173 940.779 175.32 940.339 177.82C940.259 178.3 940.219 178.54 940.099 178.9H930.719C930.259 181.94 932.059 183.38 934.299 183.38C936.419 183.38 938.179 182.24 938.859 180.44H939.799ZM942.899 181.1L944.179 173.92H942.539L942.679 173.14H944.319L944.799 170.38H945.719L945.239 173.14H948.439L948.299 173.92H945.099L943.819 181.1C943.519 182.74 943.999 183.2 945.459 183.2H946.659L946.519 184H945.159C943.299 184 942.539 183.24 942.899 181.1ZM957.072 176C957.952 174.34 959.832 173 962.192 173C965.252 173 967.052 175.12 966.452 178.56C965.852 181.98 963.272 184.16 960.232 184.16C957.852 184.16 956.472 182.8 956.152 181.16L954.752 189.12H953.872L956.692 173.14H957.572L957.072 176ZM965.532 178.56C966.072 175.56 964.552 173.78 961.932 173.78C959.412 173.78 957.132 175.66 956.612 178.56C956.092 181.5 957.712 183.36 960.232 183.36C962.852 183.36 965.012 181.56 965.532 178.56ZM974.709 173.76C972.489 173.76 970.209 175.2 969.589 178.2H978.129C978.789 175.16 976.929 173.76 974.709 173.76ZM978.549 180.44C977.729 182.58 975.669 184.16 972.909 184.16C969.869 184.16 967.989 182.04 968.609 178.56C969.229 175.1 971.809 173 974.869 173C978.129 173 979.529 175.32 979.089 177.82C979.009 178.3 978.969 178.54 978.849 178.9H969.469C969.009 181.94 970.809 183.38 973.049 183.38C975.169 183.38 976.929 182.24 977.609 180.44H978.549ZM982.729 177.74L981.609 184H980.709L982.649 173.14H983.549L983.129 175.48C983.969 173.86 985.469 172.92 987.589 172.92L987.409 173.86H987.129C985.249 173.86 983.249 174.78 982.729 177.74ZM988.121 184L989.881 173.94H988.261L988.401 173.14H990.021L990.161 172.38C990.561 170.16 991.761 169.02 994.441 169.02L994.301 169.82C992.181 169.82 991.381 170.62 991.081 172.38L990.941 173.14H993.761L993.621 173.94H990.801L989.021 184H988.121ZM1005.39 177.38C1005.39 181.1 1002.67 184.16 998.946 184.16C996.266 184.16 994.446 182.5 994.446 179.78C994.446 176.06 997.146 173 1000.89 173C1003.55 173 1005.39 174.64 1005.39 177.38ZM995.366 179.72C995.366 182.22 997.066 183.38 999.066 183.38C1002.29 183.38 1004.47 180.6 1004.47 177.42C1004.47 174.92 1002.75 173.76 1000.75 173.76C997.506 173.76 995.366 176.56 995.366 179.72ZM1009.06 177.74L1007.94 184H1007.04L1008.98 173.14H1009.88L1009.46 175.48C1010.3 173.86 1011.8 172.92 1013.92 172.92L1013.74 173.86H1013.46C1011.58 173.86 1009.58 174.78 1009.06 177.74ZM1030.21 184L1031.33 177.7C1031.81 175.06 1030.67 173.7 1028.57 173.7C1026.41 173.7 1024.57 175.18 1024.05 178.22V178.2L1023.01 184H1022.13L1023.25 177.7C1023.73 175.06 1022.59 173.7 1020.49 173.7C1018.33 173.7 1016.49 175.18 1015.97 178.22V178.18L1014.93 184H1014.03L1015.97 173.14H1016.87L1016.45 175.46C1017.41 173.72 1019.05 172.92 1020.75 172.92C1022.63 172.92 1024.05 173.86 1024.23 175.94C1025.15 173.88 1026.97 172.92 1028.83 172.92C1031.15 172.92 1032.79 174.38 1032.23 177.64L1031.09 184H1030.21ZM1034.68 178.56C1035.28 175.12 1037.86 173 1040.92 173C1043.3 173 1044.66 174.34 1044.98 175.98L1045.48 173.14H1046.38L1044.44 184H1043.56L1044.06 181.14C1043.18 182.8 1041.32 184.16 1038.92 184.16C1035.9 184.16 1034.08 181.98 1034.68 178.56ZM1044.52 178.56C1045.04 175.66 1043.44 173.78 1040.9 173.78C1038.28 173.78 1036.12 175.56 1035.6 178.56C1035.08 181.56 1036.58 183.36 1039.2 183.36C1041.74 183.36 1044 181.5 1044.52 178.56ZM1056.14 184L1057.26 177.7C1057.72 175.06 1056.52 173.7 1054.32 173.7C1052.16 173.7 1050.36 175.02 1049.74 177.82L1048.64 184H1047.74L1049.68 173.14H1050.58L1050.18 175.42C1051.1 173.76 1052.8 172.92 1054.6 172.92C1057.02 172.92 1058.72 174.38 1058.14 177.64L1057.02 184H1056.14ZM1060.6 178.56C1061.22 175.1 1063.8 173 1066.84 173C1069.62 173 1071.14 174.5 1071.16 176.76H1070.22C1070.2 174.9 1068.82 173.76 1066.7 173.76C1064.4 173.76 1062.1 175.3 1061.52 178.56C1060.94 181.84 1062.7 183.38 1065 183.38C1067.12 183.38 1068.88 182.26 1069.58 180.38H1070.54C1069.7 182.6 1067.64 184.16 1064.86 184.16C1061.82 184.16 1059.98 182.04 1060.6 178.56ZM1079.12 173.76C1076.9 173.76 1074.62 175.2 1074 178.2H1082.54C1083.2 175.16 1081.34 173.76 1079.12 173.76ZM1082.96 180.44C1082.14 182.58 1080.08 184.16 1077.32 184.16C1074.28 184.16 1072.4 182.04 1073.02 178.56C1073.64 175.1 1076.22 173 1079.28 173C1082.54 173 1083.94 175.32 1083.5 177.82C1083.42 178.3 1083.38 178.54 1083.26 178.9H1073.88C1073.42 181.94 1075.22 183.38 1077.46 183.38C1079.58 183.38 1081.34 182.24 1082.02 180.44H1082.96Z" fill="black"/>
<defs>
<clipPath id="clip0_684_4302">
<rect width="117" height="90" fill="white" transform="translate(67.5 101.5)"/>
</clipPath>
</defs>
</svg>
