<svg width="380" height="819" viewBox="0 0 380 819" fill="none" xmlns="http://www.w3.org/2000/svg">
<rect x="380" width="819" height="380" rx="173" transform="rotate(90 380 0)" fill="white"/>
<g clip-path="url(#clip0_689_4364)">
<path d="M165.446 214.106C163.618 212.439 160.123 216.406 156.85 219.511C153.578 222.615 145.567 227.645 130.131 218.899C124.175 215.525 102.131 184.238 93.0782 178.767C90.0764 176.867 86.6505 175.728 83.1039 175.448C83.8492 175.636 84.5205 176.043 85.0308 176.616C88.0472 180.132 83.0381 189.148 73.839 196.748C64.6398 204.347 54.7351 207.667 51.7187 204.14C51.2772 203.61 50.9957 202.966 50.907 202.284C50.8375 202.506 50.7571 202.724 50.6949 202.946C50.6949 202.946 42.7499 226.273 80.9321 247.912C119.114 269.55 145.717 246.092 148.796 243.649C152.174 240.945 172.744 220.723 165.446 214.106ZM53.2835 199.295C55.1117 201.432 62.5997 198.204 69.9962 192.092C77.3928 185.981 81.9047 179.291 80.0729 177.169C78.6104 175.473 73.5977 177.169 67.8866 180.988C66.9206 180.496 66.0702 179.806 65.3914 178.964C64.7127 178.121 64.221 177.145 63.9488 176.099C63.649 173.661 64.0037 169.329 63.5612 168.092C63.5561 167.847 63.4685 167.611 63.3126 167.422C62.4936 166.469 59.905 167.284 57.5284 169.242C55.1519 171.2 53.8905 173.57 54.7095 174.523C55.7754 178.978 57.807 183.147 60.6618 186.738C54.9106 192.114 51.6857 197.432 53.2835 199.295Z" fill="#00BC84"/>
<path d="M105.05 238L102.95 231.8H89.85L87.75 238H78.8L91.5 202.9H101.4L114.1 238H105.05ZM100.75 225.2L96.4 212.35L92.1 225.2H100.75Z" fill="white"/>
</g>
<path d="M228.92 195.184C226.232 193.744 224.408 191.344 224.408 187.648C224.408 182.656 228.296 178.24 236.552 178.24C244.808 178.24 248.648 182.656 248.648 187.648C248.648 191.248 246.776 193.792 244.136 195.184C247.544 196.816 249.512 199.744 249.512 203.728C249.512 210.736 243.704 214.672 236.552 214.672C229.4 214.672 223.592 210.736 223.592 203.728C223.592 199.744 225.56 196.768 228.92 195.184ZM236.552 192.976C238.904 192.976 240.68 191.44 240.68 188.896C240.68 186.256 239 184.768 236.552 184.768C234.104 184.768 232.424 186.256 232.424 188.944C232.424 191.488 234.2 192.976 236.552 192.976ZM236.552 198.736C233.624 198.736 231.512 200.368 231.512 203.344C231.512 205.984 233.384 207.952 236.552 207.952C239.672 207.952 241.496 205.936 241.496 203.344C241.496 200.464 239.48 198.736 236.552 198.736ZM270.605 214V207.76H254.477V201.136L269.645 179.44H278.813V200.656H282.749V207.76H278.813V214H270.605ZM263.117 200.656H271.181V188.464L263.117 200.656ZM296.273 209.968C296.273 212.416 294.305 214.384 291.425 214.384C288.497 214.384 286.529 212.416 286.529 209.968C286.529 207.424 288.497 205.456 291.425 205.456C294.305 205.456 296.273 207.424 296.273 209.968ZM325.276 188.416H317.644C317.164 186.112 316.012 184.864 313.564 184.864C309.868 184.864 308.428 187.984 308.38 194.752C309.772 192.496 312.604 191.152 315.82 191.152C321.916 191.152 326.236 195.136 326.236 202.432C326.236 209.392 321.82 214.192 314.284 214.192C303.724 214.192 301.132 206.704 301.132 196.24C301.132 184.24 304.876 178.24 313.948 178.24C321.484 178.24 324.844 183.232 325.276 188.416ZM313.852 197.632C311.26 197.632 309.052 199.168 309.052 202.336C309.052 205.408 310.828 207.232 313.948 207.232C316.732 207.232 318.508 205.456 318.508 202.48C318.508 199.552 316.924 197.632 313.852 197.632ZM236.072 245.232C236.072 248.112 233.544 250.288 229.672 250.288C225.576 250.288 222.696 248.048 222.504 244.848H225.512C225.672 246.544 227.176 247.824 229.64 247.824C231.944 247.824 233.224 246.672 233.224 245.232C233.224 241.328 222.856 243.6 222.856 237.072C222.856 234.384 225.384 232.176 229.288 232.176C233.16 232.176 235.72 234.256 235.912 237.68H233C232.872 235.92 231.528 234.64 229.192 234.64C227.048 234.64 225.768 235.664 225.768 237.072C225.768 241.232 235.944 238.96 236.072 245.232ZM255.735 232.464V250H252.823V247.408C251.703 249.232 249.559 250.256 247.223 250.256C243.191 250.256 240.023 247.76 240.023 242.736V232.464H242.903V242.352C242.903 245.904 244.855 247.728 247.799 247.728C250.807 247.728 252.823 245.872 252.823 242.096V232.464H255.735ZM263.564 240.464V250H260.652V232.464H263.564V235.312C264.556 233.36 266.444 232.144 269.228 232.144V235.152H268.46C265.676 235.152 263.564 236.4 263.564 240.464ZM282.944 250V229.52H279.872V226.864H285.888V250H282.944ZM290.89 238.192C290.89 231.568 292.554 226.512 298.954 226.512C305.322 226.512 306.986 231.568 306.986 238.192C306.986 244.912 305.322 250 298.954 250C292.554 250 290.89 244.912 290.89 238.192ZM304.106 238.192C304.106 233.392 303.498 229.168 298.954 229.168C294.378 229.168 293.77 233.392 293.77 238.192C293.77 243.184 294.378 247.344 298.954 247.344C303.498 247.344 304.106 243.184 304.106 238.192ZM310.984 238.192C310.984 231.568 312.648 226.512 319.048 226.512C325.416 226.512 327.08 231.568 327.08 238.192C327.08 244.912 325.416 250 319.048 250C312.648 250 310.984 244.912 310.984 238.192ZM324.2 238.192C324.2 233.392 323.592 229.168 319.048 229.168C314.472 229.168 313.864 233.392 313.864 238.192C313.864 243.184 314.472 247.344 319.048 247.344C323.592 247.344 324.2 243.184 324.2 238.192Z" fill="#0E0E0E"/>
<path d="M59.32 116.48H63.04C65.76 116.48 66.92 115.12 66.92 112.96C66.92 110.8 65.76 109.44 63.04 109.44H59.32V116.48ZM73.88 112.96C73.88 117.6 70.72 121.92 63.56 121.92H59.32V132H52.48V103.92H63.56C70.44 103.92 73.88 107.8 73.88 112.96ZM87.2809 114.84C85.0409 114.84 83.3209 116.2 82.9209 118.68H91.4809C91.4809 116.24 89.5609 114.84 87.2809 114.84ZM97.9609 124.6C96.8809 128.96 92.9209 132.32 87.3609 132.32C80.8009 132.32 76.0809 127.92 76.0809 120.84C76.0809 113.76 80.7209 109.36 87.3609 109.36C93.8809 109.36 98.4809 113.68 98.4809 120.48C98.4809 121.12 98.4409 121.8 98.3609 122.48H82.8809C83.1209 125.4 84.9209 126.76 87.1209 126.76C89.0409 126.76 90.1209 125.8 90.6809 124.6H97.9609ZM108.929 112.84C110.169 110.88 112.529 109.36 115.809 109.36C121.289 109.36 125.649 113.76 125.649 120.8C125.649 127.84 121.289 132.32 115.809 132.32C112.529 132.32 110.169 130.76 108.929 128.88V142.64H102.089V109.68H108.929V112.84ZM118.689 120.8C118.689 117.24 116.369 115.32 113.769 115.32C111.209 115.32 108.889 117.28 108.889 120.84C108.889 124.4 111.209 126.36 113.769 126.36C116.369 126.36 118.689 124.36 118.689 120.8ZM136.078 112.84C137.318 110.88 139.678 109.36 142.958 109.36C148.438 109.36 152.798 113.76 152.798 120.8C152.798 127.84 148.438 132.32 142.958 132.32C139.678 132.32 137.318 130.76 136.078 128.88V142.64H129.238V109.68H136.078V112.84ZM145.838 120.8C145.838 117.24 143.518 115.32 140.918 115.32C138.358 115.32 136.038 117.28 136.038 120.84C136.038 124.4 138.358 126.36 140.918 126.36C143.518 126.36 145.838 124.36 145.838 120.8ZM166.226 114.84C163.986 114.84 162.266 116.2 161.866 118.68H170.426C170.426 116.24 168.506 114.84 166.226 114.84ZM176.906 124.6C175.826 128.96 171.866 132.32 166.306 132.32C159.746 132.32 155.026 127.92 155.026 120.84C155.026 113.76 159.666 109.36 166.306 109.36C172.826 109.36 177.426 113.68 177.426 120.48C177.426 121.12 177.386 121.8 177.306 122.48H161.826C162.066 125.4 163.866 126.76 166.066 126.76C167.986 126.76 169.066 125.8 169.626 124.6H176.906ZM187.875 121.64V132H181.035V109.68H187.875V113.4C189.435 111.04 191.875 109.44 194.875 109.44V116.68H192.995C189.755 116.68 187.875 117.8 187.875 121.64ZM207.221 132V104.12H210.861V132H207.221ZM233.104 132V119.6C233.104 115.12 230.664 112.84 226.984 112.84C223.264 112.84 220.704 115.16 220.704 119.88V132H217.064V110.08H220.704V113.2C222.144 110.92 224.784 109.68 227.744 109.68C232.824 109.68 236.704 112.8 236.704 119.08V132H233.104ZM241.29 120.96C241.29 114.12 245.81 109.72 251.73 109.72C255.17 109.72 258.33 111.48 259.85 114V102.4H263.53V132H259.85V127.88C258.53 130.32 255.69 132.36 251.69 132.36C245.81 132.36 241.29 127.76 241.29 120.96ZM259.85 121C259.85 115.92 256.41 112.88 252.41 112.88C248.41 112.88 245.01 115.8 245.01 120.96C245.01 126.12 248.41 129.16 252.41 129.16C256.41 129.16 259.85 126.16 259.85 121ZM279.002 112.8C275.442 112.8 272.482 115.16 272.082 119.44H285.922C285.962 115.16 282.762 112.8 279.002 112.8ZM289.242 125.24C288.122 129.24 284.602 132.36 279.162 132.36C272.922 132.36 268.322 127.96 268.322 121C268.322 114.08 272.762 109.72 279.162 109.72C285.522 109.72 289.682 114.2 289.682 120.2C289.682 121 289.642 121.64 289.562 122.4H272.042C272.322 126.84 275.442 129.28 279.162 129.28C282.442 129.28 284.522 127.6 285.322 125.24H289.242ZM305.926 132L300.726 123.84L295.726 132H291.926L299.006 121.12L291.926 110.08H296.046L301.246 118.2L306.206 110.08H310.006L302.966 120.92L310.046 132H305.926ZM321.827 102.64L321.147 108.72L326.027 105.2L327.467 107.8L321.907 110.12L327.507 112.4L325.987 115.08L321.147 111.56L321.787 117.6H318.787L319.387 111.56L314.547 115.12L312.987 112.4L318.547 110.08L312.987 107.84L314.467 105.16L319.427 108.72L318.787 102.64H321.827Z" fill="#0E0E0E"/>
<path d="M330 297L50 297" stroke="black"/>
<path d="M83.5481 355.605C83.0168 355.123 82.001 356.269 81.05 357.166C80.099 358.063 77.7709 359.517 73.2847 356.99C71.5538 356.015 65.1476 346.974 62.5167 345.393C61.6443 344.844 60.6487 344.515 59.618 344.434C59.8346 344.489 60.0297 344.606 60.178 344.772C61.0546 345.788 59.5989 348.393 56.9254 350.589C54.252 352.785 51.3735 353.744 50.4969 352.725C50.3686 352.572 50.2868 352.386 50.261 352.189C50.2408 352.253 50.2175 352.316 50.1994 352.38C50.1994 352.38 47.8904 359.12 58.9868 365.373C70.0832 371.625 77.8144 364.847 78.7091 364.141C79.6909 363.36 85.6689 357.517 83.5481 355.605ZM50.9517 351.325C51.483 351.942 53.6591 351.01 55.8087 349.244C57.9583 347.478 59.2695 345.545 58.7371 344.932C58.3121 344.442 56.8553 344.932 55.1956 346.035C54.9148 345.893 54.6677 345.694 54.4704 345.45C54.2732 345.207 54.1303 344.925 54.0512 344.623C53.9641 343.918 54.0671 342.666 53.9386 342.309C53.9371 342.238 53.9116 342.17 53.8663 342.115C53.6283 341.84 52.876 342.075 52.1853 342.641C51.4947 343.207 51.1281 343.892 51.3661 344.167C51.6759 345.454 52.2663 346.659 53.096 347.697C51.4245 349.25 50.4874 350.787 50.9517 351.325Z" fill="#00BC84"/>
<path d="M116.792 345.748V349.31H110.058V353.002H116.012V356.434H110.058V360.438H116.792V364H105.612V345.748H116.792ZM118.794 356.746C118.794 352.17 121.81 349.284 126.074 349.284C129.714 349.284 132.288 351.286 133.042 354.744H128.31C127.946 353.73 127.218 353.08 125.996 353.08C124.41 353.08 123.318 354.328 123.318 356.746C123.318 359.164 124.41 360.412 125.996 360.412C127.218 360.412 127.92 359.814 128.31 358.748H133.042C132.288 362.102 129.714 364.208 126.074 364.208C121.81 364.208 118.794 361.348 118.794 356.746ZM149.617 356.746C149.617 361.348 146.289 364.208 142.025 364.208C137.761 364.208 134.537 361.348 134.537 356.746C134.537 352.144 137.839 349.284 142.077 349.284C146.341 349.284 149.617 352.144 149.617 356.746ZM139.061 356.746C139.061 359.19 140.413 360.36 142.025 360.36C143.611 360.36 145.093 359.19 145.093 356.746C145.093 354.276 143.637 353.132 142.077 353.132C140.465 353.132 139.061 354.276 139.061 356.746ZM151.975 364V344.76H156.421V364H151.975ZM173.839 356.746C173.839 361.348 170.511 364.208 166.247 364.208C161.983 364.208 158.759 361.348 158.759 356.746C158.759 352.144 162.061 349.284 166.299 349.284C170.563 349.284 173.839 352.144 173.839 356.746ZM163.283 356.746C163.283 359.19 164.635 360.36 166.247 360.36C167.833 360.36 169.315 359.19 169.315 356.746C169.315 354.276 167.859 353.132 166.299 353.132C164.687 353.132 163.283 354.276 163.283 356.746ZM175.314 356.72C175.314 352.144 178.148 349.284 181.71 349.284C183.842 349.284 185.402 350.246 186.182 351.546V349.492H190.628V363.974C190.628 367.848 188.392 371.15 183.374 371.15C179.058 371.15 176.25 368.966 175.86 365.508H180.254C180.54 366.6 181.632 367.302 183.166 367.302C184.856 367.302 186.182 366.418 186.182 363.974V361.92C185.376 363.194 183.842 364.208 181.71 364.208C178.148 364.208 175.314 361.296 175.314 356.72ZM186.182 356.746C186.182 354.432 184.7 353.158 183.01 353.158C181.346 353.158 179.838 354.406 179.838 356.72C179.838 359.034 181.346 360.334 183.01 360.334C184.7 360.334 186.182 359.06 186.182 356.746ZM193.844 364V349.492H198.29V364H193.844ZM196.08 347.984C194.494 347.984 193.428 346.918 193.428 345.592C193.428 344.24 194.494 343.174 196.08 343.174C197.64 343.174 198.706 344.24 198.706 345.592C198.706 346.918 197.64 347.984 196.08 347.984ZM207.908 352.846C206.452 352.846 205.334 353.73 205.074 355.342H210.638C210.638 353.756 209.39 352.846 207.908 352.846ZM214.85 359.19C214.148 362.024 211.574 364.208 207.96 364.208C203.696 364.208 200.628 361.348 200.628 356.746C200.628 352.144 203.644 349.284 207.96 349.284C212.198 349.284 215.188 352.092 215.188 356.512C215.188 356.928 215.162 357.37 215.11 357.812H205.048C205.204 359.71 206.374 360.594 207.804 360.594C209.052 360.594 209.754 359.97 210.118 359.19H214.85Z" fill="#0E0E0E"/>
<path d="M83.5481 409.605C83.0168 409.123 82.001 410.269 81.05 411.166C80.099 412.063 77.7709 413.517 73.2847 410.99C71.5538 410.015 65.1476 400.974 62.5167 399.393C61.6443 398.844 60.6487 398.515 59.618 398.434C59.8346 398.489 60.0297 398.606 60.178 398.772C61.0546 399.788 59.5989 402.393 56.9254 404.589C54.252 406.785 51.3735 407.744 50.4969 406.725C50.3686 406.572 50.2868 406.386 50.261 406.189C50.2408 406.253 50.2175 406.316 50.1994 406.38C50.1994 406.38 47.8904 413.12 58.9868 419.373C70.0832 425.625 77.8144 418.847 78.7091 418.141C79.6909 417.36 85.6689 411.517 83.5481 409.605ZM50.9517 405.325C51.483 405.942 53.6591 405.01 55.8087 403.244C57.9583 401.478 59.2695 399.545 58.7371 398.932C58.3121 398.442 56.8553 398.932 55.1956 400.035C54.9148 399.893 54.6677 399.694 54.4704 399.45C54.2732 399.207 54.1303 398.925 54.0512 398.623C53.9641 397.918 54.0671 396.666 53.9386 396.309C53.9371 396.238 53.9116 396.17 53.8663 396.115C53.6283 395.84 52.876 396.075 52.1853 396.641C51.4947 397.207 51.1281 397.892 51.3661 398.167C51.6759 399.454 52.2663 400.659 53.096 401.697C51.4245 403.25 50.4874 404.787 50.9517 405.325Z" fill="#00BC84"/>
<path d="M110.058 407.912H112.476C114.244 407.912 114.998 407.028 114.998 405.624C114.998 404.22 114.244 403.336 112.476 403.336H110.058V407.912ZM119.522 405.624C119.522 408.64 117.468 411.448 112.814 411.448H110.058V418H105.612V399.748H112.814C117.286 399.748 119.522 402.27 119.522 405.624ZM128.233 406.846C126.777 406.846 125.659 407.73 125.399 409.342H130.963C130.963 407.756 129.715 406.846 128.233 406.846ZM135.175 413.19C134.473 416.024 131.899 418.208 128.285 418.208C124.021 418.208 120.953 415.348 120.953 410.746C120.953 406.144 123.969 403.284 128.285 403.284C132.523 403.284 135.513 406.092 135.513 410.512C135.513 410.928 135.487 411.37 135.435 411.812H125.373C125.529 413.71 126.699 414.594 128.129 414.594C129.377 414.594 130.079 413.97 130.443 413.19H135.175ZM142.304 411.266V418H137.858V403.492H142.304V405.91C143.318 404.376 144.904 403.336 146.854 403.336V408.042H145.632C143.526 408.042 142.304 408.77 142.304 411.266ZM149.421 418V407.184H147.809V403.492H149.421V403.076C149.421 399.28 151.761 397.408 156.181 397.642V401.412C154.465 401.308 153.867 401.828 153.867 403.362V403.492H156.259V407.184H153.867V418H149.421ZM172.544 410.746C172.544 415.348 169.216 418.208 164.952 418.208C160.688 418.208 157.464 415.348 157.464 410.746C157.464 406.144 160.766 403.284 165.004 403.284C169.268 403.284 172.544 406.144 172.544 410.746ZM161.988 410.746C161.988 413.19 163.34 414.36 164.952 414.36C166.538 414.36 168.02 413.19 168.02 410.746C168.02 408.276 166.564 407.132 165.004 407.132C163.392 407.132 161.988 408.276 161.988 410.746ZM179.349 411.266V418H174.903V403.492H179.349V405.91C180.363 404.376 181.949 403.336 183.899 403.336V408.042H182.677C180.571 408.042 179.349 408.77 179.349 411.266ZM206.018 418V410.122C206.018 408.224 204.926 407.184 203.236 407.184C201.546 407.184 200.454 408.224 200.454 410.122V418H196.034V410.122C196.034 408.224 194.942 407.184 193.252 407.184C191.562 407.184 190.47 408.224 190.47 410.122V418H186.024V403.492H190.47V405.312C191.328 404.142 192.81 403.336 194.708 403.336C196.892 403.336 198.66 404.298 199.648 406.04C200.61 404.506 202.43 403.336 204.536 403.336C208.124 403.336 210.438 405.624 210.438 409.524V418H206.018ZM212.664 410.72C212.664 406.144 215.498 403.284 219.06 403.284C221.218 403.284 222.752 404.272 223.532 405.546V403.492H227.978V418H223.532V415.946C222.726 417.22 221.192 418.208 219.034 418.208C215.498 418.208 212.664 415.296 212.664 410.72ZM223.532 410.746C223.532 408.432 222.05 407.158 220.36 407.158C218.696 407.158 217.188 408.406 217.188 410.72C217.188 413.034 218.696 414.334 220.36 414.334C222.05 414.334 223.532 413.06 223.532 410.746ZM241.204 418V410.122C241.204 408.146 240.112 407.054 238.422 407.054C236.732 407.054 235.64 408.146 235.64 410.122V418H231.194V403.492H235.64V405.416C236.524 404.194 238.084 403.336 240.034 403.336C243.388 403.336 245.624 405.624 245.624 409.524V418H241.204ZM247.83 410.746C247.83 406.17 250.846 403.284 255.11 403.284C258.75 403.284 261.324 405.286 262.078 408.744H257.346C256.982 407.73 256.254 407.08 255.032 407.08C253.446 407.08 252.354 408.328 252.354 410.746C252.354 413.164 253.446 414.412 255.032 414.412C256.254 414.412 256.956 413.814 257.346 412.748H262.078C261.324 416.102 258.75 418.208 255.11 418.208C250.846 418.208 247.83 415.348 247.83 410.746ZM270.852 406.846C269.396 406.846 268.278 407.73 268.018 409.342H273.582C273.582 407.756 272.334 406.846 270.852 406.846ZM277.794 413.19C277.092 416.024 274.518 418.208 270.904 418.208C266.64 418.208 263.572 415.348 263.572 410.746C263.572 406.144 266.588 403.284 270.904 403.284C275.142 403.284 278.132 406.092 278.132 410.512C278.132 410.928 278.106 411.37 278.054 411.812H267.992C268.148 413.71 269.318 414.594 270.748 414.594C271.996 414.594 272.698 413.97 273.062 413.19H277.794ZM292.255 413.788C292.255 416.31 290.019 418.208 286.379 418.208C282.505 418.208 279.905 416.05 279.697 413.242H284.091C284.195 414.256 285.105 414.932 286.327 414.932C287.471 414.932 288.069 414.412 288.069 413.762C288.069 411.422 280.165 413.112 280.165 407.782C280.165 405.312 282.271 403.284 286.067 403.284C289.811 403.284 291.891 405.364 292.177 408.224H288.069C287.939 407.236 287.185 406.586 285.937 406.586C284.897 406.586 284.325 407.002 284.325 407.704C284.325 410.018 292.177 408.38 292.255 413.788Z" fill="#0E0E0E"/>
<path d="M83.5481 463.605C83.0168 463.123 82.001 464.269 81.05 465.166C80.099 466.063 77.7709 467.517 73.2847 464.99C71.5538 464.015 65.1476 454.974 62.5167 453.393C61.6443 452.844 60.6487 452.515 59.618 452.434C59.8346 452.489 60.0297 452.606 60.178 452.772C61.0546 453.788 59.5989 456.393 56.9254 458.589C54.252 460.785 51.3735 461.744 50.4969 460.725C50.3686 460.572 50.2868 460.386 50.261 460.189C50.2408 460.253 50.2175 460.316 50.1994 460.38C50.1994 460.38 47.8904 467.12 58.9868 473.373C70.0832 479.625 77.8144 472.847 78.7091 472.141C79.6909 471.36 85.6689 465.517 83.5481 463.605ZM50.9517 459.325C51.483 459.942 53.6591 459.01 55.8087 457.244C57.9583 455.478 59.2695 453.545 58.7371 452.932C58.3121 452.442 56.8553 452.932 55.1956 454.035C54.9148 453.893 54.6677 453.694 54.4704 453.45C54.2732 453.207 54.1303 452.925 54.0512 452.623C53.9641 451.918 54.0671 450.666 53.9386 450.309C53.9371 450.238 53.9116 450.17 53.8663 450.115C53.6283 449.84 52.876 450.075 52.1853 450.641C51.4947 451.207 51.1281 451.892 51.3661 452.167C51.6759 453.454 52.2663 454.659 53.096 455.697C51.4245 457.25 50.4874 458.787 50.9517 459.325Z" fill="#00BC84"/>
<path d="M118.066 472L116.974 468.776H110.162L109.07 472H104.416L111.02 453.748H116.168L122.772 472H118.066ZM115.83 465.344L113.568 458.662L111.332 465.344H115.83ZM123.898 464.746C123.898 460.17 126.914 457.284 131.178 457.284C134.818 457.284 137.392 459.286 138.146 462.744H133.414C133.05 461.73 132.322 461.08 131.1 461.08C129.514 461.08 128.422 462.328 128.422 464.746C128.422 467.164 129.514 468.412 131.1 468.412C132.322 468.412 133.024 467.814 133.414 466.748H138.146C137.392 470.102 134.818 472.208 131.178 472.208C126.914 472.208 123.898 469.348 123.898 464.746ZM139.64 464.746C139.64 460.17 142.656 457.284 146.92 457.284C150.56 457.284 153.134 459.286 153.888 462.744H149.156C148.792 461.73 148.064 461.08 146.842 461.08C145.256 461.08 144.164 462.328 144.164 464.746C144.164 467.164 145.256 468.412 146.842 468.412C148.064 468.412 148.766 467.814 149.156 466.748H153.888C153.134 470.102 150.56 472.208 146.92 472.208C142.656 472.208 139.64 469.348 139.64 464.746ZM162.662 460.846C161.206 460.846 160.088 461.73 159.828 463.342H165.392C165.392 461.756 164.144 460.846 162.662 460.846ZM169.604 467.19C168.902 470.024 166.328 472.208 162.714 472.208C158.45 472.208 155.382 469.348 155.382 464.746C155.382 460.144 158.398 457.284 162.714 457.284C166.952 457.284 169.942 460.092 169.942 464.512C169.942 464.928 169.916 465.37 169.864 465.812H159.802C159.958 467.71 161.128 468.594 162.558 468.594C163.806 468.594 164.508 467.97 164.872 467.19H169.604ZM184.066 467.788C184.066 470.31 181.83 472.208 178.19 472.208C174.316 472.208 171.716 470.05 171.508 467.242H175.902C176.006 468.256 176.916 468.932 178.138 468.932C179.282 468.932 179.88 468.412 179.88 467.762C179.88 465.422 171.976 467.112 171.976 461.782C171.976 459.312 174.082 457.284 177.878 457.284C181.622 457.284 183.702 459.364 183.988 462.224H179.88C179.75 461.236 178.996 460.586 177.748 460.586C176.708 460.586 176.136 461.002 176.136 461.704C176.136 464.018 183.988 462.38 184.066 467.788ZM198.564 467.788C198.564 470.31 196.328 472.208 192.688 472.208C188.814 472.208 186.214 470.05 186.006 467.242H190.4C190.504 468.256 191.414 468.932 192.636 468.932C193.78 468.932 194.378 468.412 194.378 467.762C194.378 465.422 186.474 467.112 186.474 461.782C186.474 459.312 188.58 457.284 192.376 457.284C196.12 457.284 198.2 459.364 198.486 462.224H194.378C194.248 461.236 193.494 460.586 192.246 460.586C191.206 460.586 190.634 461.002 190.634 461.704C190.634 464.018 198.486 462.38 198.564 467.788ZM201.284 472V457.492H205.73V472H201.284ZM203.52 455.984C201.934 455.984 200.868 454.918 200.868 453.592C200.868 452.24 201.934 451.174 203.52 451.174C205.08 451.174 206.146 452.24 206.146 453.592C206.146 454.918 205.08 455.984 203.52 455.984ZM213.398 459.546C214.204 458.246 215.79 457.284 217.87 457.284C221.458 457.284 224.266 460.144 224.266 464.72C224.266 469.296 221.432 472.208 217.87 472.208C215.738 472.208 214.204 471.246 213.398 469.972V472H208.952V452.76H213.398V459.546ZM219.742 464.72C219.742 462.406 218.234 461.158 216.544 461.158C214.88 461.158 213.372 462.432 213.372 464.746C213.372 467.06 214.88 468.334 216.544 468.334C218.234 468.334 219.742 467.034 219.742 464.72ZM226.598 472V457.492H231.044V472H226.598ZM228.834 455.984C227.248 455.984 226.182 454.918 226.182 453.592C226.182 452.24 227.248 451.174 228.834 451.174C230.394 451.174 231.46 452.24 231.46 453.592C231.46 454.918 230.394 455.984 228.834 455.984ZM234.266 472V452.76H238.712V472H234.266ZM241.934 472V457.492H246.38V472H241.934ZM244.17 455.984C242.584 455.984 241.518 454.918 241.518 453.592C241.518 452.24 242.584 451.174 244.17 451.174C245.73 451.174 246.796 452.24 246.796 453.592C246.796 454.918 245.73 455.984 244.17 455.984ZM250.304 466.956V461.184H248.536V457.492H250.304V453.956H254.75V457.492H257.662V461.184H254.75V467.008C254.75 467.866 255.114 468.23 256.102 468.23H257.688V472H255.426C252.41 472 250.304 470.726 250.304 466.956ZM266.561 460.846C265.105 460.846 263.987 461.73 263.727 463.342H269.291C269.291 461.756 268.043 460.846 266.561 460.846ZM273.503 467.19C272.801 470.024 270.227 472.208 266.613 472.208C262.349 472.208 259.281 469.348 259.281 464.746C259.281 460.144 262.297 457.284 266.613 457.284C270.851 457.284 273.841 460.092 273.841 464.512C273.841 464.928 273.815 465.37 273.763 465.812H263.701C263.857 467.71 265.027 468.594 266.457 468.594C267.705 468.594 268.407 467.97 268.771 467.19H273.503ZM263.337 453.332L269.603 450.316V453.774L263.337 456.4V453.332Z" fill="#0E0E0E"/>
<path d="M83.5481 517.605C83.0168 517.123 82.001 518.269 81.05 519.166C80.099 520.063 77.7709 521.517 73.2847 518.99C71.5538 518.015 65.1476 508.974 62.5167 507.393C61.6443 506.844 60.6487 506.515 59.618 506.434C59.8346 506.489 60.0297 506.606 60.178 506.772C61.0546 507.788 59.5989 510.393 56.9254 512.589C54.252 514.785 51.3735 515.744 50.4969 514.725C50.3686 514.572 50.2868 514.386 50.261 514.189C50.2408 514.253 50.2175 514.316 50.1994 514.38C50.1994 514.38 47.8904 521.12 58.9868 527.373C70.0832 533.625 77.8144 526.847 78.7091 526.141C79.6909 525.36 85.6689 519.517 83.5481 517.605ZM50.9517 513.325C51.483 513.942 53.6591 513.01 55.8087 511.244C57.9583 509.478 59.2695 507.545 58.7371 506.932C58.3121 506.442 56.8553 506.932 55.1956 508.035C54.9148 507.893 54.6677 507.694 54.4704 507.45C54.2732 507.207 54.1303 506.925 54.0512 506.623C53.9641 505.918 54.0671 504.666 53.9386 504.309C53.9371 504.238 53.9116 504.17 53.8663 504.115C53.6283 503.84 52.876 504.075 52.1853 504.641C51.4947 505.207 51.1281 505.892 51.3661 506.167C51.6759 507.454 52.2663 508.659 53.096 509.697C51.4245 511.25 50.4874 512.787 50.9517 513.325Z" fill="#00BC84"/>
<path d="M115.674 520.436C115.674 519.136 114.764 518.382 113.282 518.382H110.058V522.412H113.334C114.816 522.412 115.674 521.736 115.674 520.436ZM115.232 513.234C115.232 511.986 114.426 511.31 112.97 511.31H110.058V515.132H112.97C114.426 515.132 115.232 514.482 115.232 513.234ZM120.172 521.034C120.172 524.05 117.962 526 114.114 526H105.612V507.748H113.828C117.546 507.748 119.756 509.594 119.756 512.48C119.756 514.69 118.43 516.12 116.662 516.64C118.794 517.082 120.172 518.954 120.172 521.034ZM129.147 514.846C127.691 514.846 126.573 515.73 126.313 517.342H131.877C131.877 515.756 130.629 514.846 129.147 514.846ZM136.089 521.19C135.387 524.024 132.813 526.208 129.199 526.208C124.935 526.208 121.867 523.348 121.867 518.746C121.867 514.144 124.883 511.284 129.199 511.284C133.437 511.284 136.427 514.092 136.427 518.512C136.427 518.928 136.401 519.37 136.349 519.812H126.287C126.443 521.71 127.613 522.594 129.043 522.594C130.291 522.594 130.993 521.97 131.357 521.19H136.089ZM150.55 521.788C150.55 524.31 148.314 526.208 144.674 526.208C140.8 526.208 138.2 524.05 137.992 521.242H142.386C142.49 522.256 143.4 522.932 144.622 522.932C145.766 522.932 146.364 522.412 146.364 521.762C146.364 519.422 138.46 521.112 138.46 515.782C138.46 513.312 140.566 511.284 144.362 511.284C148.106 511.284 150.186 513.364 150.472 516.224H146.364C146.234 515.236 145.48 514.586 144.232 514.586C143.192 514.586 142.62 515.002 142.62 515.704C142.62 518.018 150.472 516.38 150.55 521.788ZM153.972 520.956V515.184H152.204V511.492H153.972V507.956H158.418V511.492H161.33V515.184H158.418V521.008C158.418 521.866 158.782 522.23 159.77 522.23H161.356V526H159.094C156.078 526 153.972 524.726 153.972 520.956ZM173.788 515.912H176.206C177.974 515.912 178.728 515.028 178.728 513.624C178.728 512.22 177.974 511.336 176.206 511.336H173.788V515.912ZM183.252 513.624C183.252 516.64 181.198 519.448 176.544 519.448H173.788V526H169.342V507.748H176.544C181.016 507.748 183.252 510.27 183.252 513.624ZM190.013 519.266V526H185.567V511.492H190.013V513.91C191.027 512.376 192.613 511.336 194.563 511.336V516.042H193.341C191.235 516.042 190.013 516.77 190.013 519.266ZM195.804 518.72C195.804 514.144 198.638 511.284 202.2 511.284C204.358 511.284 205.892 512.272 206.672 513.546V511.492H211.118V526H206.672V523.946C205.866 525.22 204.332 526.208 202.174 526.208C198.638 526.208 195.804 523.296 195.804 518.72ZM206.672 518.746C206.672 516.432 205.19 515.158 203.5 515.158C201.836 515.158 200.328 516.406 200.328 518.72C200.328 521.034 201.836 522.334 203.5 522.334C205.19 522.334 206.672 521.06 206.672 518.746ZM213.451 518.746C213.451 514.17 216.467 511.284 220.731 511.284C224.371 511.284 226.945 513.286 227.699 516.744H222.967C222.603 515.73 221.875 515.08 220.653 515.08C219.067 515.08 217.975 516.328 217.975 518.746C217.975 521.164 219.067 522.412 220.653 522.412C221.875 522.412 222.577 521.814 222.967 520.748H227.699C226.945 524.102 224.371 526.208 220.731 526.208C216.467 526.208 213.451 523.348 213.451 518.746ZM230.779 520.956V515.184H229.011V511.492H230.779V507.956H235.225V511.492H238.137V515.184H235.225V521.008C235.225 521.866 235.589 522.23 236.577 522.23H238.163V526H235.901C232.885 526 230.779 524.726 230.779 520.956ZM240.639 526V511.492H245.085V526H240.639ZM242.875 509.984C241.289 509.984 240.223 508.918 240.223 507.592C240.223 506.24 241.289 505.174 242.875 505.174C244.435 505.174 245.501 506.24 245.501 507.592C245.501 508.918 244.435 509.984 242.875 509.984ZM247.423 518.746C247.423 514.17 250.439 511.284 254.703 511.284C258.343 511.284 260.917 513.286 261.671 516.744H256.939C256.575 515.73 255.847 515.08 254.625 515.08C253.039 515.08 251.947 516.328 251.947 518.746C251.947 521.164 253.039 522.412 254.625 522.412C255.847 522.412 256.549 521.814 256.939 520.748H261.671C260.917 524.102 258.343 526.208 254.703 526.208C250.439 526.208 247.423 523.348 247.423 518.746ZM270.446 514.846C268.99 514.846 267.872 515.73 267.612 517.342H273.176C273.176 515.756 271.928 514.846 270.446 514.846ZM277.388 521.19C276.686 524.024 274.112 526.208 270.498 526.208C266.234 526.208 263.166 523.348 263.166 518.746C263.166 514.144 266.182 511.284 270.498 511.284C274.736 511.284 277.725 514.092 277.725 518.512C277.725 518.928 277.7 519.37 277.648 519.812H267.586C267.742 521.71 268.912 522.594 270.342 522.594C271.59 522.594 272.292 521.97 272.656 521.19H277.388ZM291.849 521.788C291.849 524.31 289.613 526.208 285.973 526.208C282.099 526.208 279.499 524.05 279.291 521.242H283.685C283.789 522.256 284.699 522.932 285.921 522.932C287.065 522.932 287.663 522.412 287.663 521.762C287.663 519.422 279.759 521.112 279.759 515.782C279.759 513.312 281.865 511.284 285.661 511.284C289.405 511.284 291.485 513.364 291.771 516.224H287.663C287.533 515.236 286.779 514.586 285.531 514.586C284.491 514.586 283.919 515.002 283.919 515.704C283.919 518.018 291.771 516.38 291.849 521.788Z" fill="#0E0E0E"/>
<path d="M83.5481 571.605C83.0168 571.123 82.001 572.269 81.05 573.166C80.099 574.063 77.7709 575.517 73.2847 572.99C71.5538 572.015 65.1476 562.974 62.5167 561.393C61.6443 560.844 60.6487 560.515 59.618 560.434C59.8346 560.489 60.0297 560.606 60.178 560.772C61.0546 561.788 59.5989 564.393 56.9254 566.589C54.252 568.785 51.3735 569.744 50.4969 568.725C50.3686 568.572 50.2868 568.386 50.261 568.189C50.2408 568.253 50.2175 568.316 50.1994 568.38C50.1994 568.38 47.8904 575.12 58.9868 581.373C70.0832 587.625 77.8144 580.847 78.7091 580.141C79.6909 579.36 85.6689 573.517 83.5481 571.605ZM50.9517 567.325C51.483 567.942 53.6591 567.01 55.8087 565.244C57.9583 563.478 59.2695 561.545 58.7371 560.932C58.3121 560.442 56.8553 560.932 55.1956 562.035C54.9148 561.893 54.6677 561.694 54.4704 561.45C54.2732 561.207 54.1303 560.925 54.0512 560.623C53.9641 559.918 54.0671 558.666 53.9386 558.309C53.9371 558.238 53.9116 558.17 53.8663 558.115C53.6283 557.84 52.876 558.075 52.1853 558.641C51.4947 559.207 51.1281 559.892 51.3661 560.167C51.6759 561.454 52.2663 562.659 53.096 563.697C51.4245 565.25 50.4874 566.787 50.9517 567.325Z" fill="#00BC84"/>
<path d="M118.872 574.566C118.872 577.634 116.48 580.182 112.216 580.182C108.29 580.182 105.222 578.232 105.092 574.54H109.824C109.954 575.944 110.838 576.62 112.086 576.62C113.386 576.62 114.218 575.97 114.218 574.904C114.218 571.524 105.092 573.344 105.144 566.87C105.144 563.412 107.978 561.488 111.8 561.488C115.778 561.488 118.456 563.464 118.638 566.948H113.828C113.75 565.778 112.918 565.076 111.722 565.05C110.656 565.024 109.85 565.57 109.85 566.714C109.85 569.886 118.872 568.456 118.872 574.566ZM132.788 561.748V565.31H126.054V569.002H132.008V572.434H126.054V576.438H132.788V580H121.608V561.748H132.788ZM153.641 570.822C153.641 576.308 149.481 580.182 144.307 580.182C139.133 580.182 134.92 576.308 134.92 570.822C134.92 565.336 139.133 561.488 144.307 561.488C149.507 561.488 153.641 565.336 153.641 570.822ZM139.471 570.822C139.471 574.02 141.343 576.126 144.307 576.126C147.219 576.126 149.117 574.02 149.117 570.822C149.117 567.572 147.219 565.518 144.307 565.518C141.343 565.518 139.471 567.572 139.471 570.822Z" fill="#0E0E0E"/>
<path d="M101.922 636.36L101.662 639.5L104.242 637.76L104.802 638.78L101.982 640.06L104.822 641.34L104.242 642.38L101.662 640.66L101.902 643.8H100.742L100.962 640.66L98.3816 642.4L97.7816 641.34L100.622 640.06L97.8016 638.8L98.3816 637.76L100.982 639.5L100.742 636.36H101.922ZM107.577 651V637.02H108.977V651H107.577ZM120.327 651V644.76C120.327 642.34 119.007 641.1 117.007 641.1C114.967 641.1 113.547 642.38 113.547 645.04V651H112.147V640.08H113.547V641.94C114.247 640.58 115.647 639.88 117.267 639.88C119.747 639.88 121.707 641.4 121.707 644.6V651H120.327ZM124.163 645.52C124.163 642.1 126.383 639.92 129.403 639.92C131.363 639.92 133.003 641 133.703 642.44V636.2H135.103V651H133.703V648.56C133.063 650 131.543 651.16 129.383 651.16C126.383 651.16 124.163 648.94 124.163 645.52ZM133.703 645.54C133.703 642.82 131.883 641.14 129.643 641.14C127.343 641.14 125.583 642.74 125.583 645.52C125.583 648.28 127.343 649.94 129.643 649.94C131.883 649.94 133.703 648.26 133.703 645.54ZM138.299 651V640.08H139.699V651H138.299ZM138.999 638.02C138.439 638.02 137.979 637.58 137.979 636.98C137.979 636.38 138.439 635.96 138.999 635.96C139.559 635.96 140.019 636.38 140.019 636.98C140.019 637.58 139.559 638.02 138.999 638.02ZM142.23 645.54C142.23 642.08 144.45 639.92 147.53 639.92C150.27 639.92 152.05 641.38 152.55 643.64H151.05C150.69 642.08 149.37 641.12 147.53 641.12C145.39 641.12 143.65 642.58 143.65 645.54C143.65 648.5 145.39 649.98 147.53 649.98C149.37 649.98 150.67 649.04 151.05 647.44H152.55C152.05 649.62 150.27 651.16 147.53 651.16C144.45 651.16 142.23 649 142.23 645.54ZM154.495 645.52C154.495 642.1 156.715 639.92 159.715 639.92C161.915 639.92 163.415 641.1 164.035 642.48V640.08H165.435V651H164.035V648.58C163.395 649.98 161.875 651.16 159.695 651.16C156.715 651.16 154.495 648.94 154.495 645.52ZM164.035 645.54C164.035 642.82 162.215 641.14 159.975 641.14C157.675 641.14 155.915 642.74 155.915 645.52C155.915 648.28 157.675 649.94 159.975 649.94C162.215 649.94 164.035 648.26 164.035 645.54ZM169.031 648.04V641.26H167.511V640.08H169.031V637.34H170.451V640.08H173.451V641.26H170.451V648.04C170.451 649.38 170.911 649.8 172.171 649.8H173.451V651H171.951C170.051 651 169.031 650.22 169.031 648.04ZM180.42 641.12C178.44 641.12 176.7 642.4 176.54 644.94H184.22C184.28 642.4 182.44 641.12 180.42 641.12ZM185.48 647.54C184.98 649.6 183.22 651.16 180.48 651.16C177.38 651.16 175.12 649 175.12 645.54C175.12 642.06 177.34 639.92 180.48 639.92C183.68 639.92 185.64 642.2 185.64 644.98C185.64 645.42 185.64 645.7 185.6 646.08H176.54C176.66 648.64 178.44 649.98 180.48 649.98C182.34 649.98 183.6 649 184 647.54H185.48ZM197.662 640.08V651H196.262V649.08C195.602 650.46 194.162 651.18 192.542 651.18C190.062 651.18 188.102 649.66 188.102 646.46V640.08H189.482V646.3C189.482 648.72 190.802 649.96 192.802 649.96C194.842 649.96 196.262 648.68 196.262 646.02V640.08H197.662ZM202.258 644.9V651H200.858V640.08H202.258V642.02C202.858 640.68 204.118 639.88 205.998 639.88V641.34H205.618C203.798 641.34 202.258 642.16 202.258 644.9ZM213.592 651V640.08H214.992V651H213.592ZM214.292 638.02C213.732 638.02 213.272 637.58 213.272 636.98C213.272 636.38 213.732 635.96 214.292 635.96C214.852 635.96 215.312 636.38 215.312 636.98C215.312 637.58 214.852 638.02 214.292 638.02ZM234.123 651V644.76C234.123 642.34 232.863 641.1 230.923 641.1C228.943 641.1 227.543 642.42 227.543 645.08V651H226.163V644.76C226.163 642.34 224.883 641.1 222.943 641.1C220.943 641.1 219.563 642.42 219.563 645.08V651H218.163V640.08H219.563V641.96C220.263 640.58 221.643 639.88 223.183 639.88C225.003 639.88 226.562 640.74 227.223 642.56C227.823 640.78 229.423 639.88 231.163 639.88C233.583 639.88 235.503 641.4 235.503 644.6V651H234.123ZM239.992 642.48C240.632 641.1 242.152 639.92 244.332 639.92C247.312 639.92 249.532 642.1 249.532 645.52C249.532 648.94 247.312 651.16 244.332 651.16C242.152 651.16 240.632 649.96 239.992 648.6V656.16H238.612V640.08H239.992V642.48ZM248.112 645.52C248.112 642.74 246.352 641.14 244.052 641.14C241.832 641.14 239.992 642.82 239.992 645.54C239.992 648.26 241.832 649.94 244.052 649.94C246.352 649.94 248.112 648.28 248.112 645.52ZM251.468 645.52C251.468 642.1 253.688 639.92 256.688 639.92C258.888 639.92 260.388 641.1 261.008 642.48V640.08H262.408V651H261.008V648.58C260.368 649.98 258.848 651.16 256.668 651.16C253.688 651.16 251.468 648.94 251.468 645.52ZM261.008 645.54C261.008 642.82 259.188 641.14 256.948 641.14C254.648 641.14 252.888 642.74 252.888 645.52C252.888 648.28 254.648 649.94 256.948 649.94C259.188 649.94 261.008 648.26 261.008 645.54ZM264.964 645.54C264.964 642.08 267.184 639.92 270.264 639.92C273.004 639.92 274.784 641.38 275.284 643.64H273.784C273.424 642.08 272.104 641.12 270.264 641.12C268.124 641.12 266.384 642.58 266.384 645.54C266.384 648.5 268.124 649.98 270.264 649.98C272.104 649.98 273.404 649.04 273.784 647.44H275.284C274.784 649.62 273.004 651.16 270.264 651.16C267.184 651.16 264.964 649 264.964 645.54ZM278.27 648.04V641.26H276.75V640.08H278.27V637.34H279.69V640.08H282.69V641.26H279.69V648.04C279.69 649.38 280.15 649.8 281.41 649.8H282.69V651H281.19C279.29 651 278.27 650.22 278.27 648.04ZM99.1409 671.12C97.1609 671.12 95.4209 672.4 95.2609 674.94H102.941C103.001 672.4 101.161 671.12 99.1409 671.12ZM104.201 677.54C103.701 679.6 101.941 681.16 99.2009 681.16C96.1009 681.16 93.8409 679 93.8409 675.54C93.8409 672.06 96.0609 669.92 99.2009 669.92C102.401 669.92 104.361 672.2 104.361 674.98C104.361 675.42 104.361 675.7 104.321 676.08H95.2609C95.3809 678.64 97.1609 679.98 99.2009 679.98C101.061 679.98 102.321 679 102.721 677.54H104.201ZM115.102 681V674.76C115.102 672.34 113.782 671.1 111.782 671.1C109.742 671.1 108.322 672.38 108.322 675.04V681H106.922V670.08H108.322V671.94C109.022 670.58 110.422 669.88 112.042 669.88C114.522 669.88 116.482 671.4 116.482 674.6V681H115.102ZM118.279 670.08H119.779L123.459 679.64L127.139 670.08H128.619L124.239 681H122.659L118.279 670.08ZM130.516 681V670.08H131.916V681H130.516ZM131.216 668.02C130.656 668.02 130.196 667.58 130.196 666.98C130.196 666.38 130.656 665.96 131.216 665.96C131.776 665.96 132.236 666.38 132.236 666.98C132.236 667.58 131.776 668.02 131.216 668.02ZM136.486 674.9V681H135.086V670.08H136.486V672.02C137.086 670.68 138.346 669.88 140.226 669.88V671.34H139.846C138.026 671.34 136.486 672.16 136.486 674.9ZM152.612 675.54C152.612 679 150.192 681.16 147.112 681.16C144.032 681.16 141.692 679 141.692 675.54C141.692 672.06 144.092 669.92 147.152 669.92C150.232 669.92 152.612 672.06 152.612 675.54ZM143.112 675.54C143.112 678.54 145.032 679.94 147.112 679.94C149.172 679.94 151.172 678.54 151.172 675.54C151.172 672.54 149.212 671.14 147.132 671.14C145.052 671.14 143.112 672.54 143.112 675.54ZM163.344 681V674.76C163.344 672.34 162.024 671.1 160.024 671.1C157.984 671.1 156.564 672.38 156.564 675.04V681H155.164V670.08H156.564V671.94C157.264 670.58 158.664 669.88 160.284 669.88C162.764 669.88 164.724 671.4 164.724 674.6V681H163.344ZM176.001 681V674.76C176.001 672.34 174.681 671.1 172.681 671.1C170.641 671.1 169.221 672.38 169.221 675.04V681H167.821V670.08H169.221V671.94C169.921 670.58 171.321 669.88 172.941 669.88C175.421 669.88 177.381 671.4 177.381 674.6V681H176.001ZM185.137 671.12C183.157 671.12 181.417 672.4 181.257 674.94H188.937C188.997 672.4 187.157 671.12 185.137 671.12ZM190.197 677.54C189.697 679.6 187.937 681.16 185.197 681.16C182.097 681.16 179.837 679 179.837 675.54C179.837 672.06 182.057 669.92 185.197 669.92C188.397 669.92 190.357 672.2 190.357 674.98C190.357 675.42 190.357 675.7 190.317 676.08H181.257C181.377 678.64 183.157 679.98 185.197 679.98C187.057 679.98 188.317 679 188.717 677.54H190.197ZM208.878 681V674.76C208.878 672.34 207.618 671.1 205.678 671.1C203.698 671.1 202.298 672.42 202.298 675.08V681H200.918V674.76C200.918 672.34 199.638 671.1 197.698 671.1C195.698 671.1 194.318 672.42 194.318 675.08V681H192.918V670.08H194.318V671.96C195.018 670.58 196.398 669.88 197.938 669.88C199.758 669.88 201.318 670.74 201.978 672.56C202.578 670.78 204.178 669.88 205.918 669.88C208.338 669.88 210.258 671.4 210.258 674.6V681H208.878ZM218.028 671.12C216.048 671.12 214.308 672.4 214.148 674.94H221.828C221.888 672.4 220.048 671.12 218.028 671.12ZM223.088 677.54C222.588 679.6 220.828 681.16 218.088 681.16C214.988 681.16 212.728 679 212.728 675.54C212.728 672.06 214.948 669.92 218.088 669.92C221.288 669.92 223.248 672.2 223.248 674.98C223.248 675.42 223.248 675.7 223.208 676.08H214.148C214.268 678.64 216.048 679.98 218.088 679.98C219.948 679.98 221.208 679 221.608 677.54H223.088ZM233.989 681V674.76C233.989 672.34 232.669 671.1 230.669 671.1C228.629 671.1 227.209 672.38 227.209 675.04V681H225.809V670.08H227.209V671.94C227.909 670.58 229.309 669.88 230.929 669.88C233.409 669.88 235.369 671.4 235.369 674.6V681H233.989ZM238.865 678.04V671.26H237.345V670.08H238.865V667.34H240.285V670.08H243.285V671.26H240.285V678.04C240.285 679.38 240.745 679.8 242.005 679.8H243.285V681H241.785C239.885 681 238.865 680.22 238.865 678.04ZM244.954 675.52C244.954 672.1 247.174 669.92 250.174 669.92C252.374 669.92 253.874 671.1 254.494 672.48V670.08H255.894V681H254.494V678.58C253.854 679.98 252.334 681.16 250.154 681.16C247.174 681.16 244.954 678.94 244.954 675.52ZM254.494 675.54C254.494 672.82 252.674 671.14 250.434 671.14C248.134 671.14 246.374 672.74 246.374 675.52C246.374 678.28 248.134 679.94 250.434 679.94C252.674 679.94 254.494 678.26 254.494 675.54ZM259.09 681V666.2H260.49V681H259.09ZM273.809 671.12C271.829 671.12 270.089 672.4 269.929 674.94H277.609C277.669 672.4 275.829 671.12 273.809 671.12ZM278.869 677.54C278.369 679.6 276.609 681.16 273.869 681.16C270.769 681.16 268.509 679 268.509 675.54C268.509 672.06 270.729 669.92 273.869 669.92C277.069 669.92 279.029 672.2 279.029 674.98C279.029 675.42 279.029 675.7 278.989 676.08H269.929C270.049 678.64 271.829 679.98 273.869 679.98C275.729 679.98 276.989 679 277.389 677.54H278.869ZM281.99 678.04V671.26H280.47V670.08H281.99V667.34H283.41V670.08H286.41V671.26H283.41V678.04C283.41 679.38 283.87 679.8 285.13 679.8H286.41V681H284.91C283.01 681 281.99 680.22 281.99 678.04ZM127.443 702.48C128.083 701.1 129.603 699.92 131.783 699.92C134.763 699.92 136.983 702.1 136.983 705.52C136.983 708.94 134.763 711.16 131.783 711.16C129.603 711.16 128.083 709.96 127.443 708.6V716.16H126.063V700.08H127.443V702.48ZM135.563 705.52C135.563 702.74 133.803 701.14 131.503 701.14C129.283 701.14 127.443 702.82 127.443 705.54C127.443 708.26 129.283 709.94 131.503 709.94C133.803 709.94 135.563 708.28 135.563 705.52ZM144.219 701.12C142.239 701.12 140.499 702.4 140.339 704.94H148.019C148.079 702.4 146.239 701.12 144.219 701.12ZM149.279 707.54C148.779 709.6 147.019 711.16 144.279 711.16C141.179 711.16 138.919 709 138.919 705.54C138.919 702.06 141.139 699.92 144.279 699.92C147.479 699.92 149.439 702.2 149.439 704.98C149.439 705.42 149.439 705.7 149.399 706.08H140.339C140.459 708.64 142.239 709.98 144.279 709.98C146.139 709.98 147.399 709 147.799 707.54H149.279ZM153.4 704.9V711H152V700.08H153.4V702.02C154 700.68 155.26 699.88 157.14 699.88V701.34H156.76C154.94 701.34 153.4 702.16 153.4 704.9ZM159.606 711V701.26H158.086V700.08H159.606V699.32C159.606 696.98 160.706 695.86 163.466 695.86V697.06C161.606 697.06 161.006 697.74 161.006 699.32V700.08H163.546V701.26H161.006V711H159.606ZM176.03 705.54C176.03 709 173.61 711.16 170.53 711.16C167.45 711.16 165.11 709 165.11 705.54C165.11 702.06 167.51 699.92 170.57 699.92C173.65 699.92 176.03 702.06 176.03 705.54ZM166.53 705.54C166.53 708.54 168.45 709.94 170.53 709.94C172.59 709.94 174.59 708.54 174.59 705.54C174.59 702.54 172.63 701.14 170.55 701.14C168.47 701.14 166.53 702.54 166.53 705.54ZM179.982 704.9V711H178.582V700.08H179.982V702.02C180.582 700.68 181.842 699.88 183.722 699.88V701.34H183.342C181.522 701.34 179.982 702.16 179.982 704.9ZM201.789 711V704.76C201.789 702.34 200.529 701.1 198.589 701.1C196.609 701.1 195.209 702.42 195.209 705.08V711H193.829V704.76C193.829 702.34 192.549 701.1 190.609 701.1C188.609 701.1 187.229 702.42 187.229 705.08V711H185.829V700.08H187.229V701.96C187.929 700.58 189.309 699.88 190.849 699.88C192.669 699.88 194.229 700.74 194.889 702.56C195.489 700.78 197.089 699.88 198.829 699.88C201.249 699.88 203.169 701.4 203.169 704.6V711H201.789ZM205.638 705.52C205.638 702.1 207.858 699.92 210.858 699.92C213.058 699.92 214.558 701.1 215.178 702.48V700.08H216.578V711H215.178V708.58C214.538 709.98 213.018 711.16 210.838 711.16C207.858 711.16 205.638 708.94 205.638 705.52ZM215.178 705.54C215.178 702.82 213.358 701.14 211.118 701.14C208.818 701.14 207.058 702.74 207.058 705.52C207.058 708.28 208.818 709.94 211.118 709.94C213.358 709.94 215.178 708.26 215.178 705.54ZM227.954 711V704.76C227.954 702.34 226.634 701.1 224.634 701.1C222.594 701.1 221.174 702.38 221.174 705.04V711H219.774V700.08H221.174V701.94C221.874 700.58 223.274 699.88 224.894 699.88C227.374 699.88 229.334 701.4 229.334 704.6V711H227.954ZM231.79 705.54C231.79 702.08 234.01 699.92 237.09 699.92C239.83 699.92 241.61 701.38 242.11 703.64H240.61C240.25 702.08 238.93 701.12 237.09 701.12C234.95 701.12 233.21 702.58 233.21 705.54C233.21 708.5 234.95 709.98 237.09 709.98C238.93 709.98 240.23 709.04 240.61 707.44H242.11C241.61 709.62 239.83 711.16 237.09 711.16C234.01 711.16 231.79 709 231.79 705.54ZM249.356 701.12C247.376 701.12 245.636 702.4 245.476 704.94H253.156C253.216 702.4 251.376 701.12 249.356 701.12ZM254.416 707.54C253.916 709.6 252.156 711.16 249.416 711.16C246.316 711.16 244.056 709 244.056 705.54C244.056 702.06 246.276 699.92 249.416 699.92C252.616 699.92 254.576 702.2 254.576 704.98C254.576 705.42 254.576 705.7 254.536 706.08H245.476C245.596 708.64 247.376 709.98 249.416 709.98C251.276 709.98 252.536 709 252.936 707.54H254.416Z" fill="black"/>
<defs>
<clipPath id="clip0_689_4364">
<rect width="117" height="90" fill="white" transform="translate(50 167)"/>
</clipPath>
</defs>
</svg>
