<svg viewBox="0 0 236 157" fill="none"
  xmlns="http://www.w3.org/2000/svg">
  <path d="M1.83213 3.22495C1.01357 3.35238 0.453284 4.11926 0.580709 4.93783C0.708134 5.7564 1.47501 6.31668 2.29358 6.18925L1.83213 3.22495ZM233.897 155.914C235.324 155.451 235.324 155.45 235.323 155.448C235.322 155.446 235.322 155.443 235.321 155.44C235.318 155.434 235.316 155.425 235.312 155.413C235.304 155.39 235.293 155.356 235.278 155.311C235.248 155.222 235.204 155.091 235.146 154.919C235.029 154.575 234.853 154.069 234.618 153.412C234.146 152.097 233.434 150.179 232.468 147.75C230.534 142.894 227.58 135.996 223.49 127.807C215.312 111.435 202.582 89.877 184.373 69.1602C147.926 27.6949 89.488 -10.4203 1.83213 3.22495L2.29358 6.18925C88.6807 -7.25848 146.16 30.2295 182.119 71.1407C200.113 91.6121 212.709 112.936 220.806 129.148C224.853 137.251 227.774 144.071 229.68 148.86C230.634 151.254 231.333 153.14 231.794 154.424C232.024 155.066 232.194 155.557 232.306 155.887C232.362 156.051 232.404 156.175 232.431 156.257C232.445 156.298 232.455 156.329 232.461 156.349C232.465 156.359 232.467 156.366 232.468 156.37C232.469 156.373 232.47 156.374 232.47 156.375C232.47 156.376 232.47 156.376 233.897 155.914Z" fill="url(#paint0_linear_310_2412)"/>
  <defs>
    <linearGradient id="paint0_linear_310_2412" x1="6.64039" y1="6.5225" x2="223.363" y2="35.2055" gradientUnits="userSpaceOnUse">
      <stop stop-color="white"/>
      <stop offset="1" stop-color="white" stop-opacity="0"/>
    </linearGradient>
  </defs>
</svg>
