<svg viewBox="0 0 1800 423" fill="none"
  xmlns="http://www.w3.org/2000/svg">
  <g filter="url(#filter0_d_544_12825)">
    <path d="M192.5 285.148L0 345.648V499.648H1800V161.648L1663.37 96.0285C1661.48 95.1201 1659.41 94.6484 1657.31 94.6484H1546.78C1545.6 94.6484 1544.42 94.7977 1543.28 95.0926L1498.5 106.648L1427.86 124.074C1425.02 124.773 1422.04 124.568 1419.33 123.489L1382.87 108.984C1379.14 107.499 1374.95 107.689 1371.37 109.504L1349.19 120.746C1343.97 123.392 1337.65 122.511 1333.35 118.535L1324.52 110.371C1321.94 107.978 1318.54 106.648 1315.02 106.648H1275.5H1239.07C1238.02 106.648 1236.99 106.533 1235.97 106.303L1185.84 94.9517C1184.95 94.75 1184.08 94.4616 1183.24 94.0907L1152.42 80.3885C1147.31 78.1186 1141.34 79.1038 1137.23 82.8946L1115.52 102.936C1112.94 105.323 1109.55 106.648 1106.03 106.648H1064.57C1062.23 106.648 1059.92 106.061 1057.87 104.939L1045.57 98.2313C1041.46 95.9926 1036.51 95.9503 1032.37 98.1188L957.05 137.552C955.047 138.6 952.819 139.148 950.557 139.148H906.739C904.289 139.148 901.882 138.506 899.759 137.284L849.741 108.513C847.618 107.291 845.211 106.648 842.761 106.648H815.541C814.517 106.648 813.495 106.761 812.496 106.984L732.886 124.728C731.635 125.007 730.427 125.457 729.298 126.064L629.106 179.977C627.067 181.074 624.788 181.648 622.472 181.648H542.734C541.254 181.648 539.784 181.883 538.377 182.344L484.959 199.834C484.32 200.044 483.698 200.298 483.096 200.597L425.197 229.307C424.071 229.865 422.874 230.27 421.64 230.509L328 248.648L192.5 285.148Z" fill="#03040E"/>
  </g>
  <defs>
    <filter id="filter0_d_544_12825" x="-47.8" y="0.381641" width="1895.6" height="517" filterUnits="userSpaceOnUse" color-interpolation-filters="sRGB">
      <feFlood flood-opacity="0" result="BackgroundImageFix"/>
      <feColorMatrix in="SourceAlpha" type="matrix" values="0 0 0 0 0 0 0 0 0 0 0 0 0 0 0 0 0 0 127 0" result="hardAlpha"/>
      <feOffset dy="-31"/>
      <feGaussianBlur stdDeviation="23.9"/>
      <feComposite in2="hardAlpha" operator="out"/>
      <feColorMatrix type="matrix" values="0 0 0 0 1 0 0 0 0 1 0 0 0 0 1 0 0 0 0.25 0"/>
      <feBlend mode="normal" in2="BackgroundImageFix" result="effect1_dropShadow_544_12825"/>
      <feBlend mode="normal" in="SourceGraphic" in2="effect1_dropShadow_544_12825" result="shape"/>
    </filter>
  </defs>
</svg>
