<svg width="1516" height="684" viewBox="0 0 1516 684" fill="none" xmlns="http://www.w3.org/2000/svg">
<path d="M108 213L126 70.5M108 213L314 174M108 213L717.5 499M108 213L142.405 174M126 70.5L198.5 110.414M126 70.5L142.405 174M314 174L198.5 110.414M314 174H142.405M314 174L285.5 412M198.5 110.414L142.405 174M717.5 499L735.5 621.5M717.5 499L630.5 584.5M717.5 499L683 603M717.5 499L565 472M735.5 621.5L582.5 682M735.5 621.5L1043 321.5M735.5 621.5L683 603M582.5 682L630.5 584.5M582.5 682L683 603M630.5 584.5L683 603M1043 321.5L1176.5 392.5M1043 321.5L1236.5 195L1340 277M1043 321.5L1340 277M1176.5 392.5L1340 277M1176.5 392.5L1256.5 412M1176.5 392.5L1273.5 486.5M1340 277L1273.5 486.5M1340 277L1256.5 412M1273.5 486.5L1256.5 412M1273.5 486.5L1268.48 554.5M1273.5 486.5L1378.5 554.5M1273.5 486.5L1340 584.5M1268.48 554.5L1378.5 656.5M1268.48 554.5L1340 584.5M1378.5 656.5V554.5M1378.5 656.5L1340 584.5M1378.5 554.5L1340 584.5M285.5 412L503 338.5L565 472M285.5 412L565 472" stroke="white" stroke-width="2" stroke-linecap="round"/>
<path d="M76.4564 28.304C76.4564 25.302 74.7844 23.364 70.8324 23.364H65.7404V33.396H70.8324C74.7464 33.396 76.4564 31.268 76.4564 28.304ZM62.2824 20.514H70.8324C77.0644 20.514 80.0284 23.972 80.0284 28.304C80.0284 31.686 78.1664 34.916 73.7204 35.904L80.3704 47H76.2284L69.9204 36.17H65.7404V47H62.2824V20.514ZM94.2556 28.76C90.8736 28.76 88.0616 31.002 87.6816 35.068H100.83C100.868 31.002 97.8276 28.76 94.2556 28.76ZM103.984 40.578C102.92 44.378 99.5756 47.342 94.4076 47.342C88.4796 47.342 84.1096 43.162 84.1096 36.55C84.1096 29.976 88.3276 25.834 94.4076 25.834C100.45 25.834 104.402 30.09 104.402 35.79C104.402 36.55 104.364 37.158 104.288 37.88H87.6436C87.9096 42.098 90.8736 44.416 94.4076 44.416C97.5236 44.416 99.4996 42.82 100.26 40.578H103.984ZM107.674 36.512C107.674 30.014 111.968 25.834 117.554 25.834C121.43 25.834 124.09 27.81 125.306 29.976V26.176H128.802V47H125.306V43.124C124.052 45.366 121.354 47.342 117.516 47.342C111.968 47.342 107.674 42.972 107.674 36.512ZM125.306 36.55C125.306 31.724 122.038 28.836 118.238 28.836C114.438 28.836 111.208 31.61 111.208 36.512C111.208 41.414 114.438 44.302 118.238 44.302C122.038 44.302 125.306 41.452 125.306 36.55ZM133.354 36.55C133.354 30.014 137.572 25.834 143.5 25.834C148.668 25.834 152.05 28.494 153.114 32.864H149.39C148.668 30.356 146.578 28.76 143.5 28.76C139.7 28.76 136.888 31.458 136.888 36.55C136.888 41.718 139.7 44.416 143.5 44.416C146.578 44.416 148.63 42.934 149.39 40.312H153.114C152.05 44.454 148.668 47.342 143.5 47.342C137.572 47.342 133.354 43.162 133.354 36.55ZM158.488 41.3V29.026H155.79V26.176H158.488V20.932H161.946V26.176H167.38V29.026H161.946V41.3C161.946 43.352 162.706 44.074 164.834 44.074H167.38V47H164.264C160.578 47 158.488 45.48 158.488 41.3Z" fill="white"/>
<path d="M1188.46 148.304C1188.46 145.302 1186.78 143.364 1182.83 143.364H1177.74V153.396H1182.83C1186.75 153.396 1188.46 151.268 1188.46 148.304ZM1174.28 140.514H1182.83C1189.06 140.514 1192.03 143.972 1192.03 148.304C1192.03 151.686 1190.17 154.916 1185.72 155.904L1192.37 167H1188.23L1181.92 156.17H1177.74V167H1174.28V140.514ZM1206.26 148.76C1202.87 148.76 1200.06 151.002 1199.68 155.068H1212.83C1212.87 151.002 1209.83 148.76 1206.26 148.76ZM1215.98 160.578C1214.92 164.378 1211.58 167.342 1206.41 167.342C1200.48 167.342 1196.11 163.162 1196.11 156.55C1196.11 149.976 1200.33 145.834 1206.41 145.834C1212.45 145.834 1216.4 150.09 1216.4 155.79C1216.4 156.55 1216.36 157.158 1216.29 157.88H1199.64C1199.91 162.098 1202.87 164.416 1206.41 164.416C1209.52 164.416 1211.5 162.82 1212.26 160.578H1215.98ZM1219.67 156.512C1219.67 150.014 1223.97 145.834 1229.55 145.834C1233.43 145.834 1236.09 147.81 1237.31 149.976V146.176H1240.8V167H1237.31V163.124C1236.05 165.366 1233.35 167.342 1229.52 167.342C1223.97 167.342 1219.67 162.972 1219.67 156.512ZM1237.31 156.55C1237.31 151.724 1234.04 148.836 1230.24 148.836C1226.44 148.836 1223.21 151.61 1223.21 156.512C1223.21 161.414 1226.44 164.302 1230.24 164.302C1234.04 164.302 1237.31 161.452 1237.31 156.55ZM1245.35 156.55C1245.35 150.014 1249.57 145.834 1255.5 145.834C1260.67 145.834 1264.05 148.494 1265.11 152.864H1261.39C1260.67 150.356 1258.58 148.76 1255.5 148.76C1251.7 148.76 1248.89 151.458 1248.89 156.55C1248.89 161.718 1251.7 164.416 1255.5 164.416C1258.58 164.416 1260.63 162.934 1261.39 160.312H1265.11C1264.05 164.454 1260.67 167.342 1255.5 167.342C1249.57 167.342 1245.35 163.162 1245.35 156.55ZM1270.49 161.3V149.026H1267.79V146.176H1270.49V140.932H1273.95V146.176H1279.38V149.026H1273.95V161.3C1273.95 163.352 1274.71 164.074 1276.83 164.074H1279.38V167H1276.26C1272.58 167 1270.49 165.48 1270.49 161.3Z" fill="white"/>
<path d="M963.456 264.304C963.456 261.302 961.784 259.364 957.832 259.364H952.74V269.396H957.832C961.746 269.396 963.456 267.268 963.456 264.304ZM949.282 256.514H957.832C964.064 256.514 967.028 259.972 967.028 264.304C967.028 267.686 965.166 270.916 960.72 271.904L967.37 283H963.228L956.92 272.17H952.74V283H949.282V256.514ZM981.256 264.76C977.874 264.76 975.062 267.002 974.682 271.068H987.83C987.868 267.002 984.828 264.76 981.256 264.76ZM990.984 276.578C989.92 280.378 986.576 283.342 981.408 283.342C975.48 283.342 971.11 279.162 971.11 272.55C971.11 265.976 975.328 261.834 981.408 261.834C987.45 261.834 991.402 266.09 991.402 271.79C991.402 272.55 991.364 273.158 991.288 273.88H974.644C974.91 278.098 977.874 280.416 981.408 280.416C984.524 280.416 986.5 278.82 987.26 276.578H990.984ZM994.674 272.512C994.674 266.014 998.968 261.834 1004.55 261.834C1008.43 261.834 1011.09 263.81 1012.31 265.976V262.176H1015.8V283H1012.31V279.124C1011.05 281.366 1008.35 283.342 1004.52 283.342C998.968 283.342 994.674 278.972 994.674 272.512ZM1012.31 272.55C1012.31 267.724 1009.04 264.836 1005.24 264.836C1001.44 264.836 998.208 267.61 998.208 272.512C998.208 277.414 1001.44 280.302 1005.24 280.302C1009.04 280.302 1012.31 277.452 1012.31 272.55ZM1020.35 272.55C1020.35 266.014 1024.57 261.834 1030.5 261.834C1035.67 261.834 1039.05 264.494 1040.11 268.864H1036.39C1035.67 266.356 1033.58 264.76 1030.5 264.76C1026.7 264.76 1023.89 267.458 1023.89 272.55C1023.89 277.718 1026.7 280.416 1030.5 280.416C1033.58 280.416 1035.63 278.934 1036.39 276.312H1040.11C1039.05 280.454 1035.67 283.342 1030.5 283.342C1024.57 283.342 1020.35 279.162 1020.35 272.55ZM1045.49 277.3V265.026H1042.79V262.176H1045.49V256.932H1048.95V262.176H1054.38V265.026H1048.95V277.3C1048.95 279.352 1049.71 280.074 1051.83 280.074H1054.38V283H1051.26C1047.58 283 1045.49 281.48 1045.49 277.3Z" fill="white"/>
<path d="M505.456 556.304C505.456 553.302 503.784 551.364 499.832 551.364H494.74V561.396H499.832C503.746 561.396 505.456 559.268 505.456 556.304ZM491.282 548.514H499.832C506.064 548.514 509.028 551.972 509.028 556.304C509.028 559.686 507.166 562.916 502.72 563.904L509.37 575H505.228L498.92 564.17H494.74V575H491.282V548.514ZM523.256 556.76C519.874 556.76 517.062 559.002 516.682 563.068H529.83C529.868 559.002 526.828 556.76 523.256 556.76ZM532.984 568.578C531.92 572.378 528.576 575.342 523.408 575.342C517.48 575.342 513.11 571.162 513.11 564.55C513.11 557.976 517.328 553.834 523.408 553.834C529.45 553.834 533.402 558.09 533.402 563.79C533.402 564.55 533.364 565.158 533.288 565.88H516.644C516.91 570.098 519.874 572.416 523.408 572.416C526.524 572.416 528.5 570.82 529.26 568.578H532.984ZM536.674 564.512C536.674 558.014 540.968 553.834 546.554 553.834C550.43 553.834 553.09 555.81 554.306 557.976V554.176H557.802V575H554.306V571.124C553.052 573.366 550.354 575.342 546.516 575.342C540.968 575.342 536.674 570.972 536.674 564.512ZM554.306 564.55C554.306 559.724 551.038 556.836 547.238 556.836C543.438 556.836 540.208 559.61 540.208 564.512C540.208 569.414 543.438 572.302 547.238 572.302C551.038 572.302 554.306 569.452 554.306 564.55ZM562.354 564.55C562.354 558.014 566.572 553.834 572.5 553.834C577.668 553.834 581.05 556.494 582.114 560.864H578.39C577.668 558.356 575.578 556.76 572.5 556.76C568.7 556.76 565.888 559.458 565.888 564.55C565.888 569.718 568.7 572.416 572.5 572.416C575.578 572.416 577.63 570.934 578.39 568.312H582.114C581.05 572.454 577.668 575.342 572.5 575.342C566.572 575.342 562.354 571.162 562.354 564.55ZM587.488 569.3V557.026H584.79V554.176H587.488V548.932H590.946V554.176H596.38V557.026H590.946V569.3C590.946 571.352 591.706 572.074 593.834 572.074H596.38V575H593.264C589.578 575 587.488 573.48 587.488 569.3Z" fill="white"/>
<path d="M352.4 171.12L358.97 153.09H361.85L353.96 174H350.81L342.92 153.09H345.83L352.4 171.12ZM379.423 157.56V174H376.693V171.57C375.643 173.28 373.633 174.24 371.443 174.24C367.663 174.24 364.693 171.9 364.693 167.19V157.56H367.393V166.83C367.393 170.16 369.223 171.87 371.983 171.87C374.803 171.87 376.693 170.13 376.693 166.59V157.56H379.423ZM391.023 159.6C388.353 159.6 386.133 161.37 385.833 164.58H396.213C396.243 161.37 393.843 159.6 391.023 159.6ZM398.703 168.93C397.863 171.93 395.223 174.27 391.143 174.27C386.463 174.27 383.013 170.97 383.013 165.75C383.013 160.56 386.343 157.29 391.143 157.29C395.913 157.29 399.033 160.65 399.033 165.15C399.033 165.75 399.003 166.23 398.943 166.8H385.803C386.013 170.13 388.353 171.96 391.143 171.96C393.603 171.96 395.163 170.7 395.763 168.93H398.703ZM405.306 172.32C405.306 173.37 404.496 174.18 403.506 174.18C402.456 174.18 401.646 173.37 401.646 172.32C401.646 171.27 402.456 170.46 403.506 170.46C404.496 170.46 405.306 171.27 405.306 172.32ZM410.405 154.89C409.385 154.89 408.575 154.08 408.575 153.03C408.575 151.98 409.385 151.17 410.405 151.17C411.425 151.17 412.235 151.98 412.235 153.03C412.235 154.08 411.425 154.89 410.405 154.89ZM409.025 157.56H411.755V177.57C411.755 180.54 410.195 181.8 407.405 181.8H405.815V179.49H406.955C408.455 179.49 409.025 178.95 409.025 177.51V157.56ZM428.196 169.53C428.196 172.23 425.826 174.27 422.196 174.27C418.356 174.27 415.656 172.17 415.476 169.17H418.296C418.446 170.76 419.856 171.96 422.166 171.96C424.326 171.96 425.526 170.88 425.526 169.53C425.526 165.87 415.806 168 415.806 161.88C415.806 159.36 418.176 157.29 421.836 157.29C425.466 157.29 427.866 159.24 428.046 162.45H425.316C425.196 160.8 423.936 159.6 421.746 159.6C419.736 159.6 418.536 160.56 418.536 161.88C418.536 165.78 428.076 163.65 428.196 169.53Z" fill="white"/>
<path d="M1380.4 280.12L1386.97 262.09H1389.85L1381.96 283H1378.81L1370.92 262.09H1373.83L1380.4 280.12ZM1407.42 266.56V283H1404.69V280.57C1403.64 282.28 1401.63 283.24 1399.44 283.24C1395.66 283.24 1392.69 280.9 1392.69 276.19V266.56H1395.39V275.83C1395.39 279.16 1397.22 280.87 1399.98 280.87C1402.8 280.87 1404.69 279.13 1404.69 275.59V266.56H1407.42ZM1419.02 268.6C1416.35 268.6 1414.13 270.37 1413.83 273.58H1424.21C1424.24 270.37 1421.84 268.6 1419.02 268.6ZM1426.7 277.93C1425.86 280.93 1423.22 283.27 1419.14 283.27C1414.46 283.27 1411.01 279.97 1411.01 274.75C1411.01 269.56 1414.34 266.29 1419.14 266.29C1423.91 266.29 1427.03 269.65 1427.03 274.15C1427.03 274.75 1427 275.23 1426.94 275.8H1413.8C1414.01 279.13 1416.35 280.96 1419.14 280.96C1421.6 280.96 1423.16 279.7 1423.76 277.93H1426.7ZM1433.31 281.32C1433.31 282.37 1432.5 283.18 1431.51 283.18C1430.46 283.18 1429.65 282.37 1429.65 281.32C1429.65 280.27 1430.46 279.46 1431.51 279.46C1432.5 279.46 1433.31 280.27 1433.31 281.32ZM1438.41 263.89C1437.39 263.89 1436.58 263.08 1436.58 262.03C1436.58 260.98 1437.39 260.17 1438.41 260.17C1439.43 260.17 1440.24 260.98 1440.24 262.03C1440.24 263.08 1439.43 263.89 1438.41 263.89ZM1437.03 266.56H1439.76V286.57C1439.76 289.54 1438.2 290.8 1435.41 290.8H1433.81V288.49H1434.96C1436.46 288.49 1437.03 287.95 1437.03 286.51V266.56ZM1456.2 278.53C1456.2 281.23 1453.83 283.27 1450.2 283.27C1446.36 283.27 1443.66 281.17 1443.48 278.17H1446.3C1446.45 279.76 1447.86 280.96 1450.17 280.96C1452.33 280.96 1453.53 279.88 1453.53 278.53C1453.53 274.87 1443.81 277 1443.81 270.88C1443.81 268.36 1446.18 266.29 1449.84 266.29C1453.47 266.29 1455.87 268.24 1456.05 271.45H1453.32C1453.2 269.8 1451.94 268.6 1449.75 268.6C1447.74 268.6 1446.54 269.56 1446.54 270.88C1446.54 274.78 1456.08 272.65 1456.2 278.53Z" fill="white"/>
<path d="M50.5298 244.06H53.2598V265H50.5298L39.5498 248.35V265H36.8198V244.06H39.5498L50.5298 260.68V244.06ZM64.9035 250.6C62.2335 250.6 60.0135 252.37 59.7135 255.58H70.0935C70.1235 252.37 67.7235 250.6 64.9035 250.6ZM72.5835 259.93C71.7435 262.93 69.1035 265.27 65.0235 265.27C60.3435 265.27 56.8935 261.97 56.8935 256.75C56.8935 251.56 60.2235 248.29 65.0235 248.29C69.7935 248.29 72.9135 251.65 72.9135 256.15C72.9135 256.75 72.8835 257.23 72.8235 257.8H59.6835C59.8935 261.13 62.2335 262.96 65.0235 262.96C67.4835 262.96 69.0435 261.7 69.6435 259.93H72.5835ZM85.097 265L81.197 258.88L77.447 265H74.597L79.907 256.84L74.597 248.56H77.687L81.587 254.65L85.307 248.56H88.157L82.877 256.69L88.187 265H85.097ZM91.4725 260.5V250.81H89.3425V248.56H91.4725V244.42H94.2025V248.56H98.4925V250.81H94.2025V260.5C94.2025 262.12 94.8025 262.69 96.4825 262.69H98.4925V265H96.0325C93.1225 265 91.4725 263.8 91.4725 260.5Z" fill="white"/>
<path d="M1123.53 420.06H1126.26V441H1123.53L1112.55 424.35V441H1109.82V420.06H1112.55L1123.53 436.68V420.06ZM1137.9 426.6C1135.23 426.6 1133.01 428.37 1132.71 431.58H1143.09C1143.12 428.37 1140.72 426.6 1137.9 426.6ZM1145.58 435.93C1144.74 438.93 1142.1 441.27 1138.02 441.27C1133.34 441.27 1129.89 437.97 1129.89 432.75C1129.89 427.56 1133.22 424.29 1138.02 424.29C1142.79 424.29 1145.91 427.65 1145.91 432.15C1145.91 432.75 1145.88 433.23 1145.82 433.8H1132.68C1132.89 437.13 1135.23 438.96 1138.02 438.96C1140.48 438.96 1142.04 437.7 1142.64 435.93H1145.58ZM1158.1 441L1154.2 434.88L1150.45 441H1147.6L1152.91 432.84L1147.6 424.56H1150.69L1154.59 430.65L1158.31 424.56H1161.16L1155.88 432.69L1161.19 441H1158.1ZM1164.47 436.5V426.81H1162.34V424.56H1164.47V420.42H1167.2V424.56H1171.49V426.81H1167.2V436.5C1167.2 438.12 1167.8 438.69 1169.48 438.69H1171.49V441H1169.03C1166.12 441 1164.47 439.8 1164.47 436.5Z" fill="white"/>
<path d="M1432.53 552.06H1435.26V573H1432.53L1421.55 556.35V573H1418.82V552.06H1421.55L1432.53 568.68V552.06ZM1446.9 558.6C1444.23 558.6 1442.01 560.37 1441.71 563.58H1452.09C1452.12 560.37 1449.72 558.6 1446.9 558.6ZM1454.58 567.93C1453.74 570.93 1451.1 573.27 1447.02 573.27C1442.34 573.27 1438.89 569.97 1438.89 564.75C1438.89 559.56 1442.22 556.29 1447.02 556.29C1451.79 556.29 1454.91 559.65 1454.91 564.15C1454.91 564.75 1454.88 565.23 1454.82 565.8H1441.68C1441.89 569.13 1444.23 570.96 1447.02 570.96C1449.48 570.96 1451.04 569.7 1451.64 567.93H1454.58ZM1467.1 573L1463.2 566.88L1459.45 573H1456.6L1461.91 564.84L1456.6 556.56H1459.69L1463.59 562.65L1467.31 556.56H1470.16L1464.88 564.69L1470.19 573H1467.1ZM1473.47 568.5V558.81H1471.34V556.56H1473.47V552.42H1476.2V556.56H1480.49V558.81H1476.2V568.5C1476.2 570.12 1476.8 570.69 1478.48 570.69H1480.49V573H1478.03C1475.12 573 1473.47 571.8 1473.47 568.5Z" fill="white"/>
<path d="M765.53 639.06H768.26V660H765.53L754.55 643.35V660H751.82V639.06H754.55L765.53 655.68V639.06ZM779.904 645.6C777.234 645.6 775.014 647.37 774.714 650.58H785.094C785.124 647.37 782.724 645.6 779.904 645.6ZM787.584 654.93C786.744 657.93 784.104 660.27 780.024 660.27C775.344 660.27 771.894 656.97 771.894 651.75C771.894 646.56 775.224 643.29 780.024 643.29C784.794 643.29 787.914 646.65 787.914 651.15C787.914 651.75 787.884 652.23 787.824 652.8H774.684C774.894 656.13 777.234 657.96 780.024 657.96C782.484 657.96 784.044 656.7 784.644 654.93H787.584ZM800.097 660L796.197 653.88L792.447 660H789.597L794.907 651.84L789.597 643.56H792.687L796.587 649.65L800.307 643.56H803.157L797.877 651.69L803.187 660H800.097ZM806.473 655.5V645.81H804.343V643.56H806.473V639.42H809.203V643.56H813.493V645.81H809.203V655.5C809.203 657.12 809.803 657.69 811.482 657.69H813.493V660H811.033C808.123 660 806.473 658.8 806.473 655.5Z" fill="white"/>
</svg>
