<svg width="140" height="83" viewBox="0 0 140 83" fill="none" xmlns="http://www.w3.org/2000/svg">
<path d="M35.1159 71.4496L91.1329 10.7411L108.42 10.7403L55.1873 71.4503L35.1159 71.4496Z" fill="#3D3D3D" stroke="#3D3D3D"/>
<mask id="path-2-inside-1_250_264" fill="white">
<path fill-rule="evenodd" clip-rule="evenodd" d="M29.8351 10.2426L0.000488281 43.3774L33.9679 71.9521H55.4245L19.8396 42.0168L48.4491 10.2426H29.8351Z"/>
</mask>
<path fill-rule="evenodd" clip-rule="evenodd" d="M29.8351 10.2426L0.000488281 43.3774L33.9679 71.9521H55.4245L19.8396 42.0168L48.4491 10.2426H29.8351Z" fill="#3D3D3D"/>
<path d="M29.8351 10.2426V9.24255H29.3898L29.0919 9.57343L29.8351 10.2426ZM0.000488281 43.3774L-0.742659 42.7083L-1.43469 43.4769L-0.64326 44.1427L0.000488281 43.3774ZM33.9679 71.9521L33.3241 72.7174L33.6032 72.9521H33.9679V71.9521ZM55.4245 71.9521V72.9521H58.1666L56.0682 71.1869L55.4245 71.9521ZM19.8396 42.0168L19.0965 41.3476L18.4044 42.1162L19.1959 42.782L19.8396 42.0168ZM48.4491 10.2426L49.1922 10.9117L50.6951 9.24255H48.4491V10.2426ZM29.0919 9.57343L-0.742659 42.7083L0.743635 44.0466L30.5782 10.9117L29.0919 9.57343ZM-0.64326 44.1427L33.3241 72.7174L34.6116 71.1869L0.644236 42.6122L-0.64326 44.1427ZM33.9679 72.9521H55.4245V70.9521H33.9679V72.9521ZM56.0682 71.1869L20.4834 41.2515L19.1959 42.782L54.7807 72.7174L56.0682 71.1869ZM20.5828 42.6859L49.1922 10.9117L47.7059 9.57343L19.0965 41.3476L20.5828 42.6859ZM48.4491 9.24255H29.8351V11.2426H48.4491V9.24255Z" fill="#3D3D3D" mask="url(#path-2-inside-1_250_264)"/>
<mask id="path-4-inside-2_250_264" fill="white">
<path fill-rule="evenodd" clip-rule="evenodd" d="M109.523 10.2426L139.358 43.3774L105.391 71.9521H83.9349L119.519 42.0172L90.9094 10.2426H109.523Z"/>
</mask>
<path fill-rule="evenodd" clip-rule="evenodd" d="M109.523 10.2426L139.358 43.3774L105.391 71.9521H83.9349L119.519 42.0172L90.9094 10.2426H109.523Z" fill="#3D3D3D"/>
<path d="M109.523 10.2426V9.24255H109.969L110.267 9.57343L109.523 10.2426ZM139.358 43.3774L140.101 42.7083L140.793 43.4769L140.002 44.1426L139.358 43.3774ZM105.391 71.9521L106.034 72.7174L105.755 72.9521H105.391V71.9521ZM83.9349 71.9521V72.9521H81.1928L83.2912 71.1869L83.9349 71.9521ZM119.519 42.0172L120.262 41.3481L120.954 42.1167L120.163 42.7825L119.519 42.0172ZM90.9094 10.2426L90.1662 10.9117L88.6633 9.24255H90.9094V10.2426ZM110.267 9.57343L140.101 42.7083L138.615 44.0465L108.78 10.9117L110.267 9.57343ZM140.002 44.1426L106.034 72.7174L104.747 71.1869L138.714 42.6122L140.002 44.1426ZM105.391 72.9521H83.9349V70.9521H105.391V72.9521ZM83.2912 71.1869L118.875 41.252L120.163 42.7825L84.5787 72.7174L83.2912 71.1869ZM118.776 42.6864L90.1662 10.9117L91.6525 9.57343L120.262 41.3481L118.776 42.6864ZM90.9094 9.24255H109.523V11.2426H90.9094V9.24255Z" fill="#3D3D3D" mask="url(#path-4-inside-2_250_264)"/>
</svg>